<?xml version="1.0" encoding="UTF-8" standalone="no"?>
<!DOCTYPE svg PUBLIC "-//W3C//DTD SVG 1.1//EN" "http://www.w3.org/Graphics/SVG/1.1/DTD/svg11.dtd">
<svg width="100%" height="100%" viewBox="0 0 512 512" version="1.1" xmlns="http://www.w3.org/2000/svg" xmlns:xlink="http://www.w3.org/1999/xlink" xml:space="preserve" xmlns:serif="http://www.serif.com/" style="fill-rule:evenodd;clip-rule:evenodd;stroke-linejoin:round;stroke-miterlimit:1.41421;">
    <g transform="matrix(3.53996,0,0,3.53996,-2499.32,-1353.62)">
        <g id="Alligator---Lines-Vertical" serif:id="Alligator - Lines Vertical" transform="matrix(0.570182,0,0,0.319481,626.842,417.98)">
            <g id="Border" transform="matrix(1.75383,0,0,3.13008,-1099.37,-1307.95)">
                <g transform="matrix(0.410507,0,0,0.231217,469.133,379.545)">
                    <path d="M753.252,35.043C770.85,35.043 790.701,104.339 790.701,104.339L715.804,104.339C715.804,104.339 735.655,35.043 753.252,35.043Z" style="fill:none;stroke:rgb(19,117,49);stroke-width:16.86px;"/>
                </g>
                <g transform="matrix(1.03744,0,0,1.00505,-673.364,-84.2494)">
                    <path d="M1399.33,482.321C1444.69,482.321 1462.78,524.432 1462.78,555.828C1462.78,587.223 1434.35,602.73 1399.33,602.73C1364.31,602.73 1335.88,587.223 1335.88,555.828C1335.88,524.432 1353.97,482.321 1399.33,482.321Z" style="fill:none;stroke:rgb(19,117,49);stroke-width:5.5px;"/>
                </g>
            </g>
            <g transform="matrix(0.495437,0,0,0.884213,-155.202,-130.533)">
                <path d="M798.472,91.307C806.753,76.677 829.211,40.658 849.59,40.658C869.968,40.658 892.427,76.677 900.708,91.307C1029.92,118.499 1082.61,248.218 1082.61,347.698C1082.61,459.398 978.198,514.567 849.59,514.567C720.981,514.567 616.567,459.398 616.567,347.698C616.567,248.218 669.264,118.499 798.472,91.307Z" style="fill:url(#_Radial1);"/>
                <clipPath id="_clip2">
                    <path d="M798.472,91.307C806.753,76.677 829.211,40.658 849.59,40.658C869.968,40.658 892.427,76.677 900.708,91.307C1029.92,118.499 1082.61,248.218 1082.61,347.698C1082.61,459.398 978.198,514.567 849.59,514.567C720.981,514.567 616.567,459.398 616.567,347.698C616.567,248.218 669.264,118.499 798.472,91.307Z"/>
                </clipPath>
                <g clip-path="url(#_clip2)">
                    <g transform="matrix(6.04843,0,0,4.11904,-4220.61,-1263.24)">
                        <path d="M799.155,338.606C799.155,338.606 819.22,338.954 825.453,338.606C831.686,338.258 833.818,338.954 839.573,338.954C845.328,338.954 866.031,338.069 869.22,338.055C872.409,338.041 878.062,337.939 878.062,337.939L879.091,347.885C879.091,347.885 862.986,347.537 856.505,347.537C850.025,347.537 843.661,348.913 835.557,348.913C827.453,348.913 824.7,347.87 816.001,348.218C807.302,348.566 797.444,348.566 797.444,348.566L799.155,338.606Z" style="fill:url(#_Radial3);"/>
                    </g>
                    <g transform="matrix(6.04843,0,0,4.11904,-4220.61,-1373.93)">
                        <path d="M799.155,338.606C799.155,338.606 819.22,338.954 825.453,338.606C831.686,338.258 833.818,338.954 839.573,338.954C845.328,338.954 866.031,338.069 869.22,338.055C872.409,338.041 878.062,337.939 878.062,337.939L879.091,347.885C879.091,347.885 862.986,347.537 856.505,347.537C850.025,347.537 843.661,348.913 835.557,348.913C827.453,348.913 824.7,347.87 816.001,348.218C807.302,348.566 797.444,348.566 797.444,348.566L799.155,338.606Z" style="fill:url(#_Radial4);"/>
                    </g>
                    <g transform="matrix(6.04843,0,0,6.04843,-4201.45,-1928.84)">
                        <path d="M792.906,357.83C792.906,357.83 808.202,357.698 813.754,357.698C819.306,357.698 829.207,356.64 835.078,356.64C840.949,356.64 856.867,355.756 861.23,355.756C865.594,355.756 876.945,356.105 876.945,356.105L877.293,366.15C877.293,366.15 866.42,364.76 860.767,365.107C855.113,365.455 850.922,365.455 846.428,365.455C841.935,365.455 835.876,364.425 829.308,364.758C822.741,365.092 818.159,364.745 813.23,365.441C808.302,366.136 792.92,366.483 792.92,366.483L792.906,357.83Z" style="fill:url(#_Radial5);"/>
                    </g>
                    <g transform="matrix(7.51154,0,0,7.12141,-5427.22,-2351.88)">
                        <path d="M801.518,378.444C801.518,378.444 811.275,380.168 816.711,379.487C822.147,378.806 824.277,377.879 830.497,377.879C836.717,377.879 841.501,378.213 848.663,377.879C855.824,377.546 869.726,377.546 869.726,377.546L868.379,383.779C868.379,383.779 848.183,383.547 843.69,383.779C839.196,384.011 834.064,384.127 828.41,384.358C822.756,384.59 802.707,384.59 802.707,384.59L801.518,378.444Z" style="fill:url(#_Radial6);"/>
                    </g>
                    <g transform="matrix(7.21136,0,0,5.61457,-5200.28,-1763.37)">
                        <path d="M804.491,392.753C804.491,392.753 818.264,391.709 823.975,391.709C829.686,391.709 832.57,393.319 838.37,392.739C844.169,392.158 861.551,391.81 861.551,391.81L870.945,391.81C873.264,391.81 873.38,396.638 873.38,396.638C873.38,396.638 867.945,398.013 862.044,398.362C856.143,398.711 847.285,399.06 842.357,398.711C837.428,398.362 833.471,398.362 828.397,398.362C823.323,398.362 805.23,398.595 805.23,398.595L804.491,392.753Z" style="fill:url(#_Radial7);"/>
                    </g>
                </g>
            </g>
        </g>
    </g>
    <defs>
        <radialGradient id="_Radial1" cx="0" cy="0" r="1" gradientUnits="userSpaceOnUse" gradientTransform="matrix(2.33444e-14,381.243,-381.243,2.33444e-14,849.59,133.324)"><stop offset="0" style="stop-color:rgb(169,227,75);stop-opacity:1"/><stop offset="0.55" style="stop-color:rgb(58,190,80);stop-opacity:1"/><stop offset="0.97" style="stop-color:rgb(6,145,52);stop-opacity:1"/><stop offset="1" style="stop-color:rgb(46,151,63);stop-opacity:1"/></radialGradient>
        <radialGradient id="_Radial3" cx="0" cy="0" r="1" gradientUnits="userSpaceOnUse" gradientTransform="matrix(2.6241e-15,62.9284,-42.8548,3.85325e-15,838.267,368.678)"><stop offset="0" style="stop-color:white;stop-opacity:1"/><stop offset="0.6" style="stop-color:rgb(233,248,238);stop-opacity:1"/><stop offset="0.81" style="stop-color:rgb(184,232,200);stop-opacity:1"/><stop offset="1" style="stop-color:rgb(134,215,162);stop-opacity:1"/></radialGradient>
        <radialGradient id="_Radial4" cx="0" cy="0" r="1" gradientUnits="userSpaceOnUse" gradientTransform="matrix(2.6241e-15,62.9284,-42.8548,3.85325e-15,838.267,395.551)"><stop offset="0" style="stop-color:white;stop-opacity:1"/><stop offset="0.6" style="stop-color:rgb(233,248,238);stop-opacity:1"/><stop offset="0.81" style="stop-color:rgb(184,232,200);stop-opacity:1"/><stop offset="1" style="stop-color:rgb(134,215,162);stop-opacity:1"/></radialGradient>
        <radialGradient id="_Radial5" cx="0" cy="0" r="1" gradientUnits="userSpaceOnUse" gradientTransform="matrix(2.6241e-15,42.8548,-42.8548,2.6241e-15,835.099,361.12)"><stop offset="0" style="stop-color:white;stop-opacity:1"/><stop offset="0.6" style="stop-color:rgb(233,248,238);stop-opacity:1"/><stop offset="0.81" style="stop-color:rgb(184,232,200);stop-opacity:1"/><stop offset="1" style="stop-color:rgb(134,215,162);stop-opacity:1"/></radialGradient>
        <radialGradient id="_Radial6" cx="0" cy="0" r="1" gradientUnits="userSpaceOnUse" gradientTransform="matrix(2.11297e-15,36.3979,-34.5075,2.22873e-15,835.622,366.114)"><stop offset="0" style="stop-color:white;stop-opacity:1"/><stop offset="0.6" style="stop-color:rgb(233,248,238);stop-opacity:1"/><stop offset="0.81" style="stop-color:rgb(184,232,200);stop-opacity:1"/><stop offset="1" style="stop-color:rgb(134,215,162);stop-opacity:1"/></radialGradient>
        <radialGradient id="_Radial7" cx="0" cy="0" r="1" gradientUnits="userSpaceOnUse" gradientTransform="matrix(2.20093e-15,46.1664,-35.9439,2.82688e-15,838.935,359.552)"><stop offset="0" style="stop-color:white;stop-opacity:1"/><stop offset="0.6" style="stop-color:rgb(233,248,238);stop-opacity:1"/><stop offset="0.81" style="stop-color:rgb(184,232,200);stop-opacity:1"/><stop offset="1" style="stop-color:rgb(134,215,162);stop-opacity:1"/></radialGradient>
    </defs>
</svg>
