<?xml version="1.0" encoding="UTF-8" standalone="no"?>
<!DOCTYPE svg PUBLIC "-//W3C//DTD SVG 1.1//EN" "http://www.w3.org/Graphics/SVG/1.1/DTD/svg11.dtd">
<svg width="100%" height="100%" viewBox="0 0 512 512" version="1.1" xmlns="http://www.w3.org/2000/svg" xmlns:xlink="http://www.w3.org/1999/xlink" xml:space="preserve" xmlns:serif="http://www.serif.com/" style="fill-rule:evenodd;clip-rule:evenodd;stroke-linejoin:round;stroke-miterlimit:1.41421;">
    <g transform="matrix(3.05488,0,0,3.05488,-2569.81,-476.428)">
        <g id="Bear---Lines-Horizontal" serif:id="Bear - Lines Horizontal">
            <g id="Outline">
                <g transform="matrix(1.2939,0,0,1.2939,-588.965,87.7862)">
                    <circle cx="1134.72" cy="82.638" r="18.572" style="fill:none;stroke:rgb(135,66,36);stroke-width:5.03px;"/>
                </g>
                <g transform="matrix(-1.2939,0,0,1.2939,2439.23,87.7862)">
                    <circle cx="1134.72" cy="82.638" r="18.572" style="fill:none;stroke:rgb(135,66,36);stroke-width:5.03px;"/>
                </g>
                <g transform="matrix(1.16424,0,0,1.14322,-704.137,-372.627)">
                    <path d="M1399.33,482.321C1444.69,482.321 1462.78,517.793 1462.78,549.189C1462.78,580.584 1434.35,596.091 1399.33,596.091C1364.31,596.091 1335.88,580.584 1335.88,549.189C1335.88,517.793 1353.97,482.321 1399.33,482.321Z" style="fill:none;stroke:rgb(135,66,36);stroke-width:5.64px;"/>
                </g>
            </g>
            <g transform="matrix(0.950246,0,0,0.950246,-409.88,-270.944)">
                <path d="M1431.47,477.087C1435.89,469.699 1443.97,464.748 1453.19,464.748C1467.15,464.748 1478.48,476.08 1478.48,490.037C1478.48,497.202 1475.5,503.674 1470.71,508.276C1478.84,522.086 1482.53,538.304 1482.53,553.708C1482.53,591.479 1447.69,610.134 1404.79,610.134C1361.88,610.134 1327.05,591.479 1327.05,553.708C1327.05,538.244 1330.76,521.958 1338.96,508.12C1334.27,503.528 1331.35,497.121 1331.35,490.037C1331.35,476.08 1342.68,464.748 1356.63,464.748C1365.83,464.748 1373.89,469.67 1378.32,477.02C1386.13,474.602 1394.93,473.261 1404.79,473.261C1414.73,473.261 1423.6,474.626 1431.47,477.087Z" style="fill:url(#_Radial1);"/>
                <clipPath id="_clip2">
                    <path d="M1431.47,477.087C1435.89,469.699 1443.97,464.748 1453.19,464.748C1467.15,464.748 1478.48,476.08 1478.48,490.037C1478.48,497.202 1475.5,503.674 1470.71,508.276C1478.84,522.086 1482.53,538.304 1482.53,553.708C1482.53,591.479 1447.69,610.134 1404.79,610.134C1361.88,610.134 1327.05,591.479 1327.05,553.708C1327.05,538.244 1330.76,521.958 1338.96,508.12C1334.27,503.528 1331.35,497.121 1331.35,490.037C1331.35,476.08 1342.68,464.748 1356.63,464.748C1365.83,464.748 1373.89,469.67 1378.32,477.02C1386.13,474.602 1394.93,473.261 1404.79,473.261C1414.73,473.261 1423.6,474.626 1431.47,477.087Z"/>
                </clipPath>
                <g clip-path="url(#_clip2)">
                    <g id="Horizontal" transform="matrix(1.0682,0,0,1.0682,249.954,-65.4494)">
                        <g transform="matrix(1.95057,0,0,1.32836,-554.241,62.8157)">
                            <path d="M799.155,338.606C799.155,338.606 819.22,338.954 825.453,338.606C831.686,338.258 833.818,338.954 839.573,338.954C845.328,338.954 866.031,338.069 869.22,338.055C872.409,338.041 878.062,337.939 878.062,337.939L879.091,347.885C879.091,347.885 862.986,347.537 856.505,347.537C850.025,347.537 843.661,348.913 835.557,348.913C827.453,348.913 824.7,347.87 816.001,348.218C807.302,348.566 797.444,348.566 797.444,348.566L799.155,338.606Z" style="fill:url(#_Radial3);"/>
                        </g>
                        <g transform="matrix(1.95057,0,0,1.95057,-548.062,-151.837)">
                            <path d="M792.906,357.83C792.906,357.83 808.202,357.698 813.754,357.698C819.306,357.698 829.207,356.64 835.078,356.64C840.949,356.64 856.867,355.756 861.23,355.756C865.594,355.756 876.945,356.105 876.945,356.105L877.293,366.15C877.293,366.15 866.42,364.76 860.767,365.107C855.113,365.455 850.922,365.455 846.428,365.455C841.935,365.455 835.876,364.425 829.308,364.758C822.741,365.092 818.159,364.745 813.23,365.441C808.302,366.136 792.92,366.483 792.92,366.483L792.906,357.83Z" style="fill:url(#_Radial4);"/>
                        </g>
                        <g transform="matrix(2.42241,0,0,2.29659,-943.364,-288.263)">
                            <path d="M801.518,378.444C801.518,378.444 811.275,380.168 816.711,379.487C822.147,378.806 824.277,377.879 830.497,377.879C836.717,377.879 841.501,378.213 848.663,377.879C855.824,377.546 869.726,377.546 869.726,377.546L868.379,383.779C868.379,383.779 848.183,383.547 843.69,383.779C839.196,384.011 834.064,384.127 828.41,384.358C822.756,384.59 802.707,384.59 802.707,384.59L801.518,378.444Z" style="fill:url(#_Radial5);"/>
                        </g>
                        <g transform="matrix(2.3256,0,0,1.81065,-870.175,-98.4719)">
                            <path d="M804.491,392.753C804.491,392.753 818.264,391.709 823.975,391.709C829.686,391.709 832.57,393.319 838.37,392.739C844.169,392.158 861.551,391.81 861.551,391.81L870.945,391.81C873.264,391.81 873.38,396.638 873.38,396.638C873.38,396.638 867.945,398.013 862.044,398.362C856.143,398.711 847.285,399.06 842.357,398.711C837.428,398.362 833.471,398.362 828.397,398.362C823.323,398.362 805.23,398.595 805.23,398.595L804.491,392.753Z" style="fill:url(#_Radial6);"/>
                        </g>
                    </g>
                </g>
            </g>
        </g>
    </g>
    <defs>
        <radialGradient id="_Radial1" cx="0" cy="0" r="1" gradientUnits="userSpaceOnUse" gradientTransform="matrix(6.76282e-15,117.314,-110.445,7.1834e-15,1404.27,492.819)"><stop offset="0" style="stop-color:rgb(227,153,114);stop-opacity:1"/><stop offset="0.41" style="stop-color:rgb(199,127,90);stop-opacity:1"/><stop offset="0.91" style="stop-color:rgb(132,64,33);stop-opacity:1"/><stop offset="1" style="stop-color:rgb(142,71,43);stop-opacity:1"/></radialGradient>
        <radialGradient id="_Radial3" cx="0" cy="0" r="1" gradientUnits="userSpaceOnUse" gradientTransform="matrix(2.58852e-15,62.0752,-37.6866,3.38856e-15,838.267,369.347)"><stop offset="0" style="stop-color:white;stop-opacity:1"/><stop offset="0.6" style="stop-color:rgb(247,233,225);stop-opacity:1"/><stop offset="0.81" style="stop-color:rgb(228,182,158);stop-opacity:1"/><stop offset="1" style="stop-color:rgb(208,131,90);stop-opacity:1"/></radialGradient>
        <radialGradient id="_Radial4" cx="0" cy="0" r="1" gradientUnits="userSpaceOnUse" gradientTransform="matrix(2.58852e-15,42.2738,-37.6866,2.30764e-15,835.099,361.575)"><stop offset="0" style="stop-color:white;stop-opacity:1"/><stop offset="0.6" style="stop-color:rgb(247,233,225);stop-opacity:1"/><stop offset="0.81" style="stop-color:rgb(228,182,158);stop-opacity:1"/><stop offset="1" style="stop-color:rgb(208,131,90);stop-opacity:1"/></radialGradient>
        <radialGradient id="_Radial5" cx="0" cy="0" r="1" gradientUnits="userSpaceOnUse" gradientTransform="matrix(2.08432e-15,35.9044,-30.3459,1.95995e-15,835.622,366.501)"><stop offset="0" style="stop-color:white;stop-opacity:1"/><stop offset="0.6" style="stop-color:rgb(247,233,225);stop-opacity:1"/><stop offset="0.81" style="stop-color:rgb(228,182,158);stop-opacity:1"/><stop offset="1" style="stop-color:rgb(208,131,90);stop-opacity:1"/></radialGradient>
        <radialGradient id="_Radial6" cx="0" cy="0" r="1" gradientUnits="userSpaceOnUse" gradientTransform="matrix(2.17109e-15,45.5404,-31.6091,2.48596e-15,838.935,360.043)"><stop offset="0" style="stop-color:white;stop-opacity:1"/><stop offset="0.6" style="stop-color:rgb(247,233,225);stop-opacity:1"/><stop offset="0.81" style="stop-color:rgb(228,182,158);stop-opacity:1"/><stop offset="1" style="stop-color:rgb(208,131,90);stop-opacity:1"/></radialGradient>
    </defs>
</svg>
