<?xml version="1.0" encoding="UTF-8" standalone="no"?>
<!DOCTYPE svg PUBLIC "-//W3C//DTD SVG 1.1//EN" "http://www.w3.org/Graphics/SVG/1.1/DTD/svg11.dtd">
<svg width="100%" height="100%" viewBox="0 0 512 512" version="1.1" xmlns="http://www.w3.org/2000/svg" xmlns:xlink="http://www.w3.org/1999/xlink" xml:space="preserve" xmlns:serif="http://www.serif.com/" style="fill-rule:evenodd;clip-rule:evenodd;stroke-linejoin:round;stroke-miterlimit:1.41421;">
    <g transform="matrix(3.10086,0,0,3.10086,-1125.43,-1686.93)">
        <g id="Bee---Lines-Horizontal" serif:id="Bee - Lines Horizontal">
            <g id="Outline">
                <g transform="matrix(-0.977946,0,0,0.977946,1502.76,10.3686)">
                    <circle cx="1025.2" cy="563.858" r="9.828" style="fill:none;stroke:rgb(209,106,68);stroke-width:6.56px;"/>
                </g>
                <g transform="matrix(0.977946,0,0,0.977946,-612.147,10.3686)">
                    <circle cx="1025.2" cy="563.858" r="9.828" style="fill:none;stroke:rgb(209,106,68);stroke-width:6.56px;"/>
                </g>
                <g transform="matrix(1.13447,0,0,1.0324,-1142,78.7152)">
                    <path d="M1399.33,482.321C1444.69,482.321 1462.78,515.252 1462.78,546.648C1462.78,578.043 1434.35,602.73 1399.33,602.73C1364.31,602.73 1335.88,578.043 1335.88,546.648C1335.88,515.252 1353.97,482.321 1399.33,482.321Z" style="fill:none;stroke:rgb(209,106,68);stroke-width:5.91px;"/>
                </g>
            </g>
            <g id="Top" transform="matrix(1,0,0,1,0.994345,-1.13687e-13)">
                <g transform="matrix(0.762103,0,0,0.762103,-281.543,133.79)">
                    <g transform="matrix(0.54306,-0.839694,0.839694,0.54306,21.2792,1083.8)">
                        <path d="M983.449,559.618C983.449,557.149 981.445,555.145 978.977,555.145C978.977,555.145 971.801,551.94 960.258,552.145C947.227,552.377 942.154,555.145 942.154,555.145C939.685,555.145 937.681,557.149 937.681,559.618C937.681,562.086 939.685,564.091 942.154,564.091C942.154,564.091 948.991,560.757 960.477,561.091C971.963,561.424 978.977,564.091 978.977,564.091C981.445,564.091 983.449,562.086 983.449,559.618Z" style="fill:rgb(43,43,43);"/>
                    </g>
                    <g transform="matrix(-1.28322,0,0,1.28322,2339.98,-161.949)">
                        <circle cx="1025.2" cy="563.858" r="9.828" style="fill:url(#_Radial1);"/>
                    </g>
                    <g transform="matrix(0.509338,-0.294066,0.576385,0.864195,891.658,555.183)">
                        <ellipse cx="189.241" cy="62.316" rx="4.256" ry="2.031" style="fill:white;"/>
                    </g>
                </g>
                <g transform="matrix(-0.762103,0,0,0.762103,1170.17,133.79)">
                    <g transform="matrix(0.54306,-0.839694,0.839694,0.54306,21.2792,1083.8)">
                        <path d="M983.449,559.618C983.449,557.149 981.445,555.145 978.977,555.145C978.977,555.145 971.801,551.94 960.258,552.145C947.227,552.377 942.154,555.145 942.154,555.145C939.685,555.145 937.681,557.149 937.681,559.618C937.681,562.086 939.685,564.091 942.154,564.091C942.154,564.091 948.991,560.757 960.477,561.091C971.963,561.424 978.977,564.091 978.977,564.091C981.445,564.091 983.449,562.086 983.449,559.618Z" style="fill:rgb(43,43,43);"/>
                    </g>
                    <g transform="matrix(-1.28322,0,0,1.28322,2339.98,-161.949)">
                        <circle cx="1025.2" cy="563.858" r="9.828" style="fill:url(#_Radial2);"/>
                    </g>
                    <g transform="matrix(-0.509338,-0.294066,-0.576385,0.864195,1159.4,557.945)">
                        <ellipse cx="189.241" cy="62.316" rx="4.256" ry="2.031" style="fill:white;"/>
                    </g>
                </g>
            </g>
            <g transform="matrix(1.13447,0,0,1.0324,-1142,78.7152)">
                <path d="M1399.33,482.321C1444.69,482.321 1462.78,515.252 1462.78,546.648C1462.78,578.043 1434.35,602.73 1399.33,602.73C1364.31,602.73 1335.88,578.043 1335.88,546.648C1335.88,515.252 1353.97,482.321 1399.33,482.321Z" style="fill:url(#_Radial3);"/>
                <clipPath id="_clip4">
                    <path d="M1399.33,482.321C1444.69,482.321 1462.78,515.252 1462.78,546.648C1462.78,578.043 1434.35,602.73 1399.33,602.73C1364.31,602.73 1335.88,578.043 1335.88,546.648C1335.88,515.252 1353.97,482.321 1399.33,482.321Z"/>
                </clipPath>
                <g clip-path="url(#_clip4)">
                    <g id="Horizontal" transform="matrix(0.881466,0,0,0.968615,446.262,-7.37508)">
                        <g transform="matrix(1.95057,0,0,1.32836,-554.241,62.8157)">
                            <path d="M799.155,338.606C799.155,338.606 819.22,338.954 825.453,338.606C831.686,338.258 833.818,338.954 839.573,338.954C845.328,338.954 866.031,338.069 869.22,338.055C872.409,338.041 878.062,337.939 878.062,337.939L879.091,347.885C879.091,347.885 862.986,347.537 856.505,347.537C850.025,347.537 843.661,348.913 835.557,348.913C827.453,348.913 824.7,347.87 816.001,348.218C807.302,348.566 797.444,348.566 797.444,348.566L799.155,338.606Z" style="fill:url(#_Radial5);"/>
                        </g>
                        <g transform="matrix(1.95057,0,0,1.95057,-548.062,-151.837)">
                            <path d="M792.906,357.83C792.906,357.83 808.202,357.698 813.754,357.698C819.306,357.698 829.207,356.64 835.078,356.64C840.949,356.64 856.867,355.756 861.23,355.756C865.594,355.756 876.945,356.105 876.945,356.105L877.293,366.15C877.293,366.15 866.42,364.76 860.767,365.107C855.113,365.455 850.922,365.455 846.428,365.455C841.935,365.455 835.876,364.425 829.308,364.758C822.741,365.092 818.159,364.745 813.23,365.441C808.302,366.136 792.92,366.483 792.92,366.483L792.906,357.83Z" style="fill:url(#_Radial6);"/>
                        </g>
                        <g transform="matrix(2.42241,0,0,2.29659,-943.364,-288.263)">
                            <path d="M801.518,378.444C801.518,378.444 811.275,380.168 816.711,379.487C822.147,378.806 824.277,377.879 830.497,377.879C836.717,377.879 841.501,378.213 848.663,377.879C855.824,377.546 869.726,377.546 869.726,377.546L868.379,383.779C868.379,383.779 848.183,383.547 843.69,383.779C839.196,384.011 834.064,384.127 828.41,384.358C822.756,384.59 802.707,384.59 802.707,384.59L801.518,378.444Z" style="fill:url(#_Radial7);"/>
                        </g>
                        <g transform="matrix(2.3256,0,0,1.81065,-870.175,-98.4719)">
                            <path d="M804.491,392.753C804.491,392.753 818.264,391.709 823.975,391.709C829.686,391.709 832.57,393.319 838.37,392.739C844.169,392.158 861.551,391.81 861.551,391.81L870.945,391.81C873.264,391.81 873.38,396.638 873.38,396.638C873.38,396.638 867.945,398.013 862.044,398.362C856.143,398.711 847.285,399.06 842.357,398.711C837.428,398.362 833.471,398.362 828.397,398.362C823.323,398.362 805.23,398.595 805.23,398.595L804.491,392.753Z" style="fill:url(#_Radial8);"/>
                        </g>
                    </g>
                </g>
            </g>
        </g>
    </g>
    <defs>
        <radialGradient id="_Radial1" cx="0" cy="0" r="1" gradientUnits="userSpaceOnUse" gradientTransform="matrix(8.72787e-16,16.5076,-13.9214,9.87234e-16,1025.49,557.175)"><stop offset="0" style="stop-color:rgb(255,236,153);stop-opacity:1"/><stop offset="0.52" style="stop-color:rgb(255,212,59);stop-opacity:1"/><stop offset="0.92" style="stop-color:rgb(250,176,5);stop-opacity:1"/><stop offset="1" style="stop-color:rgb(252,196,25);stop-opacity:1"/></radialGradient>
        <radialGradient id="_Radial2" cx="0" cy="0" r="1" gradientUnits="userSpaceOnUse" gradientTransform="matrix(8.72787e-16,16.5076,-13.9214,9.87234e-16,1025.49,557.175)"><stop offset="0" style="stop-color:rgb(255,236,153);stop-opacity:1"/><stop offset="0.52" style="stop-color:rgb(255,212,59);stop-opacity:1"/><stop offset="0.92" style="stop-color:rgb(250,176,5);stop-opacity:1"/><stop offset="1" style="stop-color:rgb(252,196,25);stop-opacity:1"/></radialGradient>
        <radialGradient id="_Radial3" cx="0" cy="0" r="1" gradientUnits="userSpaceOnUse" gradientTransform="matrix(5.63475e-15,101.121,-89.8774,6.04752e-15,1401.23,501.585)"><stop offset="0" style="stop-color:rgb(255,236,153);stop-opacity:1"/><stop offset="0.52" style="stop-color:rgb(255,212,59);stop-opacity:1"/><stop offset="0.92" style="stop-color:rgb(250,176,5);stop-opacity:1"/><stop offset="1" style="stop-color:rgb(252,196,25);stop-opacity:1"/></radialGradient>
        <radialGradient id="_Radial5" cx="0" cy="0" r="1" gradientUnits="userSpaceOnUse" gradientTransform="matrix(2.37663e-15,56.9938,-35.7975,3.2187e-15,838.267,368.926)"><stop offset="0" style="stop-color:white;stop-opacity:1"/><stop offset="0.6" style="stop-color:rgb(252,246,224);stop-opacity:1"/><stop offset="0.81" style="stop-color:rgb(244,225,154);stop-opacity:1"/><stop offset="1" style="stop-color:rgb(236,203,83);stop-opacity:1"/></radialGradient>
        <radialGradient id="_Radial6" cx="0" cy="0" r="1" gradientUnits="userSpaceOnUse" gradientTransform="matrix(2.37663e-15,38.8133,-35.7975,2.19197e-15,835.099,361.289)"><stop offset="0" style="stop-color:white;stop-opacity:1"/><stop offset="0.6" style="stop-color:rgb(252,246,224);stop-opacity:1"/><stop offset="0.81" style="stop-color:rgb(244,225,154);stop-opacity:1"/><stop offset="1" style="stop-color:rgb(236,203,83);stop-opacity:1"/></radialGradient>
        <radialGradient id="_Radial7" cx="0" cy="0" r="1" gradientUnits="userSpaceOnUse" gradientTransform="matrix(1.91371e-15,32.9654,-28.8248,1.8617e-15,835.622,366.258)"><stop offset="0" style="stop-color:white;stop-opacity:1"/><stop offset="0.6" style="stop-color:rgb(252,246,224);stop-opacity:1"/><stop offset="0.81" style="stop-color:rgb(244,225,154);stop-opacity:1"/><stop offset="1" style="stop-color:rgb(236,203,83);stop-opacity:1"/></radialGradient>
        <radialGradient id="_Radial8" cx="0" cy="0" r="1" gradientUnits="userSpaceOnUse" gradientTransform="matrix(1.99337e-15,41.8126,-30.0247,2.36135e-15,838.935,359.734)"><stop offset="0" style="stop-color:white;stop-opacity:1"/><stop offset="0.6" style="stop-color:rgb(252,246,224);stop-opacity:1"/><stop offset="0.81" style="stop-color:rgb(244,225,154);stop-opacity:1"/><stop offset="1" style="stop-color:rgb(236,203,83);stop-opacity:1"/></radialGradient>
    </defs>
</svg>
