<?xml version="1.0" encoding="UTF-8" standalone="no"?>
<!DOCTYPE svg PUBLIC "-//W3C//DTD SVG 1.1//EN" "http://www.w3.org/Graphics/SVG/1.1/DTD/svg11.dtd">
<svg width="100%" height="100%" viewBox="0 0 512 512" version="1.1" xmlns="http://www.w3.org/2000/svg" xmlns:xlink="http://www.w3.org/1999/xlink" xml:space="preserve" xmlns:serif="http://www.serif.com/" style="fill-rule:evenodd;clip-rule:evenodd;stroke-linecap:round;stroke-linejoin:round;stroke-miterlimit:1.5;">
    <g transform="matrix(2.90289,0,0,2.90289,-2997.6,-1718.38)">
        <g id="Bunny-White---Lines-Horizontal" serif:id="Bunny White - Lines Horizontal">
            <g id="Outline">
                <g transform="matrix(0.798089,-0.460777,0.532661,0.922596,333.577,-528.11)">
                    <path d="M67.281,1261.17C100.107,1261.17 90.591,1305.8 86.24,1328.78C82.147,1350.39 53.107,1350.27 48.323,1328.78C43.209,1305.8 34.455,1261.17 67.281,1261.17Z" style="fill:none;stroke:rgb(179,146,146);stroke-width:6.88px;"/>
                </g>
                <g transform="matrix(-0.798089,-0.460777,-0.532661,0.922596,1908.06,-528.11)">
                    <path d="M67.281,1261.17C100.107,1261.17 90.591,1305.8 86.24,1328.78C82.147,1350.39 53.107,1350.27 48.323,1328.78C43.209,1305.8 34.455,1261.17 67.281,1261.17Z" style="fill:none;stroke:rgb(179,146,146);stroke-width:6.88px;"/>
                </g>
                <g transform="matrix(1,0,0,1.09044,947.057,-783.829)">
                    <path d="M173.838,1308.09C226.834,1308.09 250.904,1339.06 247.095,1370.51C243.552,1399.76 214.269,1414.74 173.838,1414.74C133.406,1414.74 104.673,1399.7 100.58,1370.51C95.948,1337.47 120.841,1308.09 173.838,1308.09Z" style="fill:none;stroke:rgb(179,146,146);stroke-width:6.55px;"/>
                </g>
            </g>
            <g transform="matrix(1,0,0,1,945.25,-658.758)">
                <path d="M191.726,1302.45C201.176,1279.06 215.902,1250.82 237.334,1263.19C257.386,1274.77 244.071,1299.25 229.401,1318.54C244.57,1331.57 251.011,1350.4 248.902,1369.38C245.359,1401.28 216.076,1417.62 175.644,1417.62C135.212,1417.62 106.48,1401.21 102.387,1369.38C99.833,1349.52 106.255,1330.87 121.42,1318.13C106.876,1298.9 93.888,1274.69 113.799,1263.19C135.221,1250.83 149.943,1279.04 159.393,1302.42C164.475,1301.7 169.894,1301.33 175.644,1301.33C181.336,1301.33 186.694,1301.72 191.726,1302.45Z" style="fill:url(#_Radial1);"/>
                <clipPath id="_clip2">
                    <path d="M191.726,1302.45C201.176,1279.06 215.902,1250.82 237.334,1263.19C257.386,1274.77 244.071,1299.25 229.401,1318.54C244.57,1331.57 251.011,1350.4 248.902,1369.38C245.359,1401.28 216.076,1417.62 175.644,1417.62C135.212,1417.62 106.48,1401.21 102.387,1369.38C99.833,1349.52 106.255,1330.87 121.42,1318.13C106.876,1298.9 93.888,1274.69 113.799,1263.19C135.221,1250.83 149.943,1279.04 159.393,1302.42C164.475,1301.7 169.894,1301.33 175.644,1301.33C181.336,1301.33 186.694,1301.72 191.726,1302.45Z"/>
                </clipPath>
                <g clip-path="url(#_clip2)">
                    <g id="Horizontal" transform="matrix(1.0682,0,0,1.0682,-979.001,732.466)">
                        <g transform="matrix(1.95057,0,0,1.32836,-554.241,62.8157)">
                            <path d="M799.155,338.606C799.155,338.606 819.22,338.954 825.453,338.606C831.686,338.258 833.818,338.954 839.573,338.954C845.328,338.954 866.031,338.069 869.22,338.055C872.409,338.041 878.062,337.939 878.062,337.939L879.091,347.885C879.091,347.885 862.986,347.537 856.505,347.537C850.025,347.537 843.661,348.913 835.557,348.913C827.453,348.913 824.7,347.87 816.001,348.218C807.302,348.566 797.444,348.566 797.444,348.566L799.155,338.606Z" style="fill:url(#_Radial3);"/>
                        </g>
                        <g transform="matrix(1.95057,0,0,1.95057,-548.062,-151.837)">
                            <path d="M792.906,357.83C792.906,357.83 808.202,357.698 813.754,357.698C819.306,357.698 829.207,356.64 835.078,356.64C840.949,356.64 856.867,355.756 861.23,355.756C865.594,355.756 876.945,356.105 876.945,356.105L877.293,366.15C877.293,366.15 866.42,364.76 860.767,365.107C855.113,365.455 850.922,365.455 846.428,365.455C841.935,365.455 835.876,364.425 829.308,364.758C822.741,365.092 818.159,364.745 813.23,365.441C808.302,366.136 792.92,366.483 792.92,366.483L792.906,357.83Z" style="fill:url(#_Radial4);"/>
                        </g>
                        <g transform="matrix(2.42241,0,0,2.29659,-943.364,-288.263)">
                            <path d="M801.518,378.444C801.518,378.444 811.275,380.168 816.711,379.487C822.147,378.806 824.277,377.879 830.497,377.879C836.717,377.879 841.501,378.213 848.663,377.879C855.824,377.546 869.726,377.546 869.726,377.546L868.379,383.779C868.379,383.779 848.183,383.547 843.69,383.779C839.196,384.011 834.064,384.127 828.41,384.358C822.756,384.59 802.707,384.59 802.707,384.59L801.518,378.444Z" style="fill:url(#_Radial5);"/>
                        </g>
                        <g transform="matrix(2.3256,0,0,1.81065,-870.175,-98.4719)">
                            <path d="M804.491,392.753C804.491,392.753 818.264,391.709 823.975,391.709C829.686,391.709 832.57,393.319 838.37,392.739C844.169,392.158 861.551,391.81 861.551,391.81L870.945,391.81C873.264,391.81 873.38,396.638 873.38,396.638C873.38,396.638 867.945,398.013 862.044,398.362C856.143,398.711 847.285,399.06 842.357,398.711C837.428,398.362 833.471,398.362 828.397,398.362C823.323,398.362 805.23,398.595 805.23,398.595L804.491,392.753Z" style="fill:url(#_Radial6);"/>
                        </g>
                    </g>
                </g>
            </g>
        </g>
    </g>
    <defs>
        <radialGradient id="_Radial1" cx="0" cy="0" r="1" gradientUnits="userSpaceOnUse" gradientTransform="matrix(6.38026e-15,104.198,-81.6145,4.99744e-15,177.021,1313.42)"><stop offset="0" style="stop-color:white;stop-opacity:1"/><stop offset="0.53" style="stop-color:rgb(253,246,247);stop-opacity:1"/><stop offset="0.73" style="stop-color:rgb(248,229,230);stop-opacity:1"/><stop offset="0.93" style="stop-color:rgb(244,212,213);stop-opacity:1"/><stop offset="1" style="stop-color:rgb(255,230,230);stop-opacity:1"/></radialGradient>
        <radialGradient id="_Radial3" cx="0" cy="0" r="1" gradientUnits="userSpaceOnUse" gradientTransform="matrix(2.83069e-15,67.8826,-35.0608,3.15246e-15,838.267,369.347)"><stop offset="0" style="stop-color:rgb(255,190,205);stop-opacity:1"/><stop offset="0.6" style="stop-color:rgb(255,177,195);stop-opacity:1"/><stop offset="0.81" style="stop-color:rgb(255,147,172);stop-opacity:1"/><stop offset="1" style="stop-color:rgb(255,117,149);stop-opacity:1"/></radialGradient>
        <radialGradient id="_Radial4" cx="0" cy="0" r="1" gradientUnits="userSpaceOnUse" gradientTransform="matrix(2.83069e-15,46.2287,-35.0608,2.14685e-15,835.099,361.575)"><stop offset="0" style="stop-color:rgb(255,190,205);stop-opacity:1"/><stop offset="0.6" style="stop-color:rgb(255,177,195);stop-opacity:1"/><stop offset="0.81" style="stop-color:rgb(255,147,172);stop-opacity:1"/><stop offset="1" style="stop-color:rgb(255,117,149);stop-opacity:1"/></radialGradient>
        <radialGradient id="_Radial5" cx="0" cy="0" r="1" gradientUnits="userSpaceOnUse" gradientTransform="matrix(2.27932e-15,39.2635,-28.2316,1.82339e-15,835.622,366.501)"><stop offset="0" style="stop-color:rgb(255,190,205);stop-opacity:1"/><stop offset="0.6" style="stop-color:rgb(255,177,195);stop-opacity:1"/><stop offset="0.81" style="stop-color:rgb(255,147,172);stop-opacity:1"/><stop offset="1" style="stop-color:rgb(255,117,149);stop-opacity:1"/></radialGradient>
        <radialGradient id="_Radial6" cx="0" cy="0" r="1" gradientUnits="userSpaceOnUse" gradientTransform="matrix(2.37421e-15,49.801,-29.4067,2.31275e-15,838.935,360.043)"><stop offset="0" style="stop-color:rgb(255,190,205);stop-opacity:1"/><stop offset="0.6" style="stop-color:rgb(255,177,195);stop-opacity:1"/><stop offset="0.81" style="stop-color:rgb(255,147,172);stop-opacity:1"/><stop offset="1" style="stop-color:rgb(255,117,149);stop-opacity:1"/></radialGradient>
    </defs>
</svg>
