<?xml version="1.0" encoding="UTF-8" standalone="no"?>
<!DOCTYPE svg PUBLIC "-//W3C//DTD SVG 1.1//EN" "http://www.w3.org/Graphics/SVG/1.1/DTD/svg11.dtd">
<svg width="100%" height="100%" viewBox="0 0 512 512" version="1.1" xmlns="http://www.w3.org/2000/svg" xmlns:xlink="http://www.w3.org/1999/xlink" xml:space="preserve" xmlns:serif="http://www.serif.com/" style="fill-rule:evenodd;clip-rule:evenodd;stroke-linejoin:round;stroke-miterlimit:1.41421;">
    <g transform="matrix(3.82993,0,0,3.82993,-910.771,-1083.32)">
        <g id="Cat-Purple---Lines-Vertical" serif:id="Cat Purple - Lines Vertical">
            <g id="Outline" transform="matrix(1,0,0,1,-2.55795e-13,-0.0978535)">
                <g transform="matrix(0.926314,0,0,1.01229,-196.485,-54.8357)">
                    <path d="M531.814,363.146C531.814,363.146 498.672,337.796 484.758,348.061C470.843,358.327 480.5,396.206 480.5,396.206C480.5,396.206 521.502,382.892 531.814,363.146Z" style="fill:none;stroke:rgb(148,84,164);stroke-width:5.35px;"/>
                </g>
                <g transform="matrix(-0.926314,0,0,1.01229,805.776,-54.8357)">
                    <path d="M531.857,362.07C531.857,362.07 498.672,337.796 484.758,348.061C470.843,358.327 480.5,396.206 480.5,396.206C480.5,396.206 521.545,381.816 531.857,362.07Z" style="fill:none;stroke:rgb(148,84,164);stroke-width:5.35px;"/>
                </g>
                <g transform="matrix(0.822674,0,0,0.870945,-1873.33,41.2168)">
                    <path d="M2647.43,304.497C2686.97,304.497 2719.07,333.465 2719.07,364.59C2719.07,395.714 2686.97,417.285 2647.43,417.285C2607.89,417.285 2575.79,395.714 2575.79,364.59C2575.79,333.465 2607.89,304.497 2647.43,304.497Z" style="fill:none;stroke:rgb(148,84,164);stroke-width:6.13px;stroke-linecap:round;stroke-miterlimit:1.5;"/>
                </g>
            </g>
            <g transform="matrix(0.757948,0,0,0.757948,-1707.26,-54.2781)">
                <path d="M2672.36,477.731C2684.63,469.229 2710.45,453.763 2723.14,463.997C2737.85,475.86 2731,515.337 2728.89,525.758C2731.02,531.905 2732.17,538.315 2732.17,544.806C2732.17,580.571 2697.33,605.358 2654.41,605.358C2611.49,605.358 2576.65,580.571 2576.65,544.806C2576.65,538.315 2577.8,531.905 2579.94,525.758C2577.82,515.337 2570.97,475.86 2585.68,463.997C2597.96,454.1 2622.47,468.986 2635.16,478.033C2641.32,476.553 2647.77,475.755 2654.41,475.755C2660.59,475.755 2666.6,476.444 2672.36,477.731Z" style="fill:url(#_Radial1);"/>
                <clipPath id="_clip2">
                    <path d="M2672.36,477.731C2684.63,469.229 2710.45,453.763 2723.14,463.997C2737.85,475.86 2731,515.337 2728.89,525.758C2731.02,531.905 2732.17,538.315 2732.17,544.806C2732.17,580.571 2697.33,605.358 2654.41,605.358C2611.49,605.358 2576.65,580.571 2576.65,544.806C2576.65,538.315 2577.8,531.905 2579.94,525.758C2577.82,515.337 2570.97,475.86 2585.68,463.997C2597.96,454.1 2622.47,468.986 2635.16,478.033C2641.32,476.553 2647.77,475.755 2654.41,475.755C2660.59,475.755 2666.6,476.444 2672.36,477.731Z"/>
                </clipPath>
                <g clip-path="url(#_clip2)">
                    <g id="Vertical" transform="matrix(1.0682,0,0,1.0682,1529.06,-73.4484)">
                        <g transform="matrix(5.52551e-16,1.95057,-1.37784,3.90309e-16,1576.85,-1067.38)">
                            <path d="M799.155,338.606C799.155,338.606 819.22,338.954 825.453,338.606C831.686,338.258 833.818,338.954 839.573,338.954C845.328,338.954 866.031,338.069 869.22,338.055C872.409,338.041 878.062,337.939 878.062,337.939L879.091,347.885C879.091,347.885 862.986,347.537 856.505,347.537C850.025,347.537 843.661,348.913 835.557,348.913C827.453,348.913 824.7,347.87 816.001,348.218C807.302,348.566 797.444,348.566 797.444,348.566L799.155,338.606Z" style="fill:url(#_Radial3);"/>
                        </g>
                        <g transform="matrix(5.52551e-16,1.95057,-2.02322,5.73133e-16,1799.49,-1061.2)">
                            <path d="M792.906,357.83C792.906,357.83 808.202,357.698 813.754,357.698C819.306,357.698 829.207,356.64 835.078,356.64C840.949,356.64 856.867,355.756 861.23,355.756C865.594,355.756 876.945,356.105 876.945,356.105L877.293,366.15C877.293,366.15 866.42,364.76 860.767,365.107C855.113,365.455 850.922,365.455 846.428,365.455C841.935,365.455 835.876,364.425 829.308,364.758C822.741,365.092 818.159,364.745 813.23,365.441C808.302,366.136 792.92,366.483 792.92,366.483L792.906,357.83Z" style="fill:url(#_Radial4);"/>
                        </g>
                        <g transform="matrix(6.86213e-16,2.42241,-2.38214,6.74805e-16,1941,-1456.5)">
                            <path d="M801.518,378.444C801.518,378.444 811.275,380.168 816.711,379.487C822.147,378.806 824.277,377.879 830.497,377.879C836.717,377.879 841.501,378.213 848.663,377.879C855.824,377.546 869.726,377.546 869.726,377.546L868.379,383.779C868.379,383.779 848.183,383.547 843.69,383.779C839.196,384.011 834.064,384.127 828.41,384.358C822.756,384.59 802.707,384.59 802.707,384.59L801.518,378.444Z" style="fill:url(#_Radial5);"/>
                        </g>
                        <g transform="matrix(6.5879e-16,2.3256,-1.8781,5.32022e-16,1744.14,-1383.31)">
                            <path d="M804.491,392.753C804.491,392.753 818.264,391.709 823.975,391.709C829.686,391.709 832.57,393.319 838.37,392.739C844.169,392.158 861.551,391.81 861.551,391.81L870.945,391.81C873.264,391.81 873.38,396.638 873.38,396.638C873.38,396.638 867.945,398.013 862.044,398.362C856.143,398.711 847.285,399.06 842.357,398.711C837.428,398.362 833.471,398.362 828.397,398.362C823.323,398.362 805.23,398.595 805.23,398.595L804.491,392.753Z" style="fill:url(#_Radial6);"/>
                        </g>
                    </g>
                </g>
            </g>
        </g>
    </g>
    <defs>
        <radialGradient id="_Radial1" cx="0" cy="0" r="1" gradientUnits="userSpaceOnUse" gradientTransform="matrix(1.99237e-06,110.532,-103.572,2.31905e-06,2654.41,494.826)"><stop offset="0" style="stop-color:rgb(229,153,247);stop-opacity:1"/><stop offset="0.44" style="stop-color:rgb(211,109,236);stop-opacity:1"/><stop offset="0.84" style="stop-color:rgb(204,93,232);stop-opacity:1"/><stop offset="0.91" style="stop-color:rgb(210,104,236);stop-opacity:1"/><stop offset="1" style="stop-color:rgb(229,153,247);stop-opacity:1"/></radialGradient>
        <radialGradient id="_Radial3" cx="0" cy="0" r="1" gradientUnits="userSpaceOnUse" gradientTransform="matrix(38.8133,1.22007e-14,-7.94865e-15,50.6776,838.267,380.096)"><stop offset="0" style="stop-color:white;stop-opacity:1"/><stop offset="0.6" style="stop-color:rgb(250,238,253);stop-opacity:1"/><stop offset="0.81" style="stop-color:rgb(240,199,250);stop-opacity:1"/><stop offset="1" style="stop-color:rgb(229,160,246);stop-opacity:1"/></radialGradient>
        <radialGradient id="_Radial4" cx="0" cy="0" r="1" gradientUnits="userSpaceOnUse" gradientTransform="matrix(38.8133,8.30879e-15,-7.94865e-15,34.512,835.099,368.895)"><stop offset="0" style="stop-color:white;stop-opacity:1"/><stop offset="0.6" style="stop-color:rgb(250,238,253);stop-opacity:1"/><stop offset="0.81" style="stop-color:rgb(240,199,250);stop-opacity:1"/><stop offset="1" style="stop-color:rgb(229,160,246);stop-opacity:1"/></radialGradient>
        <radialGradient id="_Radial5" cx="0" cy="0" r="1" gradientUnits="userSpaceOnUse" gradientTransform="matrix(31.2532,7.05691e-15,-6.40039e-15,29.3121,835.622,372.718)"><stop offset="0" style="stop-color:white;stop-opacity:1"/><stop offset="0.6" style="stop-color:rgb(250,238,253);stop-opacity:1"/><stop offset="0.81" style="stop-color:rgb(240,199,250);stop-opacity:1"/><stop offset="1" style="stop-color:rgb(229,160,246);stop-opacity:1"/></radialGradient>
        <radialGradient id="_Radial6" cx="0" cy="0" r="1" gradientUnits="userSpaceOnUse" gradientTransform="matrix(32.5542,8.95085e-15,-6.66682e-15,37.1788,838.935,367.928)"><stop offset="0" style="stop-color:white;stop-opacity:1"/><stop offset="0.6" style="stop-color:rgb(250,238,253);stop-opacity:1"/><stop offset="0.81" style="stop-color:rgb(240,199,250);stop-opacity:1"/><stop offset="1" style="stop-color:rgb(229,160,246);stop-opacity:1"/></radialGradient>
    </defs>
</svg>
