<?xml version="1.0" encoding="UTF-8" standalone="no"?>
<!DOCTYPE svg PUBLIC "-//W3C//DTD SVG 1.1//EN" "http://www.w3.org/Graphics/SVG/1.1/DTD/svg11.dtd">
<svg width="100%" height="100%" viewBox="0 0 512 512" version="1.1" xmlns="http://www.w3.org/2000/svg" xmlns:xlink="http://www.w3.org/1999/xlink" xml:space="preserve" xmlns:serif="http://www.serif.com/" style="fill-rule:evenodd;clip-rule:evenodd;stroke-linejoin:round;stroke-miterlimit:1.41421;">
    <g transform="matrix(3.82993,0,0,3.82993,-910.771,-1083.69)">
        <g id="Cat-Orange---Lines-Horizontal" serif:id="Cat Orange - Lines Horizontal">
            <g id="Outline">
                <g transform="matrix(0.926314,0,0,1.01229,-196.485,-54.8357)">
                    <path d="M531.814,363.146C531.814,363.146 498.672,337.796 484.758,348.061C470.843,358.327 480.5,396.206 480.5,396.206C480.5,396.206 521.502,382.892 531.814,363.146Z" style="fill:none;stroke:rgb(184,98,37);stroke-width:5.35px;"/>
                </g>
                <g transform="matrix(-0.926314,0,0,1.01229,805.776,-54.8357)">
                    <path d="M531.857,362.07C531.857,362.07 498.672,337.796 484.758,348.061C470.843,358.327 480.5,396.206 480.5,396.206C480.5,396.206 521.545,381.816 531.857,362.07Z" style="fill:none;stroke:rgb(184,98,37);stroke-width:5.35px;"/>
                </g>
                <g transform="matrix(0.822674,0,0,0.870945,-1873.33,41.2168)">
                    <path d="M2647.43,304.497C2686.97,304.497 2719.07,333.465 2719.07,364.59C2719.07,395.714 2686.97,417.285 2647.43,417.285C2607.89,417.285 2575.79,395.714 2575.79,364.59C2575.79,333.465 2607.89,304.497 2647.43,304.497Z" style="fill:none;stroke:rgb(184,98,37);stroke-width:6.13px;stroke-linecap:round;stroke-miterlimit:1.5;"/>
                </g>
            </g>
            <g transform="matrix(0.757948,0,0,0.757948,-1707.26,87.9236)">
                <path d="M2672.36,290.246C2684.63,281.744 2710.45,266.278 2723.14,276.512C2737.85,288.375 2731,327.852 2728.89,338.273C2731.02,344.42 2732.17,350.83 2732.17,357.321C2732.17,393.086 2697.33,417.873 2654.41,417.873C2611.49,417.873 2576.65,393.086 2576.65,357.321C2576.65,350.83 2577.8,344.42 2579.94,338.273C2577.82,327.852 2570.97,288.375 2585.68,276.512C2597.96,266.615 2622.47,281.501 2635.16,290.548C2641.32,289.068 2647.77,288.27 2654.41,288.27C2660.59,288.27 2666.6,288.959 2672.36,290.246Z" style="fill:url(#_Radial1);"/>
                <clipPath id="_clip2">
                    <path d="M2672.36,290.246C2684.63,281.744 2710.45,266.278 2723.14,276.512C2737.85,288.375 2731,327.852 2728.89,338.273C2731.02,344.42 2732.17,350.83 2732.17,357.321C2732.17,393.086 2697.33,417.873 2654.41,417.873C2611.49,417.873 2576.65,393.086 2576.65,357.321C2576.65,350.83 2577.8,344.42 2579.94,338.273C2577.82,327.852 2570.97,288.375 2585.68,276.512C2597.96,266.615 2622.47,281.501 2635.16,290.548C2641.32,289.068 2647.77,288.27 2654.41,288.27C2660.59,288.27 2666.6,288.959 2672.36,290.246Z"/>
                </clipPath>
                <g clip-path="url(#_clip2)">
                    <g id="Horizontal" transform="matrix(1.0682,0,0,1.0682,1499.45,-260.933)">
                        <g transform="matrix(1.95057,0,0,1.32836,-554.241,62.8157)">
                            <path d="M799.155,338.606C799.155,338.606 819.22,338.954 825.453,338.606C831.686,338.258 833.818,338.954 839.573,338.954C845.328,338.954 866.031,338.069 869.22,338.055C872.409,338.041 878.062,337.939 878.062,337.939L879.091,347.885C879.091,347.885 862.986,347.537 856.505,347.537C850.025,347.537 843.661,348.913 835.557,348.913C827.453,348.913 824.7,347.87 816.001,348.218C807.302,348.566 797.444,348.566 797.444,348.566L799.155,338.606Z" style="fill:url(#_Radial3);"/>
                        </g>
                        <g transform="matrix(1.95057,0,0,1.95057,-548.062,-151.837)">
                            <path d="M792.906,357.83C792.906,357.83 808.202,357.698 813.754,357.698C819.306,357.698 829.207,356.64 835.078,356.64C840.949,356.64 856.867,355.756 861.23,355.756C865.594,355.756 876.945,356.105 876.945,356.105L877.293,366.15C877.293,366.15 866.42,364.76 860.767,365.107C855.113,365.455 850.922,365.455 846.428,365.455C841.935,365.455 835.876,364.425 829.308,364.758C822.741,365.092 818.159,364.745 813.23,365.441C808.302,366.136 792.92,366.483 792.92,366.483L792.906,357.83Z" style="fill:url(#_Radial4);"/>
                        </g>
                        <g transform="matrix(2.42241,0,0,2.29659,-943.364,-288.263)">
                            <path d="M801.518,378.444C801.518,378.444 811.275,380.168 816.711,379.487C822.147,378.806 824.277,377.879 830.497,377.879C836.717,377.879 841.501,378.213 848.663,377.879C855.824,377.546 869.726,377.546 869.726,377.546L868.379,383.779C868.379,383.779 848.183,383.547 843.69,383.779C839.196,384.011 834.064,384.127 828.41,384.358C822.756,384.59 802.707,384.59 802.707,384.59L801.518,378.444Z" style="fill:url(#_Radial5);"/>
                        </g>
                        <g transform="matrix(2.3256,0,0,1.81065,-870.175,-98.4719)">
                            <path d="M804.491,392.753C804.491,392.753 818.264,391.709 823.975,391.709C829.686,391.709 832.57,393.319 838.37,392.739C844.169,392.158 861.551,391.81 861.551,391.81L870.945,391.81C873.264,391.81 873.38,396.638 873.38,396.638C873.38,396.638 867.945,398.013 862.044,398.362C856.143,398.711 847.285,399.06 842.357,398.711C837.428,398.362 833.471,398.362 828.397,398.362C823.323,398.362 805.23,398.595 805.23,398.595L804.491,392.753Z" style="fill:url(#_Radial6);"/>
                        </g>
                    </g>
                </g>
            </g>
        </g>
    </g>
    <defs>
        <radialGradient id="_Radial1" cx="0" cy="0" r="1" gradientUnits="userSpaceOnUse" gradientTransform="matrix(1.99237e-06,110.532,-103.572,2.31905e-06,2654.41,307.341)"><stop offset="0" style="stop-color:rgb(255,197,134);stop-opacity:1"/><stop offset="0.44" style="stop-color:rgb(255,155,81);stop-opacity:1"/><stop offset="0.84" style="stop-color:rgb(255,139,61);stop-opacity:1"/><stop offset="1" style="stop-color:rgb(255,173,102);stop-opacity:1"/></radialGradient>
        <radialGradient id="_Radial3" cx="0" cy="0" r="1" gradientUnits="userSpaceOnUse" gradientTransform="matrix(2.37663e-15,56.9938,-35.7975,3.2187e-15,838.267,380.096)"><stop offset="0" style="stop-color:white;stop-opacity:1"/><stop offset="0.6" style="stop-color:rgb(253,240,229);stop-opacity:1"/><stop offset="0.81" style="stop-color:rgb(249,206,169);stop-opacity:1"/><stop offset="1" style="stop-color:rgb(245,172,108);stop-opacity:1"/></radialGradient>
        <radialGradient id="_Radial4" cx="0" cy="0" r="1" gradientUnits="userSpaceOnUse" gradientTransform="matrix(2.37663e-15,38.8133,-35.7975,2.19197e-15,835.099,368.895)"><stop offset="0" style="stop-color:white;stop-opacity:1"/><stop offset="0.6" style="stop-color:rgb(253,240,229);stop-opacity:1"/><stop offset="0.81" style="stop-color:rgb(249,206,169);stop-opacity:1"/><stop offset="1" style="stop-color:rgb(245,172,108);stop-opacity:1"/></radialGradient>
        <radialGradient id="_Radial5" cx="0" cy="0" r="1" gradientUnits="userSpaceOnUse" gradientTransform="matrix(1.91371e-15,32.9654,-28.8248,1.8617e-15,835.622,372.718)"><stop offset="0" style="stop-color:white;stop-opacity:1"/><stop offset="0.6" style="stop-color:rgb(253,240,229);stop-opacity:1"/><stop offset="0.81" style="stop-color:rgb(249,206,169);stop-opacity:1"/><stop offset="1" style="stop-color:rgb(245,172,108);stop-opacity:1"/></radialGradient>
        <radialGradient id="_Radial6" cx="0" cy="0" r="1" gradientUnits="userSpaceOnUse" gradientTransform="matrix(1.99337e-15,41.8126,-30.0247,2.36135e-15,838.935,367.928)"><stop offset="0" style="stop-color:white;stop-opacity:1"/><stop offset="0.6" style="stop-color:rgb(253,240,229);stop-opacity:1"/><stop offset="0.81" style="stop-color:rgb(249,206,169);stop-opacity:1"/><stop offset="1" style="stop-color:rgb(245,172,108);stop-opacity:1"/></radialGradient>
    </defs>
</svg>
