<?xml version="1.0" encoding="UTF-8" standalone="no"?>
<!DOCTYPE svg PUBLIC "-//W3C//DTD SVG 1.1//EN" "http://www.w3.org/Graphics/SVG/1.1/DTD/svg11.dtd">
<svg width="100%" height="100%" viewBox="0 0 512 512" version="1.1" xmlns="http://www.w3.org/2000/svg" xmlns:xlink="http://www.w3.org/1999/xlink" xml:space="preserve" xmlns:serif="http://www.serif.com/" style="fill-rule:evenodd;clip-rule:evenodd;stroke-linejoin:round;stroke-miterlimit:1.41421;">
    <g transform="matrix(3.10086,0,0,3.10086,-868.48,-174.524)">
        <g id="Cow---Lines-Horizontal" serif:id="Cow - Lines Horizontal">
            <g id="Outline">
                <g transform="matrix(1.23512,0,0,1.23512,-2.7768,-6.80774)">
                    <path d="M281.42,72.4C281.42,72.4 236.855,74.823 235.484,85.964C234.529,93.72 248.723,99.509 248.723,99.509C248.723,99.509 261.779,81.17 281.42,72.4Z" style="fill:none;stroke:rgb(100,109,119);stroke-width:5.19px;"/>
                </g>
                <g transform="matrix(-1.23512,0,0,1.23512,728.047,-6.80774)">
                    <path d="M281.42,72.4C281.42,72.4 236.855,74.823 235.484,85.964C234.529,93.72 248.723,99.509 248.723,99.509C248.723,99.509 261.779,81.17 281.42,72.4Z" style="fill:none;stroke:rgb(100,109,119);stroke-width:5.19px;"/>
                </g>
                <g transform="matrix(1.14698,0,0,1.12626,-1242.36,-462.323)">
                    <path d="M1399.33,482.321C1444.69,482.321 1462.78,517.793 1462.78,549.189C1462.78,580.584 1434.35,596.091 1399.33,596.091C1364.31,596.091 1335.88,580.584 1335.88,549.189C1335.88,517.793 1353.97,482.321 1399.33,482.321Z" style="fill:none;stroke:rgb(100,109,119);stroke-width:5.64px;stroke-linecap:round;stroke-miterlimit:1.5;"/>
                </g>
                <g transform="matrix(1.06128,0,0,0.810974,-1124.6,-621.767)">
                    <ellipse cx="1401.36" cy="996.422" rx="55.238" ry="33.658" style="fill:none;stroke:rgb(100,109,119);stroke-width:6.79px;stroke-linecap:round;stroke-miterlimit:1.5;"/>
                </g>
                <g transform="matrix(0.912908,0,0,1.13335,-323.086,-88.5522)">
                    <path d="M709.007,164.34C701.855,164.099 704.96,136.717 715.572,134.862C726.184,133.008 741.364,145.321 742.03,150.772C742.697,156.222 720.14,164.715 709.007,164.34Z" style="fill:none;stroke:rgb(100,109,119);stroke-width:6.23px;"/>
                </g>
                <g transform="matrix(-0.912908,0,0,1.13335,1048.36,-88.5522)">
                    <path d="M709.007,164.34C701.855,164.099 704.96,136.717 715.572,134.862C726.184,133.008 741.364,145.321 742.03,150.772C742.697,156.222 720.14,164.715 709.007,164.34Z" style="fill:none;stroke:rgb(100,109,119);stroke-width:6.23px;"/>
                </g>
            </g>
            <g transform="matrix(0.936156,0,0,0.936156,-952.466,-743.629)">
                <path d="M1413.89,881.158C1415.89,874.14 1429.68,860.897 1439.47,863.022C1445.41,864.31 1448.94,875.781 1449.55,885.378C1465.62,887.905 1483.45,892.496 1484.43,900.488C1485.31,907.613 1476.5,913.48 1471.06,916.387C1478.95,930.06 1482.53,946.028 1482.53,961.205C1482.53,976.854 1476.55,989.221 1466.5,998.339C1461.41,1012.06 1435.7,1022.51 1404.79,1022.51C1373.88,1022.51 1348.17,1012.06 1343.08,998.339C1333.03,989.221 1327.05,976.854 1327.05,961.205C1327.05,946.028 1330.63,930.06 1338.51,916.387C1333.08,913.48 1324.27,907.613 1325.14,900.488C1326.13,892.496 1343.96,887.905 1360.03,885.378C1360.63,875.781 1364.16,864.31 1370.1,863.022C1379.9,860.897 1393.69,874.14 1395.68,881.158C1398.62,880.894 1401.65,880.758 1404.79,880.758C1407.93,880.758 1410.96,880.894 1413.89,881.158Z" style="fill:url(#_Radial1);"/>
                <clipPath id="_clip2">
                    <path d="M1413.89,881.158C1415.89,874.14 1429.68,860.897 1439.47,863.022C1445.41,864.31 1448.94,875.781 1449.55,885.378C1465.62,887.905 1483.45,892.496 1484.43,900.488C1485.31,907.613 1476.5,913.48 1471.06,916.387C1478.95,930.06 1482.53,946.028 1482.53,961.205C1482.53,976.854 1476.55,989.221 1466.5,998.339C1461.41,1012.06 1435.7,1022.51 1404.79,1022.51C1373.88,1022.51 1348.17,1012.06 1343.08,998.339C1333.03,989.221 1327.05,976.854 1327.05,961.205C1327.05,946.028 1330.63,930.06 1338.51,916.387C1333.08,913.48 1324.27,907.613 1325.14,900.488C1326.13,892.496 1343.96,887.905 1360.03,885.378C1360.63,875.781 1364.16,864.31 1370.1,863.022C1379.9,860.897 1393.69,874.14 1395.68,881.158C1398.62,880.894 1401.65,880.758 1404.79,880.758C1407.93,880.758 1410.96,880.894 1413.89,881.158Z"/>
                </clipPath>
                <g clip-path="url(#_clip2)">
                    <g id="Horizontal" transform="matrix(1.0682,0,0,1.0682,250.22,332.355)">
                        <g transform="matrix(1.95057,0,0,1.32836,-554.241,58.5777)">
                            <path d="M799.155,338.606C799.155,338.606 819.22,338.954 825.453,338.606C831.686,338.258 833.818,338.954 839.573,338.954C845.328,338.954 866.031,338.069 869.22,338.055C872.409,338.041 878.062,337.939 878.062,337.939L879.091,347.885C879.091,347.885 862.986,347.537 856.505,347.537C850.025,347.537 843.661,348.913 835.557,348.913C827.453,348.913 824.7,347.87 816.001,348.218C807.302,348.566 797.444,348.566 797.444,348.566L799.155,338.606Z" style="fill:url(#_Radial3);"/>
                        </g>
                        <g transform="matrix(1.95057,0,0,1.95057,-548.062,-156.075)">
                            <path d="M792.906,357.83C792.906,357.83 808.202,357.698 813.754,357.698C819.306,357.698 829.207,356.64 835.078,356.64C840.949,356.64 856.867,355.756 861.23,355.756C865.594,355.756 876.945,356.105 876.945,356.105L877.293,366.15C877.293,366.15 866.42,364.76 860.767,365.107C855.113,365.455 850.922,365.455 846.428,365.455C841.935,365.455 835.876,364.425 829.308,364.758C822.741,365.092 818.159,364.745 813.23,365.441C808.302,366.136 792.92,366.483 792.92,366.483L792.906,357.83Z" style="fill:url(#_Radial4);"/>
                        </g>
                        <g transform="matrix(2.42241,0,0,2.29659,-943.364,-292.501)">
                            <path d="M801.518,378.444C801.518,378.444 811.275,380.168 816.711,379.487C822.147,378.806 824.277,377.879 830.497,377.879C836.717,377.879 841.501,378.213 848.663,377.879C855.824,377.546 869.726,377.546 869.726,377.546L868.379,383.779C868.379,383.779 848.183,383.547 843.69,383.779C839.196,384.011 834.064,384.127 828.41,384.358C822.756,384.59 802.707,384.59 802.707,384.59L801.518,378.444Z" style="fill:url(#_Radial5);"/>
                        </g>
                        <g transform="matrix(2.3256,0,0,1.81065,-870.175,-102.71)">
                            <path d="M804.491,392.753C804.491,392.753 818.264,391.709 823.975,391.709C829.686,391.709 832.57,393.319 838.37,392.739C844.169,392.158 861.551,391.81 861.551,391.81L870.945,391.81C873.264,391.81 873.38,396.638 873.38,396.638C873.38,396.638 867.945,398.013 862.044,398.362C856.143,398.711 847.285,399.06 842.357,398.711C837.428,398.362 833.471,398.362 828.397,398.362C823.323,398.362 805.23,398.595 805.23,398.595L804.491,392.753Z" style="fill:url(#_Radial6);"/>
                        </g>
                    </g>
                </g>
            </g>
        </g>
    </g>
    <defs>
        <radialGradient id="_Radial1" cx="0" cy="0" r="1" gradientUnits="userSpaceOnUse" gradientTransform="matrix(5.90478e-15,123.521,-119.736,9.39128e-15,1404.86,898.99)"><stop offset="0" style="stop-color:white;stop-opacity:1"/><stop offset="0.47" style="stop-color:rgb(249,252,255);stop-opacity:1"/><stop offset="0.66" style="stop-color:rgb(238,246,255);stop-opacity:1"/><stop offset="0.83" style="stop-color:rgb(227,241,255);stop-opacity:1"/><stop offset="1" style="stop-color:rgb(239,247,255);stop-opacity:1"/></radialGradient>
        <radialGradient id="_Radial3" cx="0" cy="0" r="1" gradientUnits="userSpaceOnUse" gradientTransform="matrix(2.37663e-15,56.9938,-35.7975,3.2187e-15,838.267,380.096)"><stop offset="0" style="stop-color:rgb(149,156,163);stop-opacity:1"/><stop offset="1" style="stop-color:rgb(130,139,150);stop-opacity:1"/></radialGradient>
        <radialGradient id="_Radial4" cx="0" cy="0" r="1" gradientUnits="userSpaceOnUse" gradientTransform="matrix(2.37663e-15,38.8133,-35.7975,2.19197e-15,835.099,368.895)"><stop offset="0" style="stop-color:rgb(149,156,163);stop-opacity:1"/><stop offset="1" style="stop-color:rgb(130,139,150);stop-opacity:1"/></radialGradient>
        <radialGradient id="_Radial5" cx="0" cy="0" r="1" gradientUnits="userSpaceOnUse" gradientTransform="matrix(1.91371e-15,32.9654,-28.8248,1.8617e-15,835.622,372.718)"><stop offset="0" style="stop-color:rgb(149,156,163);stop-opacity:1"/><stop offset="1" style="stop-color:rgb(130,139,150);stop-opacity:1"/></radialGradient>
        <radialGradient id="_Radial6" cx="0" cy="0" r="1" gradientUnits="userSpaceOnUse" gradientTransform="matrix(1.99337e-15,41.8126,-30.0247,2.36135e-15,838.935,367.928)"><stop offset="0" style="stop-color:rgb(149,156,163);stop-opacity:1"/><stop offset="1" style="stop-color:rgb(130,139,150);stop-opacity:1"/></radialGradient>
    </defs>
</svg>
