<?xml version="1.0" encoding="UTF-8" standalone="no"?>
<!DOCTYPE svg PUBLIC "-//W3C//DTD SVG 1.1//EN" "http://www.w3.org/Graphics/SVG/1.1/DTD/svg11.dtd">
<svg width="100%" height="100%" viewBox="0 0 512 512" version="1.1" xmlns="http://www.w3.org/2000/svg" xmlns:xlink="http://www.w3.org/1999/xlink" xml:space="preserve" xmlns:serif="http://www.serif.com/" style="fill-rule:evenodd;clip-rule:evenodd;stroke-linejoin:round;stroke-miterlimit:1.41421;">
    <g transform="matrix(3.18389,0,0,3.18389,-909.532,-767.719)">
        <g id="Deer---Lines-Vertical" serif:id="Deer - Lines Vertical">
            <g>
                <g transform="matrix(-0.669935,0.386787,0.386787,0.669935,494.621,-37.7783)">
                    <path d="M380.067,216.145C380.067,213.521 377.936,211.39 375.312,211.39C372.687,211.39 370.556,213.521 370.556,216.145L370.556,246.533C370.556,249.158 372.687,251.288 375.312,251.288C377.936,251.288 380.067,249.158 380.067,246.533L380.067,216.145Z" style="fill:none;stroke:rgb(140,97,51);stroke-width:8.07px;"/>
                </g>
                <g transform="matrix(-0.173829,0.753791,0.369068,0.0851094,309.753,-37.6362)">
                    <path d="M380.067,221.102C380.067,215.742 377.936,211.39 375.312,211.39C372.687,211.39 370.556,215.742 370.556,221.102L370.556,241.576C370.556,246.936 372.687,251.288 375.312,251.288C377.936,251.288 380.067,246.936 380.067,241.576L380.067,221.102Z" style="fill:none;stroke:rgb(140,97,51);stroke-width:10.26px;"/>
                </g>
                <g transform="matrix(0.739717,0.226355,-0.133423,0.436018,87.4841,72.5453)">
                    <path d="M380.067,219.457C380.067,215.005 377.936,211.39 375.312,211.39C372.687,211.39 370.556,215.005 370.556,219.457L370.556,243.221C370.556,247.673 372.687,251.288 375.312,251.288C377.936,251.288 380.067,247.673 380.067,243.221L380.067,219.457Z" style="fill:none;stroke:rgb(140,97,51);stroke-width:9.84px;"/>
                </g>
                <g transform="matrix(0.669935,0.386787,-0.386787,0.669935,237.678,-37.7783)">
                    <path d="M380.067,216.145C380.067,213.521 377.936,211.39 375.312,211.39C372.687,211.39 370.556,213.521 370.556,216.145L370.556,246.533C370.556,249.158 372.687,251.288 375.312,251.288C377.936,251.288 380.067,249.158 380.067,246.533L380.067,216.145Z" style="fill:none;stroke:rgb(140,97,51);stroke-width:8.07px;"/>
                </g>
                <g transform="matrix(0.173829,0.753791,-0.369068,0.0851094,422.546,-37.6362)">
                    <path d="M380.067,221.102C380.067,215.742 377.936,211.39 375.312,211.39C372.687,211.39 370.556,215.742 370.556,221.102L370.556,241.576C370.556,246.936 372.687,251.288 375.312,251.288C377.936,251.288 380.067,246.936 380.067,241.576L380.067,221.102Z" style="fill:none;stroke:rgb(140,97,51);stroke-width:10.26px;"/>
                </g>
                <g transform="matrix(-0.739717,0.226355,0.133423,0.436018,644.815,72.5453)">
                    <path d="M380.067,219.457C380.067,215.005 377.936,211.39 375.312,211.39C372.687,211.39 370.556,215.005 370.556,219.457L370.556,243.221C370.556,247.673 372.687,251.288 375.312,251.288C377.936,251.288 380.067,247.673 380.067,243.221L380.067,219.457Z" style="fill:none;stroke:rgb(140,97,51);stroke-width:9.84px;"/>
                </g>
                <g transform="matrix(1.0536,0.644554,-0.644554,1.0536,190.252,-124.068)">
                    <ellipse cx="256.415" cy="234.814" rx="15.396" ry="11.133" style="fill:none;stroke:rgb(140,97,51);stroke-width:5.06px;"/>
                </g>
                <g transform="matrix(-1.0536,0.644554,0.644554,1.0536,541.891,-122.386)">
                    <ellipse cx="256.415" cy="234.814" rx="15.396" ry="11.133" style="fill:none;stroke:rgb(140,97,51);stroke-width:5.06px;"/>
                </g>
                <g transform="matrix(0.911742,0,0,0.911742,-2054.07,-1647.06)">
                    <path d="M2581.52,2146.31C2591.66,2119.13 2620.52,2099.5 2654.5,2099.5C2688.47,2099.5 2717.32,2119.12 2727.46,2146.28L2727.61,2146.68L2727.66,2146.83L2727.67,2146.84C2727.82,2147.25 2727.96,2147.66 2728.1,2148.06L2728.11,2148.1L2728.12,2148.13L2728.17,2148.28L2728.21,2148.4L2728.22,2148.42L2728.23,2148.46L2728.3,2148.69C2728.35,2148.82 2728.39,2148.95 2728.44,2149.09L2728.51,2149.31L2728.53,2149.37L2728.53,2149.39L2728.56,2149.49L2728.61,2149.64L2728.62,2149.69L2728.64,2149.75L2728.69,2149.9L2728.72,2149.99L2728.72,2150.01L2728.75,2150.09L2728.81,2150.31L2728.9,2150.6L2728.93,2150.72L2728.98,2150.88L2729.01,2150.97L2729.02,2151.02L2729.05,2151.13L2729.08,2151.24L2729.1,2151.3L2729.12,2151.39L2729.16,2151.54L2729.18,2151.6L2729.19,2151.62L2729.22,2151.76L2729.28,2151.95L2729.32,2152.12L2729.36,2152.27L2729.37,2152.3L2729.38,2152.36L2729.42,2152.49L2729.44,2152.6L2729.46,2152.67L2729.49,2152.77L2729.51,2152.86L2729.53,2152.92L2729.56,2153.05L2729.59,2153.19L2729.6,2153.23C2729.63,2153.35 2729.66,2153.46 2729.69,2153.57L2729.69,2153.6L2729.72,2153.74L2729.76,2153.9L2729.78,2153.95L2729.79,2154.02L2729.82,2154.13L2729.84,2154.23L2729.86,2154.33L2729.89,2154.44L2729.9,2154.5L2729.91,2154.56L2729.95,2154.74L2729.98,2154.85L2729.98,2154.88C2730.01,2155 2730.03,2155.12 2730.06,2155.24L2730.07,2155.27L2730.09,2155.39L2730.12,2155.55L2730.14,2155.62L2730.15,2155.69L2730.17,2155.78L2730.19,2155.88L2730.22,2156.01L2730.24,2156.11L2730.24,2156.16L2730.25,2156.21L2730.3,2156.46L2730.32,2156.53L2730.32,2156.58L2730.38,2156.87L2730.39,2156.91L2730.39,2156.96L2730.41,2157.06L2730.44,2157.21L2730.45,2157.3L2730.47,2157.38L2730.48,2157.45L2730.49,2157.54L2730.52,2157.71L2730.54,2157.8L2730.54,2157.84C2730.57,2157.96 2730.59,2158.09 2730.61,2158.22L2730.61,2158.23L2730.62,2158.3L2730.66,2158.54L2730.66,2158.6L2730.67,2158.65L2730.69,2158.74L2730.71,2158.88L2730.72,2159L2730.74,2159.08L2730.74,2159.14L2730.76,2159.22L2730.78,2159.42L2730.8,2159.51L2730.8,2159.53C2730.82,2159.66 2730.83,2159.78 2730.85,2159.91L2730.85,2159.94L2730.86,2160.02L2730.89,2160.23L2730.9,2160.3L2730.91,2160.37L2730.91,2160.44L2730.93,2160.56L2730.95,2160.71L2730.96,2160.79L2730.96,2160.84L2730.97,2160.9L2731,2161.17L2731,2161.22L2731.01,2161.23C2731.02,2161.36 2731.03,2161.49 2731.05,2161.62L2731.05,2161.66L2731.06,2161.74L2731.08,2161.92L2731.08,2162.02L2731.09,2162.09L2731.1,2162.16L2731.11,2162.26L2731.12,2162.44L2731.13,2162.52L2731.13,2162.56C2731.14,2162.69 2731.15,2162.82 2731.16,2162.95L2731.19,2163.29L2731.19,2163.35L2731.2,2163.39L2731.2,2163.47L2731.21,2163.63L2731.22,2163.75L2731.23,2163.82L2731.23,2163.88L2731.24,2163.97L2731.25,2164.18L2731.25,2164.26L2731.26,2164.28C2731.26,2164.41 2731.27,2164.55 2731.28,2164.68L2731.28,2164.7L2731.28,2164.76L2731.29,2165L2731.3,2165.08L2731.3,2165.13L2731.3,2165.21L2731.31,2165.35L2731.31,2165.49L2731.31,2165.57L2731.32,2165.62L2731.32,2165.69L2731.33,2165.95L2731.33,2166.01L2731.33,2166.02C2731.33,2166.15 2731.34,2166.29 2731.34,2166.42L2731.34,2166.45L2731.34,2166.53L2731.35,2166.73L2731.35,2166.82L2731.35,2166.89L2731.35,2166.96L2731.35,2167.08L2731.35,2167.24L2731.35,2167.33L2731.35,2167.37C2731.35,2167.5 2731.35,2167.64 2731.35,2167.77C2731.35,2205.45 2696.91,2239.24 2654.5,2239.24C2612.08,2239.24 2577.64,2205.45 2577.64,2167.77C2577.64,2167.64 2577.64,2167.5 2577.64,2167.37L2577.64,2167.33L2577.64,2167.24L2577.64,2167.07L2577.64,2166.96L2577.64,2166.89L2577.65,2166.82L2577.65,2166.72L2577.65,2166.53L2577.65,2166.45L2577.65,2166.41C2577.66,2166.28 2577.66,2166.15 2577.66,2166.01L2577.68,2165.67L2577.68,2165.61L2577.68,2165.57L2577.68,2165.49L2577.69,2165.32L2577.69,2165.21L2577.7,2165.13L2577.7,2165.07L2577.7,2164.97L2577.71,2164.78L2577.72,2164.7L2577.72,2164.66C2577.72,2164.53 2577.73,2164.4 2577.74,2164.27L2577.74,2164.26L2577.74,2164.21L2577.76,2163.93L2577.76,2163.87L2577.76,2163.82L2577.77,2163.74L2577.78,2163.58L2577.79,2163.46L2577.8,2163.39L2577.8,2163.33L2577.81,2163.24L2577.82,2163.04L2577.83,2162.95L2577.83,2162.93C2577.84,2162.8 2577.85,2162.66 2577.86,2162.53L2577.86,2162.52L2577.87,2162.46L2577.89,2162.2L2577.9,2162.14L2577.9,2162.09L2577.91,2162L2577.92,2161.86L2577.94,2161.73L2577.94,2161.66L2577.95,2161.6L2577.96,2161.52L2577.98,2161.31L2577.99,2161.22L2577.99,2161.2C2578.01,2161.07 2578.02,2160.94 2578.03,2160.81L2578.04,2160.79L2578.04,2160.72L2578.07,2160.49L2578.08,2160.42L2578.09,2160.37L2578.1,2160.28L2578.11,2160.15L2578.13,2160.02L2578.14,2159.94L2578.15,2159.88L2578.16,2159.8L2578.19,2159.59L2578.2,2159.51L2578.2,2159.49C2578.22,2159.36 2578.24,2159.23 2578.25,2159.1L2578.26,2159.08L2578.27,2159L2578.3,2158.78L2578.31,2158.71L2578.32,2158.65L2578.33,2158.57L2578.35,2158.45L2578.37,2158.31L2578.39,2158.23L2578.39,2158.18L2578.4,2158.11L2578.44,2157.88L2578.45,2157.8L2578.46,2157.79C2578.48,2157.66 2578.5,2157.53 2578.52,2157.41L2578.53,2157.38L2578.54,2157.29L2578.58,2157.1L2578.59,2157.02L2578.6,2156.96L2578.61,2156.88L2578.64,2156.76L2578.66,2156.62L2578.68,2156.53L2578.69,2156.48L2578.7,2156.42L2578.74,2156.18L2578.76,2156.11L2578.76,2156.1C2578.78,2155.97 2578.81,2155.85 2578.83,2155.72L2578.84,2155.69L2578.86,2155.6L2578.9,2155.42L2578.91,2155.34L2578.93,2155.27L2578.94,2155.19L2578.97,2155.09L2579,2154.95L2579.01,2154.85L2579.03,2154.81L2579.04,2154.75L2579.09,2154.5L2579.11,2154.44L2579.11,2154.43C2579.14,2154.3 2579.16,2154.18 2579.19,2154.05L2579.2,2154.02L2579.22,2153.92L2579.26,2153.76L2579.28,2153.67L2579.3,2153.6L2579.32,2153.53L2579.34,2153.43L2579.38,2153.28L2579.4,2153.19L2579.41,2153.14L2579.42,2153.1L2579.49,2152.84L2579.5,2152.77L2579.51,2152.75L2579.59,2152.44L2579.6,2152.4L2579.61,2152.36L2579.64,2152.26L2579.67,2152.11L2579.7,2152.02L2579.72,2151.95L2579.74,2151.87L2579.76,2151.78L2579.8,2151.64L2579.83,2151.54L2579.84,2151.49L2579.85,2151.45L2579.93,2151.19L2579.94,2151.13L2579.96,2151.06L2580.04,2150.8L2580.05,2150.76L2580.06,2150.72L2580.09,2150.61L2580.13,2150.48L2580.16,2150.39L2580.18,2150.31L2580.2,2150.23L2580.23,2150.15L2580.27,2150.01L2580.3,2149.9L2580.32,2149.86L2580.33,2149.83L2580.41,2149.55L2580.43,2149.49L2580.46,2149.4L2580.53,2149.18L2580.54,2149.14L2580.56,2149.09L2580.59,2148.98L2580.63,2148.86L2580.66,2148.77L2580.69,2148.69L2580.71,2148.61L2580.74,2148.54L2580.78,2148.4L2580.82,2148.28L2580.84,2148.24L2580.84,2148.22L2580.94,2147.92L2580.96,2147.88L2581,2147.76L2581.06,2147.58L2581.08,2147.54L2581.1,2147.48L2581.14,2147.37L2581.17,2147.26L2581.2,2147.17L2581.24,2147.08L2581.27,2147L2581.29,2146.94L2581.34,2146.8L2581.38,2146.68L2581.4,2146.64C2581.44,2146.53 2581.48,2146.42 2581.52,2146.31Z" style="fill:none;stroke:rgb(140,97,51);stroke-width:6.85px;"/>
                </g>
            </g>
            <g transform="matrix(0.911742,0,0,0.911742,-2054.07,-1647.06)">
                <path d="M2605.67,2115C2618.94,2105.32 2635.92,2099.5 2654.41,2099.5C2673.4,2099.5 2690.78,2105.63 2704.2,2115.78C2705.62,2114.4 2707.26,2113.13 2709.07,2112.02C2718.89,2106.01 2730.39,2106.9 2734.73,2114C2739.08,2121.1 2734.63,2131.74 2724.81,2137.75C2724.47,2137.96 2724.12,2138.16 2723.78,2138.36C2725.2,2140.99 2726.43,2143.72 2727.47,2146.52L2727.58,2146.84L2728.03,2148.13L2728.22,2148.69L2728.66,2150.09L2729.04,2151.39L2729.44,2152.92L2729.83,2154.56L2730.1,2155.88L2730.41,2157.54L2730.62,2158.88L2730.71,2159.53L2730.88,2160.9L2731.02,2162.26L2731.13,2163.63L2731.17,2164.28L2731.23,2165.69L2731.26,2167.08L2731.27,2167.77C2731.27,2205.45 2696.83,2239.24 2654.41,2239.24C2611.99,2239.24 2577.55,2205.45 2577.55,2167.77L2577.56,2166.72L2577.6,2165.32L2577.63,2164.66L2577.72,2163.24L2577.84,2161.86L2577.91,2161.2L2578.07,2159.8L2578.26,2158.45L2578.37,2157.79L2578.61,2156.42L2578.88,2155.09L2579.02,2154.43L2579.34,2153.1L2579.68,2151.78L2580.14,2150.15L2580.65,2148.54L2581.2,2146.94L2581.43,2146.31C2582.64,2143.07 2584.12,2139.94 2585.83,2136.93C2585.22,2136.62 2584.61,2136.28 2584.01,2135.91C2574.19,2129.9 2569.74,2119.26 2574.09,2112.16C2578.43,2105.06 2589.93,2104.17 2599.75,2110.18C2602.03,2111.57 2604.01,2113.21 2605.67,2115Z" style="fill:url(#_Radial1);"/>
                <clipPath id="_clip2">
                    <path d="M2605.67,2115C2618.94,2105.32 2635.92,2099.5 2654.41,2099.5C2673.4,2099.5 2690.78,2105.63 2704.2,2115.78C2705.62,2114.4 2707.26,2113.13 2709.07,2112.02C2718.89,2106.01 2730.39,2106.9 2734.73,2114C2739.08,2121.1 2734.63,2131.74 2724.81,2137.75C2724.47,2137.96 2724.12,2138.16 2723.78,2138.36C2725.2,2140.99 2726.43,2143.72 2727.47,2146.52L2727.58,2146.84L2728.03,2148.13L2728.22,2148.69L2728.66,2150.09L2729.04,2151.39L2729.44,2152.92L2729.83,2154.56L2730.1,2155.88L2730.41,2157.54L2730.62,2158.88L2730.71,2159.53L2730.88,2160.9L2731.02,2162.26L2731.13,2163.63L2731.17,2164.28L2731.23,2165.69L2731.26,2167.08L2731.27,2167.77C2731.27,2205.45 2696.83,2239.24 2654.41,2239.24C2611.99,2239.24 2577.55,2205.45 2577.55,2167.77L2577.56,2166.72L2577.6,2165.32L2577.63,2164.66L2577.72,2163.24L2577.84,2161.86L2577.91,2161.2L2578.07,2159.8L2578.26,2158.45L2578.37,2157.79L2578.61,2156.42L2578.88,2155.09L2579.02,2154.43L2579.34,2153.1L2579.68,2151.78L2580.14,2150.15L2580.65,2148.54L2581.2,2146.94L2581.43,2146.31C2582.64,2143.07 2584.12,2139.94 2585.83,2136.93C2585.22,2136.62 2584.61,2136.28 2584.01,2135.91C2574.19,2129.9 2569.74,2119.26 2574.09,2112.16C2578.43,2105.06 2589.93,2104.17 2599.75,2110.18C2602.03,2111.57 2604.01,2113.21 2605.67,2115Z"/>
                </clipPath>
                <g clip-path="url(#_clip2)">
                    <g id="Vertical" transform="matrix(1.0682,0,0,1.0682,1529.06,1568.56)">
                        <g transform="matrix(5.52551e-16,1.95057,-1.37784,3.90309e-16,1576.85,-1067.38)">
                            <path d="M799.155,338.606C799.155,338.606 819.22,338.954 825.453,338.606C831.686,338.258 833.818,338.954 839.573,338.954C845.328,338.954 866.031,338.069 869.22,338.055C872.409,338.041 878.062,337.939 878.062,337.939L879.091,347.885C879.091,347.885 862.986,347.537 856.505,347.537C850.025,347.537 843.661,348.913 835.557,348.913C827.453,348.913 824.7,347.87 816.001,348.218C807.302,348.566 797.444,348.566 797.444,348.566L799.155,338.606Z" style="fill:url(#_Radial3);"/>
                        </g>
                        <g transform="matrix(5.52551e-16,1.95057,-2.02322,5.73133e-16,1799.49,-1061.2)">
                            <path d="M792.906,357.83C792.906,357.83 808.202,357.698 813.754,357.698C819.306,357.698 829.207,356.64 835.078,356.64C840.949,356.64 856.867,355.756 861.23,355.756C865.594,355.756 876.945,356.105 876.945,356.105L877.293,366.15C877.293,366.15 866.42,364.76 860.767,365.107C855.113,365.455 850.922,365.455 846.428,365.455C841.935,365.455 835.876,364.425 829.308,364.758C822.741,365.092 818.159,364.745 813.23,365.441C808.302,366.136 792.92,366.483 792.92,366.483L792.906,357.83Z" style="fill:url(#_Radial4);"/>
                        </g>
                        <g transform="matrix(6.86213e-16,2.42241,-2.38214,6.74805e-16,1941,-1456.5)">
                            <path d="M801.518,378.444C801.518,378.444 811.275,380.168 816.711,379.487C822.147,378.806 824.277,377.879 830.497,377.879C836.717,377.879 841.501,378.213 848.663,377.879C855.824,377.546 869.726,377.546 869.726,377.546L868.379,383.779C868.379,383.779 848.183,383.547 843.69,383.779C839.196,384.011 834.064,384.127 828.41,384.358C822.756,384.59 802.707,384.59 802.707,384.59L801.518,378.444Z" style="fill:url(#_Radial5);"/>
                        </g>
                        <g transform="matrix(6.5879e-16,2.3256,-1.8781,5.32022e-16,1744.14,-1383.31)">
                            <path d="M804.491,392.753C804.491,392.753 818.264,391.709 823.975,391.709C829.686,391.709 832.57,393.319 838.37,392.739C844.169,392.158 861.551,391.81 861.551,391.81L870.945,391.81C873.264,391.81 873.38,396.638 873.38,396.638C873.38,396.638 867.945,398.013 862.044,398.362C856.143,398.711 847.285,399.06 842.357,398.711C837.428,398.362 833.471,398.362 828.397,398.362C823.323,398.362 805.23,398.595 805.23,398.595L804.491,392.753Z" style="fill:url(#_Radial6);"/>
                        </g>
                    </g>
                </g>
            </g>
        </g>
    </g>
    <defs>
        <radialGradient id="_Radial1" cx="0" cy="0" r="1" gradientUnits="userSpaceOnUse" gradientTransform="matrix(0,107.159,-111.691,0,2654.41,2132.08)"><stop offset="0" style="stop-color:rgb(209,151,89);stop-opacity:1"/><stop offset="0.45" style="stop-color:rgb(194,134,68);stop-opacity:1"/><stop offset="1" style="stop-color:rgb(158,91,16);stop-opacity:1"/></radialGradient>
        <radialGradient id="_Radial3" cx="0" cy="0" r="1" gradientUnits="userSpaceOnUse" gradientTransform="matrix(38.8133,1.22007e-14,-7.94865e-15,50.6776,829.818,380.096)"><stop offset="0" style="stop-color:white;stop-opacity:1"/><stop offset="0.6" style="stop-color:rgb(246,235,224);stop-opacity:1"/><stop offset="0.81" style="stop-color:rgb(226,191,154);stop-opacity:1"/><stop offset="1" style="stop-color:rgb(206,146,82);stop-opacity:1"/></radialGradient>
        <radialGradient id="_Radial4" cx="0" cy="0" r="1" gradientUnits="userSpaceOnUse" gradientTransform="matrix(38.8133,8.30879e-15,-7.94865e-15,34.512,826.65,368.895)"><stop offset="0" style="stop-color:white;stop-opacity:1"/><stop offset="0.6" style="stop-color:rgb(246,235,224);stop-opacity:1"/><stop offset="0.81" style="stop-color:rgb(226,191,154);stop-opacity:1"/><stop offset="1" style="stop-color:rgb(206,146,82);stop-opacity:1"/></radialGradient>
        <radialGradient id="_Radial5" cx="0" cy="0" r="1" gradientUnits="userSpaceOnUse" gradientTransform="matrix(31.2532,7.05691e-15,-6.40039e-15,29.3121,828.819,372.718)"><stop offset="0" style="stop-color:white;stop-opacity:1"/><stop offset="0.6" style="stop-color:rgb(246,235,224);stop-opacity:1"/><stop offset="0.81" style="stop-color:rgb(226,191,154);stop-opacity:1"/><stop offset="1" style="stop-color:rgb(206,146,82);stop-opacity:1"/></radialGradient>
        <radialGradient id="_Radial6" cx="0" cy="0" r="1" gradientUnits="userSpaceOnUse" gradientTransform="matrix(32.5542,8.95085e-15,-6.66682e-15,37.1788,831.849,367.928)"><stop offset="0" style="stop-color:white;stop-opacity:1"/><stop offset="0.6" style="stop-color:rgb(246,235,224);stop-opacity:1"/><stop offset="0.81" style="stop-color:rgb(226,191,154);stop-opacity:1"/><stop offset="1" style="stop-color:rgb(206,146,82);stop-opacity:1"/></radialGradient>
    </defs>
</svg>
