<?xml version="1.0" encoding="UTF-8" standalone="no"?>
<!DOCTYPE svg PUBLIC "-//W3C//DTD SVG 1.1//EN" "http://www.w3.org/Graphics/SVG/1.1/DTD/svg11.dtd">
<svg width="100%" height="100%" viewBox="0 0 512 512" version="1.1" xmlns="http://www.w3.org/2000/svg" xmlns:xlink="http://www.w3.org/1999/xlink" xml:space="preserve" xmlns:serif="http://www.serif.com/" style="fill-rule:evenodd;clip-rule:evenodd;stroke-linejoin:round;stroke-miterlimit:1.41421;">
    <g transform="matrix(3.10086,0,0,3.10086,-4040.59,-945.507)">
        <g id="Dog---Lines-Vertical" serif:id="Dog - Lines Vertical">
            <g id="Outline">
                <g transform="matrix(1.07427,0,0,1.06372,1201.18,-1916.16)">
                    <ellipse cx="171.536" cy="2150.36" rx="59.376" ry="58.51" style="fill:none;stroke:rgb(145,83,24);stroke-width:6px;"/>
                </g>
                <g transform="matrix(0.936156,0,0,0.901537,1222.7,-1576.93)">
                    <path d="M184.063,2155.21C184.063,2168.63 190.881,2181.13 202.164,2188.4C210.981,2194.07 216.531,2202.38 216.531,2211.62C216.531,2228.78 197.411,2242.7 173.86,2242.7C150.31,2242.7 131.19,2228.78 131.19,2211.62C131.19,2202.38 136.739,2194.07 145.541,2188.37C156.815,2181.11 163.628,2168.62 163.628,2155.21C163.657,2149.15 163.657,2143.06 163.657,2138.18C163.657,2132.54 168.225,2127.97 173.859,2127.97C173.86,2127.97 173.861,2127.97 173.861,2127.97C179.496,2127.97 184.063,2132.54 184.063,2138.18C184.063,2143.06 184.063,2149.15 184.063,2155.21Z" style="fill:none;stroke:rgb(145,83,24);stroke-width:6.98px;"/>
                </g>
                <g transform="matrix(0.632752,0,0,1.14765,694.491,-274.709)">
                    <path d="M1148.33,517.824C1148.19,512.207 1181.83,502.432 1199.48,520.089C1217.14,537.745 1224.45,587.949 1189.91,588.18C1155.38,588.41 1165.34,531.298 1148.33,517.824Z" style="fill:none;stroke:rgb(145,83,24);stroke-width:6.92px;"/>
                </g>
                <g transform="matrix(-0.632752,0,0,1.14765,2076.74,-274.709)">
                    <path d="M1148.33,517.824C1148.19,512.207 1181.83,502.432 1199.48,520.089C1217.14,537.745 1224.45,587.949 1189.91,588.18C1155.38,588.41 1165.34,531.298 1148.33,517.824Z" style="fill:none;stroke:rgb(145,83,24);stroke-width:6.92px;"/>
                </g>
            </g>
            <g transform="matrix(0.936156,0,0,0.936156,1221.26,-1648.52)">
                <path d="M137.656,2102.13C148.46,2095.09 161.441,2090.99 175.396,2090.99C189.517,2090.99 202.64,2095.19 213.521,2102.38L213.474,2102.31C213.378,2095.42 236.112,2083.44 248.046,2105.09C259.98,2126.73 264.919,2188.28 241.577,2188.56C239.628,2188.58 237.888,2188.12 236.331,2187.23C231.872,2195.9 225.529,2203.49 217.83,2209.48C215.574,2224.51 197.423,2236.25 175.396,2236.25C153.369,2236.25 135.218,2224.51 132.962,2209.48C125.305,2203.52 118.99,2195.98 114.536,2187.38C113.048,2188.17 111.396,2188.58 109.556,2188.56C86.214,2188.28 91.153,2126.73 103.087,2105.09C114.916,2083.63 137.356,2095.22 137.656,2102.13Z" style="fill:url(#_Radial1);"/>
                <clipPath id="_clip2">
                    <path d="M137.656,2102.13C148.46,2095.09 161.441,2090.99 175.396,2090.99C189.517,2090.99 202.64,2095.19 213.521,2102.38L213.474,2102.31C213.378,2095.42 236.112,2083.44 248.046,2105.09C259.98,2126.73 264.919,2188.28 241.577,2188.56C239.628,2188.58 237.888,2188.12 236.331,2187.23C231.872,2195.9 225.529,2203.49 217.83,2209.48C215.574,2224.51 197.423,2236.25 175.396,2236.25C153.369,2236.25 135.218,2224.51 132.962,2209.48C125.305,2203.52 118.99,2195.98 114.536,2187.38C113.048,2188.17 111.396,2188.58 109.556,2188.56C86.214,2188.28 91.153,2126.73 103.087,2105.09C114.916,2083.63 137.356,2095.22 137.656,2102.13Z"/>
                </clipPath>
                <g clip-path="url(#_clip2)">
                    <g id="Vertical" transform="matrix(1.0682,0,0,1.0682,-949.391,1557.18)">
                        <g transform="matrix(5.52551e-16,1.95057,-1.37784,3.90309e-16,1576.85,-1067.38)">
                            <path d="M799.155,338.606C799.155,338.606 819.22,338.954 825.453,338.606C831.686,338.258 833.818,338.954 839.573,338.954C845.328,338.954 866.031,338.069 869.22,338.055C872.409,338.041 878.062,337.939 878.062,337.939L879.091,347.885C879.091,347.885 862.986,347.537 856.505,347.537C850.025,347.537 843.661,348.913 835.557,348.913C827.453,348.913 824.7,347.87 816.001,348.218C807.302,348.566 797.444,348.566 797.444,348.566L799.155,338.606Z" style="fill:url(#_Radial3);"/>
                        </g>
                        <g transform="matrix(5.52551e-16,1.95057,-2.02322,5.73133e-16,1799.49,-1061.2)">
                            <path d="M792.906,357.83C792.906,357.83 808.202,357.698 813.754,357.698C819.306,357.698 829.207,356.64 835.078,356.64C840.949,356.64 856.867,355.756 861.23,355.756C865.594,355.756 876.945,356.105 876.945,356.105L877.293,366.15C877.293,366.15 866.42,364.76 860.767,365.107C855.113,365.455 850.922,365.455 846.428,365.455C841.935,365.455 835.876,364.425 829.308,364.758C822.741,365.092 818.159,364.745 813.23,365.441C808.302,366.136 792.92,366.483 792.92,366.483L792.906,357.83Z" style="fill:url(#_Radial4);"/>
                        </g>
                        <g transform="matrix(6.86213e-16,2.42241,-2.38214,6.74805e-16,1941,-1456.5)">
                            <path d="M801.518,378.444C801.518,378.444 811.275,380.168 816.711,379.487C822.147,378.806 824.277,377.879 830.497,377.879C836.717,377.879 841.501,378.213 848.663,377.879C855.824,377.546 869.726,377.546 869.726,377.546L868.379,383.779C868.379,383.779 848.183,383.547 843.69,383.779C839.196,384.011 834.064,384.127 828.41,384.358C822.756,384.59 802.707,384.59 802.707,384.59L801.518,378.444Z" style="fill:url(#_Radial5);"/>
                        </g>
                        <g transform="matrix(6.5879e-16,2.3256,-1.8781,5.32022e-16,1744.14,-1383.31)">
                            <path d="M804.491,392.753C804.491,392.753 818.264,391.709 823.975,391.709C829.686,391.709 832.57,393.319 838.37,392.739C844.169,392.158 861.551,391.81 861.551,391.81L870.945,391.81C873.264,391.81 873.38,396.638 873.38,396.638C873.38,396.638 867.945,398.013 862.044,398.362C856.143,398.711 847.285,399.06 842.357,398.711C837.428,398.362 833.471,398.362 828.397,398.362C823.323,398.362 805.23,398.595 805.23,398.595L804.491,392.753Z" style="fill:url(#_Radial6);"/>
                        </g>
                    </g>
                </g>
            </g>
        </g>
    </g>
    <defs>
        <radialGradient id="_Radial1" cx="0" cy="0" r="1" gradientUnits="userSpaceOnUse" gradientTransform="matrix(4.29999e-15,79.841,-70.2241,4.88885e-15,171.536,2120.91)"><stop offset="0" style="stop-color:rgb(251,162,79);stop-opacity:1"/><stop offset="1" style="stop-color:rgb(213,103,0);stop-opacity:1"/></radialGradient>
        <radialGradient id="_Radial3" cx="0" cy="0" r="1" gradientUnits="userSpaceOnUse" gradientTransform="matrix(42.1768,1.3258e-14,-8.77729e-15,55.9608,830.948,380.096)"><stop offset="0" style="stop-color:white;stop-opacity:1"/><stop offset="0.6" style="stop-color:rgb(254,241,226);stop-opacity:1"/><stop offset="0.81" style="stop-color:rgb(251,211,161);stop-opacity:1"/><stop offset="1" style="stop-color:rgb(248,180,94);stop-opacity:1"/></radialGradient>
        <radialGradient id="_Radial4" cx="0" cy="0" r="1" gradientUnits="userSpaceOnUse" gradientTransform="matrix(42.1768,9.02881e-15,-8.77729e-15,38.1098,827.78,368.895)"><stop offset="0" style="stop-color:white;stop-opacity:1"/><stop offset="0.6" style="stop-color:rgb(254,241,226);stop-opacity:1"/><stop offset="0.81" style="stop-color:rgb(251,211,161);stop-opacity:1"/><stop offset="1" style="stop-color:rgb(248,180,94);stop-opacity:1"/></radialGradient>
        <radialGradient id="_Radial5" cx="0" cy="0" r="1" gradientUnits="userSpaceOnUse" gradientTransform="matrix(33.9615,7.66844e-15,-7.06763e-15,32.3679,829.728,372.718)"><stop offset="0" style="stop-color:white;stop-opacity:1"/><stop offset="0.6" style="stop-color:rgb(254,241,226);stop-opacity:1"/><stop offset="0.81" style="stop-color:rgb(251,211,161);stop-opacity:1"/><stop offset="1" style="stop-color:rgb(248,180,94);stop-opacity:1"/></radialGradient>
        <radialGradient id="_Radial6" cx="0" cy="0" r="1" gradientUnits="userSpaceOnUse" gradientTransform="matrix(35.3752,9.7265e-15,-7.36183e-15,41.0547,832.796,367.928)"><stop offset="0" style="stop-color:white;stop-opacity:1"/><stop offset="0.6" style="stop-color:rgb(254,241,226);stop-opacity:1"/><stop offset="0.81" style="stop-color:rgb(251,211,161);stop-opacity:1"/><stop offset="1" style="stop-color:rgb(248,180,94);stop-opacity:1"/></radialGradient>
    </defs>
</svg>
