<?xml version="1.0" encoding="UTF-8" standalone="no"?>
<!DOCTYPE svg PUBLIC "-//W3C//DTD SVG 1.1//EN" "http://www.w3.org/Graphics/SVG/1.1/DTD/svg11.dtd">
<svg width="100%" height="100%" viewBox="0 0 512 512" version="1.1" xmlns="http://www.w3.org/2000/svg" xmlns:xlink="http://www.w3.org/1999/xlink" xml:space="preserve" xmlns:serif="http://www.serif.com/" style="fill-rule:evenodd;clip-rule:evenodd;stroke-linejoin:round;stroke-miterlimit:1.41421;">
    <g transform="matrix(3.10086,0,0,3.10086,-3656.37,-1573.85)">
        <g id="Dolphin---Lines-Horizontal" serif:id="Dolphin - Lines Horizontal">
            <g id="Outline">
                <g transform="matrix(0.321654,0,0,0.321654,594.234,479.256)">
                    <path d="M1889.32,381.031C1878.82,384.339 1834.87,470.51 1852.55,487.849C1870.24,505.188 1946.26,462.099 1946.26,462.099C1946.26,462.099 1899.81,377.724 1889.32,381.031Z" style="fill:none;stroke:rgb(70,121,172);stroke-width:19.94px;"/>
                </g>
                <g transform="matrix(-0.321654,0,0,0.321654,1929.18,479.256)">
                    <path d="M1889.32,381.031C1878.82,384.339 1834.87,470.51 1852.55,487.849C1870.24,505.188 1946.26,462.099 1946.26,462.099C1946.26,462.099 1899.81,377.724 1889.32,381.031Z" style="fill:none;stroke:rgb(70,121,172);stroke-width:19.94px;"/>
                </g>
                <g transform="matrix(1,0,0,1.05864,-0.142857,-30.818)">
                    <path d="M1245.99,536.578C1247.09,527.661 1256.09,514.513 1263.7,514.513C1271.84,514.513 1281.45,529.198 1281.47,538.227C1268.23,532.443 1252.95,534.925 1245.99,536.578Z" style="fill:none;stroke:rgb(70,121,172);stroke-width:6.23px;"/>
                </g>
                <g transform="matrix(0.904038,0,0,1.00235,1100.22,-548.45)">
                    <path d="M178.273,1080.57C218.421,1080.57 243.214,1110.42 243.214,1147.05C243.214,1170.5 231.349,1175.8 213.396,1187.64C203.534,1194.14 193.706,1211.95 178.273,1211.95C162.841,1211.95 153.013,1194.14 143.151,1187.64C125.198,1175.8 113.333,1170.5 113.333,1147.05C113.333,1110.42 138.126,1080.57 178.273,1080.57Z" style="fill:none;stroke:rgb(70,121,172);stroke-width:6.72px;"/>
                </g>
                <g transform="matrix(0.936156,0,0,0.936156,1094.49,-478.675)">
                    <path d="M178.273,1080.57C218.421,1080.57 243.214,1110.42 243.214,1147.05C243.214,1170.5 231.349,1175.8 213.396,1187.64C203.534,1194.14 193.706,1211.95 178.273,1211.95C162.841,1211.95 153.013,1194.14 143.151,1187.64C125.198,1175.8 113.333,1170.5 113.333,1147.05C113.333,1110.42 138.126,1080.57 178.273,1080.57Z" style="fill:none;stroke:rgb(70,121,172);stroke-width:6.85px;"/>
                </g>
            </g>
            <g transform="matrix(0.936156,0,0,0.936156,1097.35,-478.675)">
                <path d="M159.157,1082.29C161.562,1072.49 170.167,1060.23 177.545,1060.23C185.312,1060.23 194.333,1073.48 196.186,1083.58C223.823,1092.04 240.166,1117.31 240.166,1147.05C240.166,1149.7 240.015,1152.11 239.721,1154.33C243.808,1156.89 257.95,1185.08 252.038,1190.88C247.723,1195.11 233.301,1188.87 225.3,1184.9C220.845,1188.87 215.374,1192.52 209.143,1197.08C199.619,1204.04 190.128,1223.12 175.225,1223.12C160.323,1223.12 150.832,1204.04 141.308,1197.08C135.19,1192.61 129.804,1189.01 125.395,1185.11C117.319,1189.09 103.332,1195.03 99.095,1190.88C93.451,1185.35 106.087,1159.39 110.799,1154.83C110.46,1152.48 110.285,1149.9 110.285,1147.05C110.285,1115.6 128.566,1089.14 159.157,1082.29Z" style="fill:url(#_Radial1);"/>
                <clipPath id="_clip2">
                    <path d="M159.157,1082.29C161.562,1072.49 170.167,1060.23 177.545,1060.23C185.312,1060.23 194.333,1073.48 196.186,1083.58C223.823,1092.04 240.166,1117.31 240.166,1147.05C240.166,1149.7 240.015,1152.11 239.721,1154.33C243.808,1156.89 257.95,1185.08 252.038,1190.88C247.723,1195.11 233.301,1188.87 225.3,1184.9C220.845,1188.87 215.374,1192.52 209.143,1197.08C199.619,1204.04 190.128,1223.12 175.225,1223.12C160.323,1223.12 150.832,1204.04 141.308,1197.08C135.19,1192.61 129.804,1189.01 125.395,1185.11C117.319,1189.09 103.332,1195.03 99.095,1190.88C93.451,1185.35 106.087,1159.39 110.799,1154.83C110.46,1152.48 110.285,1149.9 110.285,1147.05C110.285,1115.6 128.566,1089.14 159.157,1082.29Z"/>
                </clipPath>
                <g clip-path="url(#_clip2)">
                    <g id="Horizontal" transform="matrix(1.0682,0,0,1.0682,-971.496,542.045)">
                        <g transform="matrix(1.95057,0,0,1.32836,-554.241,62.8157)">
                            <path d="M799.155,338.606C799.155,338.606 819.22,338.954 825.453,338.606C831.686,338.258 833.818,338.954 839.573,338.954C845.328,338.954 866.031,338.069 869.22,338.055C872.409,338.041 878.062,337.939 878.062,337.939L879.091,347.885C879.091,347.885 862.986,347.537 856.505,347.537C850.025,347.537 843.661,348.913 835.557,348.913C827.453,348.913 824.7,347.87 816.001,348.218C807.302,348.566 797.444,348.566 797.444,348.566L799.155,338.606Z" style="fill:url(#_Radial3);"/>
                        </g>
                        <g transform="matrix(1.95057,0,0,1.95057,-548.062,-151.837)">
                            <path d="M792.906,357.83C792.906,357.83 808.202,357.698 813.754,357.698C819.306,357.698 829.207,356.64 835.078,356.64C840.949,356.64 856.867,355.756 861.23,355.756C865.594,355.756 876.945,356.105 876.945,356.105L877.293,366.15C877.293,366.15 866.42,364.76 860.767,365.107C855.113,365.455 850.922,365.455 846.428,365.455C841.935,365.455 835.876,364.425 829.308,364.758C822.741,365.092 818.159,364.745 813.23,365.441C808.302,366.136 792.92,366.483 792.92,366.483L792.906,357.83Z" style="fill:url(#_Radial4);"/>
                        </g>
                        <g transform="matrix(2.42241,0,0,2.29659,-943.364,-288.263)">
                            <path d="M801.518,378.444C801.518,378.444 811.275,380.168 816.711,379.487C822.147,378.806 824.277,377.879 830.497,377.879C836.717,377.879 841.501,378.213 848.663,377.879C855.824,377.546 869.726,377.546 869.726,377.546L868.379,383.779C868.379,383.779 848.183,383.547 843.69,383.779C839.196,384.011 834.064,384.127 828.41,384.358C822.756,384.59 802.707,384.59 802.707,384.59L801.518,378.444Z" style="fill:url(#_Radial5);"/>
                        </g>
                        <g transform="matrix(2.3256,0,0,1.81065,-870.175,-98.4719)">
                            <path d="M804.491,392.753C804.491,392.753 818.264,391.709 823.975,391.709C829.686,391.709 832.57,393.319 838.37,392.739C844.169,392.158 861.551,391.81 861.551,391.81L870.945,391.81C873.264,391.81 873.38,396.638 873.38,396.638C873.38,396.638 867.945,398.013 862.044,398.362C856.143,398.711 847.285,399.06 842.357,398.711C837.428,398.362 833.471,398.362 828.397,398.362C823.323,398.362 805.23,398.595 805.23,398.595L804.491,392.753Z" style="fill:url(#_Radial6);"/>
                        </g>
                    </g>
                </g>
            </g>
        </g>
    </g>
    <defs>
        <radialGradient id="_Radial1" cx="0" cy="0" r="1" gradientUnits="userSpaceOnUse" gradientTransform="matrix(7.82356e-15,132.214,-127.768,8.09577e-15,175.566,1090.9)"><stop offset="0" style="stop-color:rgb(142,237,255);stop-opacity:1"/><stop offset="0.77" style="stop-color:rgb(93,192,254);stop-opacity:1"/><stop offset="1" style="stop-color:rgb(86,218,255);stop-opacity:1"/></radialGradient>
        <radialGradient id="_Radial3" cx="0" cy="0" r="1" gradientUnits="userSpaceOnUse" gradientTransform="matrix(4.51485e-15,108.27,-35.3872,3.1818e-15,834.534,324.425)"><stop offset="0" style="stop-color:white;stop-opacity:1"/><stop offset="0.64" style="stop-color:rgb(239,249,253);stop-opacity:1"/><stop offset="1" style="stop-color:rgb(151,213,242);stop-opacity:1"/></radialGradient>
        <radialGradient id="_Radial4" cx="0" cy="0" r="1" gradientUnits="userSpaceOnUse" gradientTransform="matrix(4.51485e-15,73.7331,-35.3872,2.16684e-15,831.366,330.983)"><stop offset="0" style="stop-color:white;stop-opacity:1"/><stop offset="0.64" style="stop-color:rgb(239,249,253);stop-opacity:1"/><stop offset="1" style="stop-color:rgb(151,213,242);stop-opacity:1"/></radialGradient>
        <radialGradient id="_Radial5" cx="0" cy="0" r="1" gradientUnits="userSpaceOnUse" gradientTransform="matrix(3.63544e-15,62.6238,-28.4944,1.84036e-15,832.616,340.518)"><stop offset="0" style="stop-color:white;stop-opacity:1"/><stop offset="0.64" style="stop-color:rgb(239,249,253);stop-opacity:1"/><stop offset="1" style="stop-color:rgb(151,213,242);stop-opacity:1"/></radialGradient>
        <radialGradient id="_Radial6" cx="0" cy="0" r="1" gradientUnits="userSpaceOnUse" gradientTransform="matrix(3.78677e-15,79.4307,-29.6805,2.33428e-15,835.804,327.087)"><stop offset="0" style="stop-color:white;stop-opacity:1"/><stop offset="0.64" style="stop-color:rgb(239,249,253);stop-opacity:1"/><stop offset="1" style="stop-color:rgb(151,213,242);stop-opacity:1"/></radialGradient>
    </defs>
</svg>
