<?xml version="1.0" encoding="UTF-8" standalone="no"?>
<!DOCTYPE svg PUBLIC "-//W3C//DTD SVG 1.1//EN" "http://www.w3.org/Graphics/SVG/1.1/DTD/svg11.dtd">
<svg width="100%" height="100%" viewBox="0 0 512 512" version="1.1" xmlns="http://www.w3.org/2000/svg" xmlns:xlink="http://www.w3.org/1999/xlink" xml:space="preserve" xmlns:serif="http://www.serif.com/" style="fill-rule:evenodd;clip-rule:evenodd;stroke-linecap:round;stroke-linejoin:round;stroke-miterlimit:1.5;">
    <g transform="matrix(3.10086,0,0,3.10086,-5769.62,-724.416)">
        <g id="Elephant---Lines-Vertical" serif:id="Elephant - Lines Vertical">
            <g id="Outline">
                <g transform="matrix(0.870313,0,0,0.870313,552.063,-160.926)">
                    <circle cx="1642.94" cy="498.262" r="39.488" style="fill:none;stroke:rgb(52,126,172);stroke-width:7.37px;"/>
                </g>
                <g transform="matrix(0.870313,0,0,0.870313,474.616,-160.926)">
                    <circle cx="1642.94" cy="498.262" r="39.488" style="fill:none;stroke:rgb(52,126,172);stroke-width:7.37px;"/>
                </g>
                <g transform="matrix(0.858386,0,0,0.908752,-329.304,-15.4347)">
                    <path d="M2647.43,304.497C2686.97,304.497 2719.07,333.465 2719.07,364.59C2719.07,395.714 2686.97,417.285 2647.43,417.285C2607.89,417.285 2575.79,395.714 2575.79,364.59C2575.79,333.465 2607.89,304.497 2647.43,304.497Z" style="fill:none;stroke:rgb(52,126,172);stroke-width:7.26px;"/>
                </g>
                <g transform="matrix(0.888511,-5.83489e-18,5.83489e-18,-0.936156,-353.864,1633.17)">
                    <path d="M2605.04,1373.17C2606.25,1378.8 2604.74,1384.64 2600.91,1389.09C2597.09,1393.53 2591.36,1396.11 2585.31,1396.11C2585.31,1396.11 2585.31,1396.11 2585.31,1396.11C2579.26,1396.11 2573.54,1393.53 2569.71,1389.09C2565.89,1384.64 2564.37,1378.8 2565.58,1373.17C2567.27,1365.3 2569.1,1341.72 2570.51,1335.15C2571.95,1328.47 2578.13,1323.68 2585.31,1323.68C2585.31,1323.68 2585.31,1323.68 2585.31,1323.68C2592.49,1323.68 2598.68,1328.47 2600.11,1335.15C2601.53,1341.72 2603.35,1365.3 2605.04,1373.17Z" style="fill:none;stroke:rgb(52,126,172);stroke-width:7.03px;"/>
                </g>
                <g transform="matrix(-0.543995,0.291196,-0.571343,-1.06735,2653.11,162.758)">
                    <path d="M1115.52,108.664C1121.01,108.664 1127.66,122.829 1125.34,128.307C1123.02,133.785 1108.12,133.428 1105.7,128.307C1103.28,123.186 1110.03,108.664 1115.52,108.664Z" style="fill:none;stroke:rgb(52,126,172);stroke-width:6.68px;stroke-linecap:butt;stroke-miterlimit:1.41421;"/>
                </g>
                <g transform="matrix(0.543995,0.291196,0.571343,-1.06735,1233.32,162.758)">
                    <path d="M1115.52,108.664C1121.01,108.664 1127.66,122.829 1125.34,128.307C1123.02,133.785 1108.12,133.428 1105.7,128.307C1103.28,123.186 1110.03,108.664 1115.52,108.664Z" style="fill:none;stroke:rgb(52,126,172);stroke-width:6.68px;stroke-linecap:butt;stroke-miterlimit:1.41421;"/>
                </g>
            </g>
            <g transform="matrix(0.936156,0,0,0.936156,-541.73,-946.818)">
                <path d="M2661.04,1290.8C2665.99,1276.38 2679.68,1265.99 2695.78,1265.99C2716.04,1265.99 2732.49,1282.44 2732.49,1302.7C2732.49,1314.95 2726.47,1325.81 2717.24,1332.48C2719.1,1337.75 2720.1,1343.25 2720.1,1348.82C2720.1,1366.09 2710.49,1380.32 2695.48,1389.36C2698.5,1396.8 2700.51,1407.09 2698.18,1408.34C2695.76,1409.64 2688.02,1401.89 2683.52,1395.03C2679.59,1396.46 2675.43,1397.61 2671.1,1398.43C2670.15,1407.34 2669.24,1416.96 2668.46,1420.79C2667.1,1427.47 2661.22,1432.26 2654.41,1432.26C2654.41,1432.26 2654.41,1432.26 2654.41,1432.26C2647.6,1432.26 2641.73,1427.47 2640.36,1420.79C2639.58,1416.96 2638.67,1407.34 2637.72,1398.43C2633.39,1397.61 2629.23,1396.47 2625.3,1395.03C2620.8,1401.89 2613.06,1409.64 2610.64,1408.34C2608.31,1407.09 2610.32,1396.8 2613.34,1389.36C2598.33,1380.32 2588.72,1366.09 2588.72,1348.82C2588.72,1343.25 2589.72,1337.75 2591.58,1332.48C2582.35,1325.81 2576.34,1314.95 2576.34,1302.7C2576.34,1282.44 2592.78,1265.99 2613.05,1265.99C2629.14,1265.99 2642.83,1276.38 2647.78,1290.8C2649.96,1290.59 2652.17,1290.49 2654.41,1290.49C2656.65,1290.49 2658.86,1290.59 2661.04,1290.8Z" style="fill:url(#_Radial1);"/>
                <clipPath id="_clip2">
                    <path d="M2661.04,1290.8C2665.99,1276.38 2679.68,1265.99 2695.78,1265.99C2716.04,1265.99 2732.49,1282.44 2732.49,1302.7C2732.49,1314.95 2726.47,1325.81 2717.24,1332.48C2719.1,1337.75 2720.1,1343.25 2720.1,1348.82C2720.1,1366.09 2710.49,1380.32 2695.48,1389.36C2698.5,1396.8 2700.51,1407.09 2698.18,1408.34C2695.76,1409.64 2688.02,1401.89 2683.52,1395.03C2679.59,1396.46 2675.43,1397.61 2671.1,1398.43C2670.15,1407.34 2669.24,1416.96 2668.46,1420.79C2667.1,1427.47 2661.22,1432.26 2654.41,1432.26C2654.41,1432.26 2654.41,1432.26 2654.41,1432.26C2647.6,1432.26 2641.73,1427.47 2640.36,1420.79C2639.58,1416.96 2638.67,1407.34 2637.72,1398.43C2633.39,1397.61 2629.23,1396.47 2625.3,1395.03C2620.8,1401.89 2613.06,1409.64 2610.64,1408.34C2608.31,1407.09 2610.32,1396.8 2613.34,1389.36C2598.33,1380.32 2588.72,1366.09 2588.72,1348.82C2588.72,1343.25 2589.72,1337.75 2591.58,1332.48C2582.35,1325.81 2576.34,1314.95 2576.34,1302.7C2576.34,1282.44 2592.78,1265.99 2613.05,1265.99C2629.14,1265.99 2642.83,1276.38 2647.78,1290.8C2649.96,1290.59 2652.17,1290.49 2654.41,1290.49C2656.65,1290.49 2658.86,1290.59 2661.04,1290.8Z"/>
                </clipPath>
                <g clip-path="url(#_clip2)">
                    <g id="Vertical" transform="matrix(1.0682,0,0,1.0682,1529.06,737.577)">
                        <g transform="matrix(5.52551e-16,1.95057,-1.37784,3.90309e-16,1576.85,-1067.38)">
                            <path d="M799.155,338.606C799.155,338.606 819.22,338.954 825.453,338.606C831.686,338.258 833.818,338.954 839.573,338.954C845.328,338.954 866.031,338.069 869.22,338.055C872.409,338.041 878.062,337.939 878.062,337.939L879.091,347.885C879.091,347.885 862.986,347.537 856.505,347.537C850.025,347.537 843.661,348.913 835.557,348.913C827.453,348.913 824.7,347.87 816.001,348.218C807.302,348.566 797.444,348.566 797.444,348.566L799.155,338.606Z" style="fill:url(#_Radial3);"/>
                        </g>
                        <g transform="matrix(5.52551e-16,1.95057,-2.02322,5.73133e-16,1799.49,-1061.2)">
                            <path d="M792.906,357.83C792.906,357.83 808.202,357.698 813.754,357.698C819.306,357.698 829.207,356.64 835.078,356.64C840.949,356.64 856.867,355.756 861.23,355.756C865.594,355.756 876.945,356.105 876.945,356.105L877.293,366.15C877.293,366.15 866.42,364.76 860.767,365.107C855.113,365.455 850.922,365.455 846.428,365.455C841.935,365.455 835.876,364.425 829.308,364.758C822.741,365.092 818.159,364.745 813.23,365.441C808.302,366.136 792.92,366.483 792.92,366.483L792.906,357.83Z" style="fill:url(#_Radial4);"/>
                        </g>
                        <g transform="matrix(6.86213e-16,2.42241,-2.38214,6.74805e-16,1941,-1456.5)">
                            <path d="M801.518,378.444C801.518,378.444 811.275,380.168 816.711,379.487C822.147,378.806 824.277,377.879 830.497,377.879C836.717,377.879 841.501,378.213 848.663,377.879C855.824,377.546 869.726,377.546 869.726,377.546L868.379,383.779C868.379,383.779 848.183,383.547 843.69,383.779C839.196,384.011 834.064,384.127 828.41,384.358C822.756,384.59 802.707,384.59 802.707,384.59L801.518,378.444Z" style="fill:url(#_Radial5);"/>
                        </g>
                        <g transform="matrix(6.5879e-16,2.3256,-1.8781,5.32022e-16,1744.14,-1383.31)">
                            <path d="M804.491,392.753C804.491,392.753 818.264,391.709 823.975,391.709C829.686,391.709 832.57,393.319 838.37,392.739C844.169,392.158 861.551,391.81 861.551,391.81L870.945,391.81C873.264,391.81 873.38,396.638 873.38,396.638C873.38,396.638 867.945,398.013 862.044,398.362C856.143,398.711 847.285,399.06 842.357,398.711C837.428,398.362 833.471,398.362 828.397,398.362C823.323,398.362 805.23,398.595 805.23,398.595L804.491,392.753Z" style="fill:url(#_Radial6);"/>
                        </g>
                    </g>
                </g>
            </g>
        </g>
    </g>
    <defs>
        <radialGradient id="_Radial1" cx="0" cy="0" r="1" gradientUnits="userSpaceOnUse" gradientTransform="matrix(0,114.336,-89.4863,0,2653.58,1317.92)"><stop offset="0" style="stop-color:rgb(153,233,242);stop-opacity:1"/><stop offset="0.7" style="stop-color:rgb(82,224,243);stop-opacity:1"/><stop offset="1" style="stop-color:rgb(94,194,240);stop-opacity:1"/></radialGradient>
        <radialGradient id="_Radial3" cx="0" cy="0" r="1" gradientUnits="userSpaceOnUse" gradientTransform="matrix(38.8133,1.22007e-14,-7.94865e-15,50.6776,838.267,380.096)"><stop offset="0" style="stop-color:white;stop-opacity:1"/><stop offset="0.6" style="stop-color:rgb(236,250,254);stop-opacity:1"/><stop offset="0.81" style="stop-color:rgb(193,239,251);stop-opacity:1"/><stop offset="1" style="stop-color:rgb(150,227,247);stop-opacity:1"/></radialGradient>
        <radialGradient id="_Radial4" cx="0" cy="0" r="1" gradientUnits="userSpaceOnUse" gradientTransform="matrix(38.8133,8.30879e-15,-7.94865e-15,34.512,835.099,368.895)"><stop offset="0" style="stop-color:white;stop-opacity:1"/><stop offset="0.6" style="stop-color:rgb(236,250,254);stop-opacity:1"/><stop offset="0.81" style="stop-color:rgb(193,239,251);stop-opacity:1"/><stop offset="1" style="stop-color:rgb(150,227,247);stop-opacity:1"/></radialGradient>
        <radialGradient id="_Radial5" cx="0" cy="0" r="1" gradientUnits="userSpaceOnUse" gradientTransform="matrix(31.2532,7.05691e-15,-6.40039e-15,29.3121,835.622,372.718)"><stop offset="0" style="stop-color:white;stop-opacity:1"/><stop offset="0.6" style="stop-color:rgb(236,250,254);stop-opacity:1"/><stop offset="0.81" style="stop-color:rgb(193,239,251);stop-opacity:1"/><stop offset="1" style="stop-color:rgb(150,227,247);stop-opacity:1"/></radialGradient>
        <radialGradient id="_Radial6" cx="0" cy="0" r="1" gradientUnits="userSpaceOnUse" gradientTransform="matrix(32.5542,8.95085e-15,-6.66682e-15,37.1788,838.935,367.928)"><stop offset="0" style="stop-color:white;stop-opacity:1"/><stop offset="0.6" style="stop-color:rgb(236,250,254);stop-opacity:1"/><stop offset="0.81" style="stop-color:rgb(193,239,251);stop-opacity:1"/><stop offset="1" style="stop-color:rgb(150,227,247);stop-opacity:1"/></radialGradient>
    </defs>
</svg>
