<?xml version="1.0" encoding="UTF-8" standalone="no"?>
<!DOCTYPE svg PUBLIC "-//W3C//DTD SVG 1.1//EN" "http://www.w3.org/Graphics/SVG/1.1/DTD/svg11.dtd">
<svg width="100%" height="100%" viewBox="0 0 512 512" version="1.1" xmlns="http://www.w3.org/2000/svg" xmlns:xlink="http://www.w3.org/1999/xlink" xml:space="preserve" xmlns:serif="http://www.serif.com/" style="fill-rule:evenodd;clip-rule:evenodd;stroke-linejoin:round;stroke-miterlimit:1.41421;">
    <g transform="matrix(3.10086,0,0,3.10086,-5393.01,-1045.72)">
        <g id="Fox---Lines-Vertical" serif:id="Fox - Lines Vertical">
            <g id="Outline">
                <g transform="matrix(1.14434,-0.12289,0.12289,1.14434,-284.75,-384.937)">
                    <path d="M1768.57,853.398C1768.57,853.398 1801.69,828.545 1809.72,829.935C1817.75,831.326 1814.15,879.862 1801.28,887.662C1788.41,895.461 1768.57,853.398 1768.57,853.398Z" style="fill:none;stroke:rgb(199,86,103);stroke-width:5.57px;"/>
                </g>
                <g transform="matrix(-1.14434,-0.12289,-0.12289,1.14434,3928.26,-384.872)">
                    <path d="M1771.52,851.715C1771.52,851.715 1801.69,828.545 1809.72,829.935C1817.75,831.326 1814.15,879.862 1801.28,887.662C1788.41,895.461 1771.52,851.715 1771.52,851.715Z" style="fill:none;stroke:rgb(199,86,103);stroke-width:5.57px;"/>
                </g>
                <g transform="matrix(1.99097,0,0,2.05286,1595.1,-120.711)">
                    <path d="M113.841,237.749C172.005,237.749 150.787,299.064 113.841,299.064C76.895,299.064 55.677,237.749 113.841,237.749Z" style="fill:none;stroke:rgb(199,86,103);stroke-width:3.17px;"/>
                </g>
                <g transform="matrix(0.996197,0,0,0.996197,1647.03,-118.544)">
                    <path d="M175.556,592.804C187.483,582.899 213.578,563.681 242.275,566.202C239.533,573.923 236.147,580.804 231.707,586.832L244.791,585.34C239.029,592.809 228.574,599.128 215.223,603.403C202.611,612.81 188.844,618.096 175.556,618.096C162.268,618.096 148.5,612.81 135.888,603.403C122.538,599.128 112.083,592.809 106.32,585.34L119.405,586.832C114.964,580.804 111.258,573.923 108.517,566.202C137.213,563.681 163.628,582.899 175.556,592.804Z" style="fill:none;stroke:rgb(199,86,103);stroke-width:6.44px;"/>
                </g>
            </g>
            <g transform="matrix(0.936156,0,0,0.936156,1657.4,-81.3736)">
                <path d="M204.252,482.238C214.731,472.856 238.775,452.169 246.514,452.669C255.085,453.222 257.76,497.233 249.087,516.869C252.513,526.14 253.132,536.348 251.419,546.557C250.502,552.022 248.916,557.488 246.734,562.81L246.735,562.81C243.817,571.026 240.214,578.349 235.489,584.763L249.412,583.175C243.28,591.123 232.155,597.847 217.948,602.396C204.527,612.407 189.877,618.032 175.737,618.032C161.597,618.032 146.946,612.407 133.525,602.396C119.318,597.847 108.193,591.123 102.061,583.175L115.984,584.763C111.259,578.349 107.315,571.026 104.398,562.81L104.399,562.81C98.147,547.561 96.788,531.125 102.032,516.907C93.375,497.262 96.052,453.292 104.619,452.739C113.099,452.191 138.719,475.322 146.312,482.368C154.777,480.406 164.495,479.329 175.566,479.329C186.39,479.329 195.921,480.358 204.252,482.238Z" style="fill:url(#_Radial1);"/>
                <clipPath id="_clip2">
                    <path d="M204.252,482.238C214.731,472.856 238.775,452.169 246.514,452.669C255.085,453.222 257.76,497.233 249.087,516.869C252.513,526.14 253.132,536.348 251.419,546.557C250.502,552.022 248.916,557.488 246.734,562.81L246.735,562.81C243.817,571.026 240.214,578.349 235.489,584.763L249.412,583.175C243.28,591.123 232.155,597.847 217.948,602.396C204.527,612.407 189.877,618.032 175.737,618.032C161.597,618.032 146.946,612.407 133.525,602.396C119.318,597.847 108.193,591.123 102.061,583.175L115.984,584.763C111.259,578.349 107.315,571.026 104.398,562.81L104.399,562.81C98.147,547.561 96.788,531.125 102.032,516.907C93.375,497.262 96.052,453.292 104.619,452.739C113.099,452.191 138.719,475.322 146.312,482.368C154.777,480.406 164.495,479.329 175.566,479.329C186.39,479.329 195.921,480.358 204.252,482.238Z"/>
                </clipPath>
                <g clip-path="url(#_clip2)">
                    <g id="Vertical" transform="matrix(1.0682,0,0,1.0682,-949.665,-71.0892)">
                        <g transform="matrix(5.52551e-16,1.95057,-1.37784,3.90309e-16,1576.85,-1067.38)">
                            <path d="M799.155,338.606C799.155,338.606 819.22,338.954 825.453,338.606C831.686,338.258 833.818,338.954 839.573,338.954C845.328,338.954 866.031,338.069 869.22,338.055C872.409,338.041 878.062,337.939 878.062,337.939L879.091,347.885C879.091,347.885 862.986,347.537 856.505,347.537C850.025,347.537 843.661,348.913 835.557,348.913C827.453,348.913 824.7,347.87 816.001,348.218C807.302,348.566 797.444,348.566 797.444,348.566L799.155,338.606Z" style="fill:url(#_Radial3);"/>
                        </g>
                        <g transform="matrix(5.52551e-16,1.95057,-2.02322,5.73133e-16,1799.49,-1061.2)">
                            <path d="M792.906,357.83C792.906,357.83 808.202,357.698 813.754,357.698C819.306,357.698 829.207,356.64 835.078,356.64C840.949,356.64 856.867,355.756 861.23,355.756C865.594,355.756 876.945,356.105 876.945,356.105L877.293,366.15C877.293,366.15 866.42,364.76 860.767,365.107C855.113,365.455 850.922,365.455 846.428,365.455C841.935,365.455 835.876,364.425 829.308,364.758C822.741,365.092 818.159,364.745 813.23,365.441C808.302,366.136 792.92,366.483 792.92,366.483L792.906,357.83Z" style="fill:url(#_Radial4);"/>
                        </g>
                        <g transform="matrix(6.86213e-16,2.42241,-2.38214,6.74805e-16,1941,-1456.5)">
                            <path d="M801.518,378.444C801.518,378.444 811.275,380.168 816.711,379.487C822.147,378.806 824.277,377.879 830.497,377.879C836.717,377.879 841.501,378.213 848.663,377.879C855.824,377.546 869.726,377.546 869.726,377.546L868.379,383.779C868.379,383.779 848.183,383.547 843.69,383.779C839.196,384.011 834.064,384.127 828.41,384.358C822.756,384.59 802.707,384.59 802.707,384.59L801.518,378.444Z" style="fill:url(#_Radial5);"/>
                        </g>
                        <g transform="matrix(6.5879e-16,2.3256,-1.8781,5.32022e-16,1744.14,-1383.31)">
                            <path d="M804.491,392.753C804.491,392.753 818.264,391.709 823.975,391.709C829.686,391.709 832.57,393.319 838.37,392.739C844.169,392.158 861.551,391.81 861.551,391.81L870.945,391.81C873.264,391.81 873.38,396.638 873.38,396.638C873.38,396.638 867.945,398.013 862.044,398.362C856.143,398.711 847.285,399.06 842.357,398.711C837.428,398.362 833.471,398.362 828.397,398.362C823.323,398.362 805.23,398.595 805.23,398.595L804.491,392.753Z" style="fill:url(#_Radial6);"/>
                        </g>
                    </g>
                </g>
            </g>
        </g>
    </g>
    <defs>
        <radialGradient id="_Radial1" cx="0" cy="0" r="1" gradientUnits="userSpaceOnUse" gradientTransform="matrix(-71.4103,73.6084,-61.4639,-85.5201,175.673,485.985)"><stop offset="0" style="stop-color:rgb(255,99,122);stop-opacity:1"/><stop offset="0.47" style="stop-color:rgb(247,70,97);stop-opacity:1"/><stop offset="0.85" style="stop-color:rgb(244,58,86);stop-opacity:1"/><stop offset="1" style="stop-color:rgb(241,108,128);stop-opacity:1"/></radialGradient>
        <radialGradient id="_Radial3" cx="0" cy="0" r="1" gradientUnits="userSpaceOnUse" gradientTransform="matrix(1.07587e-14,-53.7664,37.9794,1.52308e-14,835.631,381.074)"><stop offset="0" style="stop-color:white;stop-opacity:1"/><stop offset="0.6" style="stop-color:rgb(255,236,239);stop-opacity:1"/><stop offset="0.81" style="stop-color:rgb(255,194,203);stop-opacity:1"/><stop offset="1" style="stop-color:rgb(255,151,167);stop-opacity:1"/></radialGradient>
        <radialGradient id="_Radial4" cx="0" cy="0" r="1" gradientUnits="userSpaceOnUse" gradientTransform="matrix(1.07587e-14,-36.6154,37.9794,1.03723e-14,832.463,369.561)"><stop offset="0" style="stop-color:white;stop-opacity:1"/><stop offset="0.6" style="stop-color:rgb(255,236,239);stop-opacity:1"/><stop offset="0.81" style="stop-color:rgb(255,194,203);stop-opacity:1"/><stop offset="1" style="stop-color:rgb(255,151,167);stop-opacity:1"/></radialGradient>
        <radialGradient id="_Radial5" cx="0" cy="0" r="1" gradientUnits="userSpaceOnUse" gradientTransform="matrix(8.66308e-15,-31.0986,30.5816,8.80952e-15,833.499,373.284)"><stop offset="0" style="stop-color:white;stop-opacity:1"/><stop offset="0.6" style="stop-color:rgb(255,236,239);stop-opacity:1"/><stop offset="0.81" style="stop-color:rgb(255,194,203);stop-opacity:1"/><stop offset="1" style="stop-color:rgb(255,151,167);stop-opacity:1"/></radialGradient>
        <radialGradient id="_Radial6" cx="0" cy="0" r="1" gradientUnits="userSpaceOnUse" gradientTransform="matrix(9.02369e-15,-39.4449,31.8547,1.11738e-14,836.724,368.646)"><stop offset="0" style="stop-color:white;stop-opacity:1"/><stop offset="0.6" style="stop-color:rgb(255,236,239);stop-opacity:1"/><stop offset="0.81" style="stop-color:rgb(255,194,203);stop-opacity:1"/><stop offset="1" style="stop-color:rgb(255,151,167);stop-opacity:1"/></radialGradient>
    </defs>
</svg>
