<?xml version="1.0" encoding="UTF-8" standalone="no"?>
<!DOCTYPE svg PUBLIC "-//W3C//DTD SVG 1.1//EN" "http://www.w3.org/Graphics/SVG/1.1/DTD/svg11.dtd">
<svg width="100%" height="100%" viewBox="0 0 512 512" version="1.1" xmlns="http://www.w3.org/2000/svg" xmlns:xlink="http://www.w3.org/1999/xlink" xml:space="preserve" xmlns:serif="http://www.serif.com/" style="fill-rule:evenodd;clip-rule:evenodd;stroke-linejoin:round;stroke-miterlimit:1.41421;">
    <g transform="matrix(3.10086,0,0,3.10086,-3964.33,-2205.23)">
        <g id="Frog---Lines-Horizontal" serif:id="Frog - Lines Horizontal">
            <g id="Outline">
                <g transform="matrix(0.936156,0,0,0.936156,-1116.04,-845.209)">
                    <circle cx="2612.37" cy="1697.38" r="25.042" style="fill:none;stroke:rgb(42,129,52);stroke-width:6.85px;"/>
                </g>
                <g transform="matrix(0.936156,0,0,0.936156,-1053.08,-845.209)">
                    <circle cx="2612.37" cy="1697.38" r="25.042" style="fill:none;stroke:rgb(42,129,52);stroke-width:6.85px;"/>
                </g>
                <g transform="matrix(1.13447,0,0,1.0324,-226.479,244.833)">
                    <path d="M1399.33,482.321C1444.69,482.321 1462.78,515.252 1462.78,546.648C1462.78,578.043 1434.35,602.73 1399.33,602.73C1364.31,602.73 1335.88,578.043 1335.88,546.648C1335.88,515.252 1353.97,482.321 1399.33,482.321Z" style="fill:none;stroke:rgb(42,129,52);stroke-width:5.91px;"/>
                </g>
            </g>
            <g transform="matrix(0.936156,0,0,0.936156,-1123.92,-845.209)">
                <path d="M2663.01,1696.6C2663.42,1683.14 2674.48,1672.34 2688.04,1672.34C2701.86,1672.34 2713.08,1683.56 2713.08,1697.38C2713.08,1703.34 2710.99,1708.81 2707.51,1713.11C2724.08,1726.91 2731.3,1747.35 2731.3,1767.23C2731.3,1801.85 2696.85,1829.08 2654.41,1829.08C2611.97,1829.08 2577.52,1801.85 2577.52,1767.23C2577.52,1747.35 2584.75,1726.91 2601.3,1713.11C2597.83,1708.81 2595.74,1703.34 2595.74,1697.38C2595.74,1683.56 2606.96,1672.34 2620.78,1672.34C2634.34,1672.34 2645.4,1683.14 2645.81,1696.6C2648.58,1696.39 2651.45,1696.29 2654.41,1696.29C2657.37,1696.29 2660.24,1696.39 2663.01,1696.6Z" style="fill:url(#_Radial1);"/>
                <clipPath id="_clip2">
                    <path d="M2663.01,1696.6C2663.42,1683.14 2674.48,1672.34 2688.04,1672.34C2701.86,1672.34 2713.08,1683.56 2713.08,1697.38C2713.08,1703.34 2710.99,1708.81 2707.51,1713.11C2724.08,1726.91 2731.3,1747.35 2731.3,1767.23C2731.3,1801.85 2696.85,1829.08 2654.41,1829.08C2611.97,1829.08 2577.52,1801.85 2577.52,1767.23C2577.52,1747.35 2584.75,1726.91 2601.3,1713.11C2597.83,1708.81 2595.74,1703.34 2595.74,1697.38C2595.74,1683.56 2606.96,1672.34 2620.78,1672.34C2634.34,1672.34 2645.4,1683.14 2645.81,1696.6C2648.58,1696.39 2651.45,1696.29 2654.41,1696.29C2657.37,1696.29 2660.24,1696.39 2663.01,1696.6Z"/>
                </clipPath>
                <g clip-path="url(#_clip2)">
                    <g id="Horizontal" transform="matrix(1.0682,0,0,1.0682,1499.45,1144.27)">
                        <g transform="matrix(1.95057,0,0,1.32836,-554.241,62.8157)">
                            <path d="M799.155,338.606C799.155,338.606 819.22,338.954 825.453,338.606C831.686,338.258 833.818,338.954 839.573,338.954C845.328,338.954 866.031,338.069 869.22,338.055C872.409,338.041 878.062,337.939 878.062,337.939L879.091,347.885C879.091,347.885 862.986,347.537 856.505,347.537C850.025,347.537 843.661,348.913 835.557,348.913C827.453,348.913 824.7,347.87 816.001,348.218C807.302,348.566 797.444,348.566 797.444,348.566L799.155,338.606Z" style="fill:url(#_Radial3);"/>
                        </g>
                        <g transform="matrix(1.95057,0,0,1.95057,-548.062,-151.837)">
                            <path d="M792.906,357.83C792.906,357.83 808.202,357.698 813.754,357.698C819.306,357.698 829.207,356.64 835.078,356.64C840.949,356.64 856.867,355.756 861.23,355.756C865.594,355.756 876.945,356.105 876.945,356.105L877.293,366.15C877.293,366.15 866.42,364.76 860.767,365.107C855.113,365.455 850.922,365.455 846.428,365.455C841.935,365.455 835.876,364.425 829.308,364.758C822.741,365.092 818.159,364.745 813.23,365.441C808.302,366.136 792.92,366.483 792.92,366.483L792.906,357.83Z" style="fill:url(#_Radial4);"/>
                        </g>
                        <g transform="matrix(2.42241,0,0,2.29659,-943.364,-288.263)">
                            <path d="M801.518,378.444C801.518,378.444 811.275,380.168 816.711,379.487C822.147,378.806 824.277,377.879 830.497,377.879C836.717,377.879 841.501,378.213 848.663,377.879C855.824,377.546 869.726,377.546 869.726,377.546L868.379,383.779C868.379,383.779 848.183,383.547 843.69,383.779C839.196,384.011 834.064,384.127 828.41,384.358C822.756,384.59 802.707,384.59 802.707,384.59L801.518,378.444Z" style="fill:url(#_Radial5);"/>
                        </g>
                        <g transform="matrix(2.3256,0,0,1.81065,-870.175,-98.4719)">
                            <path d="M804.491,392.753C804.491,392.753 818.264,391.709 823.975,391.709C829.686,391.709 832.57,393.319 838.37,392.739C844.169,392.158 861.551,391.81 861.551,391.81L870.945,391.81C873.264,391.81 873.38,396.638 873.38,396.638C873.38,396.638 867.945,398.013 862.044,398.362C856.143,398.711 847.285,399.06 842.357,398.711C837.428,398.362 833.471,398.362 828.397,398.362C823.323,398.362 805.23,398.595 805.23,398.595L804.491,392.753Z" style="fill:url(#_Radial6);"/>
                        </g>
                    </g>
                </g>
            </g>
        </g>
    </g>
    <defs>
        <radialGradient id="_Radial1" cx="0" cy="0" r="1" gradientUnits="userSpaceOnUse" gradientTransform="matrix(7.26992e-15,131.644,-165.237,1.12187e-14,2656.71,1697.41)"><stop offset="0" style="stop-color:rgb(169,227,75);stop-opacity:1"/><stop offset="0.52" style="stop-color:rgb(58,190,80);stop-opacity:1"/><stop offset="0.91" style="stop-color:rgb(6,145,52);stop-opacity:1"/><stop offset="1" style="stop-color:rgb(52,171,72);stop-opacity:1"/></radialGradient>
        <radialGradient id="_Radial3" cx="0" cy="0" r="1" gradientUnits="userSpaceOnUse" gradientTransform="matrix(2.37663e-15,56.9938,-35.7975,3.2187e-15,838.267,380.096)"><stop offset="0" style="stop-color:white;stop-opacity:1"/><stop offset="0.6" style="stop-color:rgb(234,249,234);stop-opacity:1"/><stop offset="0.81" style="stop-color:rgb(188,235,185);stop-opacity:1"/><stop offset="1" style="stop-color:rgb(141,221,136);stop-opacity:1"/></radialGradient>
        <radialGradient id="_Radial4" cx="0" cy="0" r="1" gradientUnits="userSpaceOnUse" gradientTransform="matrix(2.37663e-15,38.8133,-35.7975,2.19197e-15,835.099,368.895)"><stop offset="0" style="stop-color:white;stop-opacity:1"/><stop offset="0.6" style="stop-color:rgb(234,249,234);stop-opacity:1"/><stop offset="0.81" style="stop-color:rgb(188,235,185);stop-opacity:1"/><stop offset="1" style="stop-color:rgb(141,221,136);stop-opacity:1"/></radialGradient>
        <radialGradient id="_Radial5" cx="0" cy="0" r="1" gradientUnits="userSpaceOnUse" gradientTransform="matrix(1.91371e-15,32.9654,-28.8248,1.8617e-15,835.622,372.718)"><stop offset="0" style="stop-color:white;stop-opacity:1"/><stop offset="0.6" style="stop-color:rgb(234,249,234);stop-opacity:1"/><stop offset="0.81" style="stop-color:rgb(188,235,185);stop-opacity:1"/><stop offset="1" style="stop-color:rgb(141,221,136);stop-opacity:1"/></radialGradient>
        <radialGradient id="_Radial6" cx="0" cy="0" r="1" gradientUnits="userSpaceOnUse" gradientTransform="matrix(1.99337e-15,41.8126,-30.0247,2.36135e-15,838.935,367.928)"><stop offset="0" style="stop-color:white;stop-opacity:1"/><stop offset="0.6" style="stop-color:rgb(234,249,234);stop-opacity:1"/><stop offset="0.81" style="stop-color:rgb(188,235,185);stop-opacity:1"/><stop offset="1" style="stop-color:rgb(141,221,136);stop-opacity:1"/></radialGradient>
    </defs>
</svg>
