<?xml version="1.0" encoding="UTF-8" standalone="no"?>
<!DOCTYPE svg PUBLIC "-//W3C//DTD SVG 1.1//EN" "http://www.w3.org/Graphics/SVG/1.1/DTD/svg11.dtd">
<svg width="100%" height="100%" viewBox="0 0 512 512" version="1.1" xmlns="http://www.w3.org/2000/svg" xmlns:xlink="http://www.w3.org/1999/xlink" xml:space="preserve" xmlns:serif="http://www.serif.com/" style="fill-rule:evenodd;clip-rule:evenodd;stroke-linejoin:round;stroke-miterlimit:1.41421;">
    <g transform="matrix(3.10086,0,0,3.10086,-868.48,-172.147)">
        <g id="Giraffe---Lines-Vertical" serif:id="Giraffe - Lines Vertical">
            <g id="Outline">
                <g transform="matrix(-0.986397,-0.911988,-0.874793,0.946167,1886.22,1323.85)">
                    <ellipse cx="1426.56" cy="79.747" rx="14.523" ry="22.133" style="fill:none;stroke:rgb(154,105,59);stroke-width:4.87px;"/>
                </g>
                <g transform="matrix(0.986397,-0.911988,0.874793,0.946167,-1160.95,1323.85)">
                    <ellipse cx="1426.56" cy="79.747" rx="14.523" ry="22.133" style="fill:none;stroke:rgb(154,105,59);stroke-width:4.87px;"/>
                </g>
                <g transform="matrix(1.14698,0,0,1.12626,-1242.36,-462.323)">
                    <path d="M1399.33,482.321C1444.69,482.321 1462.78,517.793 1462.78,549.189C1462.78,580.584 1434.35,596.091 1399.33,596.091C1364.31,596.091 1335.88,580.584 1335.88,549.189C1335.88,517.793 1353.97,482.321 1399.33,482.321Z" style="fill:none;stroke:rgb(154,105,59);stroke-width:5.64px;"/>
                </g>
                <g transform="matrix(1.23512,0,0,1.23512,-1273.59,-191.636)">
                    <path d="M1309.07,224.177C1307.76,220.879 1306.7,207.085 1311.62,205.876C1316.37,204.708 1320.82,216.677 1320.82,222.423C1320.82,225.483 1310.38,227.475 1309.07,224.177Z" style="fill:none;stroke:rgb(154,105,59);stroke-width:5.19px;stroke-linecap:round;stroke-miterlimit:1.5;"/>
                </g>
                <g transform="matrix(-1.23512,0,0,1.23512,1998.86,-191.636)">
                    <path d="M1309.07,224.177C1307.76,220.879 1306.7,207.085 1311.62,205.876C1316.37,204.708 1320.82,216.677 1320.82,222.423C1320.82,225.483 1310.38,227.475 1309.07,224.177Z" style="fill:none;stroke:rgb(154,105,59);stroke-width:5.19px;stroke-linecap:round;stroke-miterlimit:1.5;"/>
                </g>
                <g transform="matrix(1.06128,0,0,0.810974,-1124.6,-621.767)">
                    <ellipse cx="1401.36" cy="996.422" rx="55.238" ry="33.658" style="fill:none;stroke:rgb(154,105,59);stroke-width:6.79px;stroke-linecap:round;stroke-miterlimit:1.5;"/>
                </g>
            </g>
            <g transform="matrix(0.936156,0,0,0.936156,-952.466,-927.079)">
                <path d="M1410.12,1076.85C1411.03,1068.8 1416.41,1055.82 1422.12,1057.22C1427.78,1058.61 1427.44,1072.62 1426.11,1079.08C1430.27,1080.06 1434.18,1081.33 1437.84,1082.86C1438.32,1082.28 1438.81,1081.72 1439.33,1081.16C1450.74,1068.81 1466.87,1065.13 1475.31,1072.94C1483.76,1080.75 1481.35,1097.11 1469.93,1109.45C1469.81,1109.59 1469.69,1109.72 1469.56,1109.85C1478.5,1124.05 1482.53,1141.06 1482.53,1157.16C1482.53,1172.81 1476.55,1185.18 1466.5,1194.3C1461.41,1208.02 1435.7,1218.47 1404.79,1218.47C1373.88,1218.47 1348.17,1208.02 1343.08,1194.3C1333.03,1185.18 1327.05,1172.81 1327.05,1157.16C1327.05,1141.06 1331.08,1124.05 1340.02,1109.85C1339.89,1109.72 1339.77,1109.59 1339.64,1109.45C1328.23,1097.11 1325.82,1080.75 1334.26,1072.94C1342.71,1065.13 1358.83,1068.81 1370.25,1081.16C1370.76,1081.72 1371.26,1082.28 1371.74,1082.86C1375.4,1081.33 1379.3,1080.06 1383.46,1079.08C1382.14,1072.62 1381.8,1058.61 1387.45,1057.22C1393.17,1055.82 1398.55,1068.8 1399.46,1076.85C1401.2,1076.76 1402.98,1076.72 1404.79,1076.72C1406.6,1076.72 1408.38,1076.76 1410.12,1076.85Z" style="fill:url(#_Radial1);"/>
                <clipPath id="_clip2">
                    <path d="M1410.12,1076.85C1411.03,1068.8 1416.41,1055.82 1422.12,1057.22C1427.78,1058.61 1427.44,1072.62 1426.11,1079.08C1430.27,1080.06 1434.18,1081.33 1437.84,1082.86C1438.32,1082.28 1438.81,1081.72 1439.33,1081.16C1450.74,1068.81 1466.87,1065.13 1475.31,1072.94C1483.76,1080.75 1481.35,1097.11 1469.93,1109.45C1469.81,1109.59 1469.69,1109.72 1469.56,1109.85C1478.5,1124.05 1482.53,1141.06 1482.53,1157.16C1482.53,1172.81 1476.55,1185.18 1466.5,1194.3C1461.41,1208.02 1435.7,1218.47 1404.79,1218.47C1373.88,1218.47 1348.17,1208.02 1343.08,1194.3C1333.03,1185.18 1327.05,1172.81 1327.05,1157.16C1327.05,1141.06 1331.08,1124.05 1340.02,1109.85C1339.89,1109.72 1339.77,1109.59 1339.64,1109.45C1328.23,1097.11 1325.82,1080.75 1334.26,1072.94C1342.71,1065.13 1358.83,1068.81 1370.25,1081.16C1370.76,1081.72 1371.26,1082.28 1371.74,1082.86C1375.4,1081.33 1379.3,1080.06 1383.46,1079.08C1382.14,1072.62 1381.8,1058.61 1387.45,1057.22C1393.17,1055.82 1398.55,1068.8 1399.46,1076.85C1401.2,1076.76 1402.98,1076.72 1404.79,1076.72C1406.6,1076.72 1408.38,1076.76 1410.12,1076.85Z"/>
                </clipPath>
                <g clip-path="url(#_clip2)">
                    <g id="Vertical" transform="matrix(1.0682,0,0,1.0682,279.83,531.359)">
                        <g transform="matrix(5.52551e-16,1.95057,-1.37784,3.90309e-16,1576.85,-1067.38)">
                            <path d="M799.155,338.606C799.155,338.606 819.22,338.954 825.453,338.606C831.686,338.258 833.818,338.954 839.573,338.954C845.328,338.954 866.031,338.069 869.22,338.055C872.409,338.041 878.062,337.939 878.062,337.939L879.091,347.885C879.091,347.885 862.986,347.537 856.505,347.537C850.025,347.537 843.661,348.913 835.557,348.913C827.453,348.913 824.7,347.87 816.001,348.218C807.302,348.566 797.444,348.566 797.444,348.566L799.155,338.606Z" style="fill:url(#_Radial3);"/>
                        </g>
                        <g transform="matrix(5.52551e-16,1.95057,-2.02322,5.73133e-16,1799.49,-1061.2)">
                            <path d="M792.906,357.83C792.906,357.83 808.202,357.698 813.754,357.698C819.306,357.698 829.207,356.64 835.078,356.64C840.949,356.64 856.867,355.756 861.23,355.756C865.594,355.756 876.945,356.105 876.945,356.105L877.293,366.15C877.293,366.15 866.42,364.76 860.767,365.107C855.113,365.455 850.922,365.455 846.428,365.455C841.935,365.455 835.876,364.425 829.308,364.758C822.741,365.092 818.159,364.745 813.23,365.441C808.302,366.136 792.92,366.483 792.92,366.483L792.906,357.83Z" style="fill:url(#_Radial4);"/>
                        </g>
                        <g transform="matrix(6.86213e-16,2.42241,-2.38214,6.74805e-16,1941,-1456.5)">
                            <path d="M801.518,378.444C801.518,378.444 811.275,380.168 816.711,379.487C822.147,378.806 824.277,377.879 830.497,377.879C836.717,377.879 841.501,378.213 848.663,377.879C855.824,377.546 869.726,377.546 869.726,377.546L868.379,383.779C868.379,383.779 848.183,383.547 843.69,383.779C839.196,384.011 834.064,384.127 828.41,384.358C822.756,384.59 802.707,384.59 802.707,384.59L801.518,378.444Z" style="fill:url(#_Radial5);"/>
                        </g>
                        <g transform="matrix(6.5879e-16,2.3256,-1.8781,5.32022e-16,1744.14,-1383.31)">
                            <path d="M804.491,392.753C804.491,392.753 818.264,391.709 823.975,391.709C829.686,391.709 832.57,393.319 838.37,392.739C844.169,392.158 861.551,391.81 861.551,391.81L870.945,391.81C873.264,391.81 873.38,396.638 873.38,396.638C873.38,396.638 867.945,398.013 862.044,398.362C856.143,398.711 847.285,399.06 842.357,398.711C837.428,398.362 833.471,398.362 828.397,398.362C823.323,398.362 805.23,398.595 805.23,398.595L804.491,392.753Z" style="fill:url(#_Radial6);"/>
                        </g>
                    </g>
                </g>
            </g>
        </g>
    </g>
    <defs>
        <radialGradient id="_Radial1" cx="0" cy="0" r="1" gradientUnits="userSpaceOnUse" gradientTransform="matrix(6.96085e-15,134.013,-113.679,8.2059e-15,1407.12,1084.44)"><stop offset="0" style="stop-color:rgb(255,231,170);stop-opacity:1"/><stop offset="0.46" style="stop-color:rgb(255,216,117);stop-opacity:1"/><stop offset="1" style="stop-color:rgb(250,163,69);stop-opacity:1"/></radialGradient>
        <radialGradient id="_Radial3" cx="0" cy="0" r="1" gradientUnits="userSpaceOnUse" gradientTransform="matrix(38.8133,1.22007e-14,-7.94865e-15,50.6776,838.267,380.096)"><stop offset="0" style="stop-color:white;stop-opacity:1"/><stop offset="0.6" style="stop-color:rgb(253,250,239);stop-opacity:1"/><stop offset="0.81" style="stop-color:rgb(250,239,202);stop-opacity:1"/><stop offset="1" style="stop-color:rgb(246,228,164);stop-opacity:1"/></radialGradient>
        <radialGradient id="_Radial4" cx="0" cy="0" r="1" gradientUnits="userSpaceOnUse" gradientTransform="matrix(38.8133,8.30879e-15,-7.94865e-15,34.512,835.099,368.895)"><stop offset="0" style="stop-color:white;stop-opacity:1"/><stop offset="0.6" style="stop-color:rgb(253,250,239);stop-opacity:1"/><stop offset="0.81" style="stop-color:rgb(250,239,202);stop-opacity:1"/><stop offset="1" style="stop-color:rgb(246,228,164);stop-opacity:1"/></radialGradient>
        <radialGradient id="_Radial5" cx="0" cy="0" r="1" gradientUnits="userSpaceOnUse" gradientTransform="matrix(31.2532,7.05691e-15,-6.40039e-15,29.3121,835.622,372.718)"><stop offset="0" style="stop-color:white;stop-opacity:1"/><stop offset="0.6" style="stop-color:rgb(253,250,239);stop-opacity:1"/><stop offset="0.81" style="stop-color:rgb(250,239,202);stop-opacity:1"/><stop offset="1" style="stop-color:rgb(246,228,164);stop-opacity:1"/></radialGradient>
        <radialGradient id="_Radial6" cx="0" cy="0" r="1" gradientUnits="userSpaceOnUse" gradientTransform="matrix(32.5542,8.95085e-15,-6.66682e-15,37.1788,838.935,367.928)"><stop offset="0" style="stop-color:white;stop-opacity:1"/><stop offset="0.6" style="stop-color:rgb(253,250,239);stop-opacity:1"/><stop offset="0.81" style="stop-color:rgb(250,239,202);stop-opacity:1"/><stop offset="1" style="stop-color:rgb(246,228,164);stop-opacity:1"/></radialGradient>
    </defs>
</svg>
