<?xml version="1.0" encoding="UTF-8" standalone="no"?>
<!DOCTYPE svg PUBLIC "-//W3C//DTD SVG 1.1//EN" "http://www.w3.org/Graphics/SVG/1.1/DTD/svg11.dtd">
<svg width="100%" height="100%" viewBox="0 0 512 512" version="1.1" xmlns="http://www.w3.org/2000/svg" xmlns:xlink="http://www.w3.org/1999/xlink" xml:space="preserve" xmlns:serif="http://www.serif.com/" style="fill-rule:evenodd;clip-rule:evenodd;stroke-linejoin:round;stroke-miterlimit:1.41421;">
    <g transform="matrix(3.10086,0,0,3.10086,-560.711,-1690.66)">
        <g id="Koala---Lines-Vertical" serif:id="Koala - Lines Vertical">
            <g id="Outline">
                <g transform="matrix(1.17364,0,0,1.17364,-583.204,474.648)">
                    <path d="M737.107,77.886C738.708,75.574 742.829,70.933 752.404,65.969C751.595,67.276 751.217,68.491 751.052,69.469C752.935,69.037 754.894,68.809 756.907,68.809C762.603,68.809 767.876,70.635 772.173,73.732C774.068,74.798 782.061,79.809 787.055,90.993C785.734,90.075 783.981,89.523 782.415,89.192C782.833,91.047 783.053,92.976 783.053,94.955C783.053,95.008 783.053,95.06 783.053,95.112C783.089,97.408 783.082,105.833 781.189,110.516C781.194,109.246 780.673,108.163 779.967,107.281C775.559,115.504 766.882,121.102 756.907,121.102C742.477,121.102 730.761,109.386 730.761,94.955C730.761,88.435 733.153,82.468 737.107,77.886Z" style="fill:none;stroke:rgb(100,109,119);stroke-width:5.46px;"/>
                </g>
                <g transform="matrix(1.17364,0,0,1.17364,-591.184,476.066)">
                    <path d="M698.409,68.261C698.244,67.284 697.866,66.068 697.057,64.762C706.632,69.725 710.753,74.367 712.354,76.679C716.308,81.26 718.7,87.227 718.7,93.748C718.7,108.178 706.984,119.894 692.554,119.894C682.579,119.894 673.901,114.296 669.494,106.073C668.788,106.956 668.267,108.038 668.272,109.309C666.379,104.626 666.372,96.2 666.408,93.904C666.408,93.852 666.408,93.8 666.408,93.748C666.408,91.768 666.628,89.839 667.046,87.985C665.479,88.315 663.726,88.867 662.406,89.785C667.4,78.602 675.393,73.59 677.288,72.524C681.585,69.427 686.858,67.602 692.554,67.602C694.566,67.602 696.526,67.829 698.409,68.261Z" style="fill:none;stroke:rgb(100,109,119);stroke-width:5.46px;"/>
                </g>
                <g transform="matrix(1.14698,0,0,1.12626,-1341.61,32.1334)">
                    <path d="M1399.33,482.321C1444.69,482.321 1462.78,517.793 1462.78,549.189C1462.78,580.584 1434.35,596.091 1399.33,596.091C1364.31,596.091 1335.88,580.584 1335.88,549.189C1335.88,517.793 1353.97,482.321 1399.33,482.321Z" style="fill:none;stroke:rgb(100,109,119);stroke-width:5.64px;"/>
                </g>
            </g>
            <g transform="matrix(0.936156,0,0,0.936156,-1051.72,-63.4505)">
                <path d="M1418.35,683.281C1419.72,679.261 1421.85,675.59 1424.57,672.441C1426.57,669.543 1431.74,663.723 1443.74,657.501C1442.73,659.139 1442.26,660.663 1442.05,661.888C1444.41,661.347 1446.87,661.061 1449.39,661.061C1456.53,661.061 1463.14,663.35 1468.53,667.233C1470.9,668.569 1480.92,674.852 1487.18,688.872C1485.53,687.721 1483.33,687.03 1481.37,686.615C1481.89,688.94 1482.17,691.358 1482.17,693.84C1482.17,693.906 1482.17,693.971 1482.17,694.036C1482.21,696.915 1482.2,707.478 1479.83,713.349C1479.84,711.756 1479.18,710.399 1478.3,709.293C1476.48,712.691 1474.08,715.731 1471.23,718.28C1479,731.894 1482.53,747.746 1482.53,762.817C1482.53,800.588 1447.69,819.243 1404.79,819.243C1361.88,819.243 1327.05,800.588 1327.05,762.817C1327.05,747.746 1330.58,731.894 1338.35,718.28C1335.5,715.731 1333.1,712.691 1331.28,709.293C1330.39,710.399 1329.74,711.756 1329.74,713.349C1327.37,707.478 1327.36,696.915 1327.41,694.036C1327.41,693.971 1327.41,693.906 1327.41,693.84C1327.41,691.358 1327.68,688.94 1328.21,686.615C1326.24,687.03 1324.05,687.721 1322.39,688.872C1328.65,674.852 1338.67,668.569 1341.05,667.233C1346.43,663.35 1353.05,661.061 1360.19,661.061C1362.71,661.061 1365.17,661.347 1367.53,661.888C1367.32,660.663 1366.85,659.139 1365.83,657.501C1377.84,663.723 1383,669.543 1385.01,672.441C1387.73,675.59 1389.86,679.261 1391.23,683.281C1395.51,682.683 1400.03,682.37 1404.79,682.37C1409.55,682.37 1414.07,682.683 1418.35,683.281Z" style="fill:url(#_Radial1);"/>
                <clipPath id="_clip2">
                    <path d="M1418.35,683.281C1419.72,679.261 1421.85,675.59 1424.57,672.441C1426.57,669.543 1431.74,663.723 1443.74,657.501C1442.73,659.139 1442.26,660.663 1442.05,661.888C1444.41,661.347 1446.87,661.061 1449.39,661.061C1456.53,661.061 1463.14,663.35 1468.53,667.233C1470.9,668.569 1480.92,674.852 1487.18,688.872C1485.53,687.721 1483.33,687.03 1481.37,686.615C1481.89,688.94 1482.17,691.358 1482.17,693.84C1482.17,693.906 1482.17,693.971 1482.17,694.036C1482.21,696.915 1482.2,707.478 1479.83,713.349C1479.84,711.756 1479.18,710.399 1478.3,709.293C1476.48,712.691 1474.08,715.731 1471.23,718.28C1479,731.894 1482.53,747.746 1482.53,762.817C1482.53,800.588 1447.69,819.243 1404.79,819.243C1361.88,819.243 1327.05,800.588 1327.05,762.817C1327.05,747.746 1330.58,731.894 1338.35,718.28C1335.5,715.731 1333.1,712.691 1331.28,709.293C1330.39,710.399 1329.74,711.756 1329.74,713.349C1327.37,707.478 1327.36,696.915 1327.41,694.036C1327.41,693.971 1327.41,693.906 1327.41,693.84C1327.41,691.358 1327.68,688.94 1328.21,686.615C1326.24,687.03 1324.05,687.721 1322.39,688.872C1328.65,674.852 1338.67,668.569 1341.05,667.233C1346.43,663.35 1353.05,661.061 1360.19,661.061C1362.71,661.061 1365.17,661.347 1367.53,661.888C1367.32,660.663 1366.85,659.139 1365.83,657.501C1377.84,663.723 1383,669.543 1385.01,672.441C1387.73,675.59 1389.86,679.261 1391.23,683.281C1395.51,682.683 1400.03,682.37 1404.79,682.37C1409.55,682.37 1414.07,682.683 1418.35,683.281Z"/>
                </clipPath>
                <g clip-path="url(#_clip2)">
                    <g id="Vertical" transform="matrix(1.0682,0,0,1.0682,279.83,131.937)">
                        <g transform="matrix(5.52551e-16,1.95057,-1.37784,3.90309e-16,1576.85,-1067.38)">
                            <path d="M799.155,338.606C799.155,338.606 819.22,338.954 825.453,338.606C831.686,338.258 833.818,338.954 839.573,338.954C845.328,338.954 866.031,338.069 869.22,338.055C872.409,338.041 878.062,337.939 878.062,337.939L879.091,347.885C879.091,347.885 862.986,347.537 856.505,347.537C850.025,347.537 843.661,348.913 835.557,348.913C827.453,348.913 824.7,347.87 816.001,348.218C807.302,348.566 797.444,348.566 797.444,348.566L799.155,338.606Z" style="fill:url(#_Radial3);"/>
                        </g>
                        <g transform="matrix(5.52551e-16,1.95057,-2.02322,5.73133e-16,1799.49,-1061.2)">
                            <path d="M792.906,357.83C792.906,357.83 808.202,357.698 813.754,357.698C819.306,357.698 829.207,356.64 835.078,356.64C840.949,356.64 856.867,355.756 861.23,355.756C865.594,355.756 876.945,356.105 876.945,356.105L877.293,366.15C877.293,366.15 866.42,364.76 860.767,365.107C855.113,365.455 850.922,365.455 846.428,365.455C841.935,365.455 835.876,364.425 829.308,364.758C822.741,365.092 818.159,364.745 813.23,365.441C808.302,366.136 792.92,366.483 792.92,366.483L792.906,357.83Z" style="fill:url(#_Radial4);"/>
                        </g>
                        <g transform="matrix(6.86213e-16,2.42241,-2.38214,6.74805e-16,1941,-1456.5)">
                            <path d="M801.518,378.444C801.518,378.444 811.275,380.168 816.711,379.487C822.147,378.806 824.277,377.879 830.497,377.879C836.717,377.879 841.501,378.213 848.663,377.879C855.824,377.546 869.726,377.546 869.726,377.546L868.379,383.779C868.379,383.779 848.183,383.547 843.69,383.779C839.196,384.011 834.064,384.127 828.41,384.358C822.756,384.59 802.707,384.59 802.707,384.59L801.518,378.444Z" style="fill:url(#_Radial5);"/>
                        </g>
                        <g transform="matrix(6.5879e-16,2.3256,-1.8781,5.32022e-16,1744.14,-1383.31)">
                            <path d="M804.491,392.753C804.491,392.753 818.264,391.709 823.975,391.709C829.686,391.709 832.57,393.319 838.37,392.739C844.169,392.158 861.551,391.81 861.551,391.81L870.945,391.81C873.264,391.81 873.38,396.638 873.38,396.638C873.38,396.638 867.945,398.013 862.044,398.362C856.143,398.711 847.285,399.06 842.357,398.711C837.428,398.362 833.471,398.362 828.397,398.362C823.323,398.362 805.23,398.595 805.23,398.595L804.491,392.753Z" style="fill:url(#_Radial6);"/>
                        </g>
                    </g>
                </g>
            </g>
        </g>
    </g>
    <defs>
        <radialGradient id="_Radial1" cx="0" cy="0" r="1" gradientUnits="userSpaceOnUse" gradientTransform="matrix(7.16798e-15,130.512,-117.062,7.99157e-15,1404.24,688.73)"><stop offset="0" style="stop-color:rgb(196,212,226);stop-opacity:1"/><stop offset="0.41" style="stop-color:rgb(172,185,197);stop-opacity:1"/><stop offset="0.93" style="stop-color:rgb(114,122,128);stop-opacity:1"/><stop offset="1" style="stop-color:rgb(124,133,140);stop-opacity:1"/></radialGradient>
        <radialGradient id="_Radial3" cx="0" cy="0" r="1" gradientUnits="userSpaceOnUse" gradientTransform="matrix(38.8133,1.22007e-14,-7.94865e-15,50.6776,838.267,380.096)"><stop offset="0" style="stop-color:white;stop-opacity:1"/><stop offset="0.6" style="stop-color:rgb(246,247,248);stop-opacity:1"/><stop offset="0.81" style="stop-color:rgb(226,230,233);stop-opacity:1"/><stop offset="1" style="stop-color:rgb(206,212,218);stop-opacity:1"/></radialGradient>
        <radialGradient id="_Radial4" cx="0" cy="0" r="1" gradientUnits="userSpaceOnUse" gradientTransform="matrix(38.8133,8.30879e-15,-7.94865e-15,34.512,835.099,368.895)"><stop offset="0" style="stop-color:white;stop-opacity:1"/><stop offset="0.6" style="stop-color:rgb(246,247,248);stop-opacity:1"/><stop offset="0.81" style="stop-color:rgb(226,230,233);stop-opacity:1"/><stop offset="1" style="stop-color:rgb(206,212,218);stop-opacity:1"/></radialGradient>
        <radialGradient id="_Radial5" cx="0" cy="0" r="1" gradientUnits="userSpaceOnUse" gradientTransform="matrix(31.2532,7.05691e-15,-6.40039e-15,29.3121,835.622,372.718)"><stop offset="0" style="stop-color:white;stop-opacity:1"/><stop offset="0.6" style="stop-color:rgb(246,247,248);stop-opacity:1"/><stop offset="0.81" style="stop-color:rgb(226,230,233);stop-opacity:1"/><stop offset="1" style="stop-color:rgb(206,212,218);stop-opacity:1"/></radialGradient>
        <radialGradient id="_Radial6" cx="0" cy="0" r="1" gradientUnits="userSpaceOnUse" gradientTransform="matrix(32.5542,8.95085e-15,-6.66682e-15,37.1788,838.935,367.928)"><stop offset="0" style="stop-color:white;stop-opacity:1"/><stop offset="0.6" style="stop-color:rgb(246,247,248);stop-opacity:1"/><stop offset="0.81" style="stop-color:rgb(226,230,233);stop-opacity:1"/><stop offset="1" style="stop-color:rgb(206,212,218);stop-opacity:1"/></radialGradient>
    </defs>
</svg>
