<?xml version="1.0" encoding="UTF-8" standalone="no"?>
<!DOCTYPE svg PUBLIC "-//W3C//DTD SVG 1.1//EN" "http://www.w3.org/Graphics/SVG/1.1/DTD/svg11.dtd">
<svg width="100%" height="100%" viewBox="0 0 512 512" version="1.1" xmlns="http://www.w3.org/2000/svg" xmlns:xlink="http://www.w3.org/1999/xlink" xml:space="preserve" xmlns:serif="http://www.serif.com/" style="fill-rule:evenodd;clip-rule:evenodd;stroke-linejoin:round;stroke-miterlimit:1.41421;">
    <g transform="matrix(3.10086,0,0,3.10086,-2551.06,-1836.76)">
        <g id="Mouse---Lines-Horizontal" serif:id="Mouse - Lines Horizontal">
            <g id="Outline">
                <g transform="matrix(1.38963,0,0,1.38963,-609.628,-463.245)">
                    <path d="M1095.14,791.368C1095.14,791.368 1101.35,759.795 1125.73,765.478C1150.11,771.16 1154.23,802.998 1124.28,813.144C1094.33,823.29 1095.14,791.368 1095.14,791.368Z" style="fill:none;stroke:rgb(100,109,119);stroke-width:4.62px;"/>
                </g>
                <g transform="matrix(-1.38963,0,0,1.38963,2420.14,-463.941)">
                    <path d="M1095.14,791.368C1095.14,791.368 1101.35,759.795 1125.73,765.478C1150.11,771.16 1154.23,802.998 1124.28,813.144C1094.33,823.29 1095.14,791.368 1095.14,791.368Z" style="fill:none;stroke:rgb(100,109,119);stroke-width:4.62px;"/>
                </g>
                <g transform="matrix(1.13953,2.79105e-16,-3.16749e-16,1.29323,-1189.95,-78.4687)">
                    <path d="M1837.9,551.142C1878.55,551.142 1893.17,574.042 1895.41,591.611C1897.31,606.564 1897.44,641.412 1837.9,641.358C1776.5,641.303 1778.77,604.31 1780.39,591.611C1782.83,572.403 1797.24,551.142 1837.9,551.142Z" style="fill:none;stroke:rgb(100,109,119);stroke-width:5.26px;"/>
                </g>
            </g>
            <g transform="matrix(0.936156,0,0,0.936156,740.897,-204.664)">
                <path d="M113.59,924.99C81.846,906.412 89.958,866.955 122.724,859.319C155.169,851.758 165.932,888.634 167.814,896.356C170.02,896.227 172.298,896.161 174.649,896.161C177.707,896.161 180.644,896.282 183.465,896.515C185.712,887.689 196.717,852.676 228.409,860.062C261.649,867.808 269.516,908.303 236.14,926.527C241.111,934.881 243.738,943.891 244.653,952.065C246.966,972.722 247.126,1020.86 174.649,1020.79C99.915,1020.71 102.68,969.608 104.645,952.065C105.666,942.94 108.412,933.48 113.59,924.99Z" style="fill:url(#_Radial1);"/>
                <clipPath id="_clip2">
                    <path d="M113.59,924.99C81.846,906.412 89.958,866.955 122.724,859.319C155.169,851.758 165.932,888.634 167.814,896.356C170.02,896.227 172.298,896.161 174.649,896.161C177.707,896.161 180.644,896.282 183.465,896.515C185.712,887.689 196.717,852.676 228.409,860.062C261.649,867.808 269.516,908.303 236.14,926.527C241.111,934.881 243.738,943.891 244.653,952.065C246.966,972.722 247.126,1020.86 174.649,1020.79C99.915,1020.71 102.68,969.608 104.645,952.065C105.666,942.94 108.412,933.48 113.59,924.99Z"/>
                </clipPath>
                <g clip-path="url(#_clip2)">
                    <g id="Horizontal" transform="matrix(1.0682,0,0,1.0682,-979.275,333.11)">
                        <g transform="matrix(1.95057,0,0,1.32836,-554.241,62.8157)">
                            <path d="M799.155,338.606C799.155,338.606 819.22,338.954 825.453,338.606C831.686,338.258 833.818,338.954 839.573,338.954C845.328,338.954 866.031,338.069 869.22,338.055C872.409,338.041 878.062,337.939 878.062,337.939L879.091,347.885C879.091,347.885 862.986,347.537 856.505,347.537C850.025,347.537 843.661,348.913 835.557,348.913C827.453,348.913 824.7,347.87 816.001,348.218C807.302,348.566 797.444,348.566 797.444,348.566L799.155,338.606Z" style="fill:url(#_Radial3);"/>
                        </g>
                        <g transform="matrix(1.95057,0,0,1.95057,-548.062,-151.837)">
                            <path d="M792.906,357.83C792.906,357.83 808.202,357.698 813.754,357.698C819.306,357.698 829.207,356.64 835.078,356.64C840.949,356.64 856.867,355.756 861.23,355.756C865.594,355.756 876.945,356.105 876.945,356.105L877.293,366.15C877.293,366.15 866.42,364.76 860.767,365.107C855.113,365.455 850.922,365.455 846.428,365.455C841.935,365.455 835.876,364.425 829.308,364.758C822.741,365.092 818.159,364.745 813.23,365.441C808.302,366.136 792.92,366.483 792.92,366.483L792.906,357.83Z" style="fill:url(#_Radial4);"/>
                        </g>
                        <g transform="matrix(2.42241,0,0,2.29659,-943.364,-288.263)">
                            <path d="M801.518,378.444C801.518,378.444 811.275,380.168 816.711,379.487C822.147,378.806 824.277,377.879 830.497,377.879C836.717,377.879 841.501,378.213 848.663,377.879C855.824,377.546 869.726,377.546 869.726,377.546L868.379,383.779C868.379,383.779 848.183,383.547 843.69,383.779C839.196,384.011 834.064,384.127 828.41,384.358C822.756,384.59 802.707,384.59 802.707,384.59L801.518,378.444Z" style="fill:url(#_Radial5);"/>
                        </g>
                        <g transform="matrix(2.3256,0,0,1.81065,-870.175,-98.4719)">
                            <path d="M804.491,392.753C804.491,392.753 818.264,391.709 823.975,391.709C829.686,391.709 832.57,393.319 838.37,392.739C844.169,392.158 861.551,391.81 861.551,391.81L870.945,391.81C873.264,391.81 873.38,396.638 873.38,396.638C873.38,396.638 867.945,398.013 862.044,398.362C856.143,398.711 847.285,399.06 842.357,398.711C837.428,398.362 833.471,398.362 828.397,398.362C823.323,398.362 805.23,398.595 805.23,398.595L804.491,392.753Z" style="fill:url(#_Radial6);"/>
                        </g>
                    </g>
                </g>
            </g>
        </g>
    </g>
    <defs>
        <radialGradient id="_Radial1" cx="0" cy="0" r="1" gradientUnits="userSpaceOnUse" gradientTransform="matrix(2.49463e-14,114.414,-101.851,2.80233e-14,175.597,906.374)"><stop offset="0" style="stop-color:rgb(241,243,245);stop-opacity:1"/><stop offset="0.93" style="stop-color:rgb(173,181,189);stop-opacity:1"/><stop offset="1" style="stop-color:rgb(185,192,199);stop-opacity:1"/></radialGradient>
        <radialGradient id="_Radial3" cx="0" cy="0" r="1" gradientUnits="userSpaceOnUse" gradientTransform="matrix(37.9794,0,-1.0601e-29,55.7692,837.577,376.224)"><stop offset="0" style="stop-color:white;stop-opacity:1"/><stop offset="0.6" style="stop-color:rgb(250,250,251);stop-opacity:1"/><stop offset="0.81" style="stop-color:rgb(239,240,242);stop-opacity:1"/><stop offset="1" style="stop-color:rgb(227,230,233);stop-opacity:1"/></radialGradient>
        <radialGradient id="_Radial4" cx="0" cy="0" r="1" gradientUnits="userSpaceOnUse" gradientTransform="matrix(37.9794,0,-1.0601e-29,37.9794,834.409,366.258)"><stop offset="0" style="stop-color:white;stop-opacity:1"/><stop offset="0.6" style="stop-color:rgb(250,250,251);stop-opacity:1"/><stop offset="0.81" style="stop-color:rgb(239,240,242);stop-opacity:1"/><stop offset="1" style="stop-color:rgb(227,230,233);stop-opacity:1"/></radialGradient>
        <radialGradient id="_Radial5" cx="0" cy="0" r="1" gradientUnits="userSpaceOnUse" gradientTransform="matrix(30.5816,0,-8.53609e-30,32.257,835.066,370.478)"><stop offset="0" style="stop-color:white;stop-opacity:1"/><stop offset="0.6" style="stop-color:rgb(250,250,251);stop-opacity:1"/><stop offset="0.81" style="stop-color:rgb(239,240,242);stop-opacity:1"/><stop offset="1" style="stop-color:rgb(227,230,233);stop-opacity:1"/></radialGradient>
        <radialGradient id="_Radial6" cx="0" cy="0" r="1" gradientUnits="userSpaceOnUse" gradientTransform="matrix(31.8547,0,-8.89142e-30,40.9142,838.356,365.088)"><stop offset="0" style="stop-color:white;stop-opacity:1"/><stop offset="0.6" style="stop-color:rgb(250,250,251);stop-opacity:1"/><stop offset="0.81" style="stop-color:rgb(239,240,242);stop-opacity:1"/><stop offset="1" style="stop-color:rgb(227,230,233);stop-opacity:1"/></radialGradient>
    </defs>
</svg>
