<?xml version="1.0" encoding="UTF-8" standalone="no"?>
<!DOCTYPE svg PUBLIC "-//W3C//DTD SVG 1.1//EN" "http://www.w3.org/Graphics/SVG/1.1/DTD/svg11.dtd">
<svg width="100%" height="100%" viewBox="0 0 512 512" version="1.1" xmlns="http://www.w3.org/2000/svg" xmlns:xlink="http://www.w3.org/1999/xlink" xml:space="preserve" xmlns:serif="http://www.serif.com/" style="fill-rule:evenodd;clip-rule:evenodd;stroke-linecap:round;stroke-linejoin:round;stroke-miterlimit:1.41421;">
    <g transform="matrix(3.10086,0,0,3.10086,-5372.7,-1789.89)">
        <g id="Owl---Lines-Vertical" serif:id="Owl - Lines Vertical">
            <g id="Outline">
                <g transform="matrix(1,0,0,1,433.643,351.328)">
                    <path d="M1341.91,261.705C1341.91,261.705 1318.52,252.946 1310.25,234.519C1310.14,234.254 1309.86,234.105 1309.58,234.164C1309.3,234.222 1309.1,234.473 1309.11,234.759C1309.4,257.765 1322.95,265.383 1322.95,265.383C1322.95,265.383 1317.14,267.991 1309.78,261.323C1309.58,261.151 1309.27,261.148 1309.06,261.317C1308.85,261.485 1308.79,261.779 1308.91,262.02C1315.83,276.146 1327.18,279.187 1327.18,279.187L1341.91,261.705Z" style="fill:none;stroke:rgb(133,77,146);stroke-width:6.41px;"/>
                </g>
                <g transform="matrix(-1,0,0,1,3195.31,351.328)">
                    <path d="M1341.91,261.705C1341.91,261.705 1318.52,252.946 1310.25,234.519C1310.14,234.254 1309.86,234.105 1309.58,234.164C1309.3,234.222 1309.1,234.473 1309.11,234.759C1309.4,257.765 1322.95,265.383 1322.95,265.383C1322.95,265.383 1317.14,267.991 1309.78,261.323C1309.58,261.151 1309.27,261.148 1309.06,261.317C1308.85,261.485 1308.79,261.779 1308.91,262.02C1315.83,276.146 1327.18,279.187 1327.18,279.187L1341.91,261.705Z" style="fill:none;stroke:rgb(133,77,146);stroke-width:6.41px;"/>
                </g>
                <g transform="matrix(1.42551,0,0,1.41457,-1113.5,-352.027)">
                    <ellipse cx="2054.5" cy="720.742" rx="51.77" ry="47.059" style="fill:none;stroke:rgb(133,77,146);stroke-width:4.52px;stroke-linecap:butt;"/>
                </g>
            </g>
            <g transform="matrix(0.936156,0,0,0.936156,1650.85,-32.4981)">
                <path d="M112.012,705.697C107.85,703.186 102.143,698.438 97.955,689.891C97.826,689.634 97.894,689.32 98.12,689.14C98.346,688.96 98.666,688.963 98.889,689.147C106.749,696.27 112.957,693.483 112.957,693.483C112.957,693.483 98.479,685.347 98.171,660.771C98.162,660.466 98.373,660.198 98.672,660.135C98.971,660.072 99.272,660.232 99.387,660.515C106.8,677.039 125.605,686.286 131.45,688.828C144.046,681.137 159.229,676.644 175.566,676.644C191.621,676.644 206.561,680.983 219.02,688.428C225.695,685.406 243.115,676.268 250.181,660.515C250.297,660.232 250.598,660.072 250.896,660.135C251.195,660.198 251.406,660.466 251.398,660.771C251.089,685.347 236.611,693.483 236.611,693.483C236.611,693.483 242.819,696.27 250.68,689.147C250.902,688.963 251.223,688.96 251.449,689.14C251.674,689.32 251.743,689.634 251.613,689.891C247.761,697.753 242.624,702.4 238.586,705.048C248.512,716.942 254.397,731.732 254.397,747.752C254.397,786.997 219.074,818.859 175.566,818.859C132.059,818.859 96.736,786.997 96.736,747.752C96.736,732.022 102.41,717.479 112.012,705.697Z" style="fill:url(#_Radial1);"/>
                <clipPath id="_clip2">
                    <path d="M112.012,705.697C107.85,703.186 102.143,698.438 97.955,689.891C97.826,689.634 97.894,689.32 98.12,689.14C98.346,688.96 98.666,688.963 98.889,689.147C106.749,696.27 112.957,693.483 112.957,693.483C112.957,693.483 98.479,685.347 98.171,660.771C98.162,660.466 98.373,660.198 98.672,660.135C98.971,660.072 99.272,660.232 99.387,660.515C106.8,677.039 125.605,686.286 131.45,688.828C144.046,681.137 159.229,676.644 175.566,676.644C191.621,676.644 206.561,680.983 219.02,688.428C225.695,685.406 243.115,676.268 250.181,660.515C250.297,660.232 250.598,660.072 250.896,660.135C251.195,660.198 251.406,660.466 251.398,660.771C251.089,685.347 236.611,693.483 236.611,693.483C236.611,693.483 242.819,696.27 250.68,689.147C250.902,688.963 251.223,688.96 251.449,689.14C251.674,689.32 251.743,689.634 251.613,689.891C247.761,697.753 242.624,702.4 238.586,705.048C248.512,716.942 254.397,731.732 254.397,747.752C254.397,786.997 219.074,818.859 175.566,818.859C132.059,818.859 96.736,786.997 96.736,747.752C96.736,732.022 102.41,717.479 112.012,705.697Z"/>
                </clipPath>
                <g clip-path="url(#_clip2)">
                    <g id="Vertical" transform="matrix(1.0682,0,0,1.0682,-949.665,141.935)">
                        <g transform="matrix(5.52551e-16,1.95057,-1.37784,3.90309e-16,1576.85,-1067.38)">
                            <path d="M799.155,338.606C799.155,338.606 819.22,338.954 825.453,338.606C831.686,338.258 833.818,338.954 839.573,338.954C845.328,338.954 866.031,338.069 869.22,338.055C872.409,338.041 878.062,337.939 878.062,337.939L879.091,347.885C879.091,347.885 862.986,347.537 856.505,347.537C850.025,347.537 843.661,348.913 835.557,348.913C827.453,348.913 824.7,347.87 816.001,348.218C807.302,348.566 797.444,348.566 797.444,348.566L799.155,338.606Z" style="fill:url(#_Radial3);"/>
                        </g>
                        <g transform="matrix(5.52551e-16,1.95057,-2.02322,5.73133e-16,1799.49,-1061.2)">
                            <path d="M792.906,357.83C792.906,357.83 808.202,357.698 813.754,357.698C819.306,357.698 829.207,356.64 835.078,356.64C840.949,356.64 856.867,355.756 861.23,355.756C865.594,355.756 876.945,356.105 876.945,356.105L877.293,366.15C877.293,366.15 866.42,364.76 860.767,365.107C855.113,365.455 850.922,365.455 846.428,365.455C841.935,365.455 835.876,364.425 829.308,364.758C822.741,365.092 818.159,364.745 813.23,365.441C808.302,366.136 792.92,366.483 792.92,366.483L792.906,357.83Z" style="fill:url(#_Radial4);"/>
                        </g>
                        <g transform="matrix(6.86213e-16,2.42241,-2.38214,6.74805e-16,1941,-1456.5)">
                            <path d="M801.518,378.444C801.518,378.444 811.275,380.168 816.711,379.487C822.147,378.806 824.277,377.879 830.497,377.879C836.717,377.879 841.501,378.213 848.663,377.879C855.824,377.546 869.726,377.546 869.726,377.546L868.379,383.779C868.379,383.779 848.183,383.547 843.69,383.779C839.196,384.011 834.064,384.127 828.41,384.358C822.756,384.59 802.707,384.59 802.707,384.59L801.518,378.444Z" style="fill:url(#_Radial5);"/>
                        </g>
                        <g transform="matrix(6.5879e-16,2.3256,-1.8781,5.32022e-16,1744.14,-1383.31)">
                            <path d="M804.491,392.753C804.491,392.753 818.264,391.709 823.975,391.709C829.686,391.709 832.57,393.319 838.37,392.739C844.169,392.158 861.551,391.81 861.551,391.81L870.945,391.81C873.264,391.81 873.38,396.638 873.38,396.638C873.38,396.638 867.945,398.013 862.044,398.362C856.143,398.711 847.285,399.06 842.357,398.711C837.428,398.362 833.471,398.362 828.397,398.362C823.323,398.362 805.23,398.595 805.23,398.595L804.491,392.753Z" style="fill:url(#_Radial6);"/>
                        </g>
                    </g>
                </g>
            </g>
        </g>
    </g>
    <defs>
        <radialGradient id="_Radial1" cx="0" cy="0" r="1" gradientUnits="userSpaceOnUse" gradientTransform="matrix(6.30229e-15,114.882,-102.924,7.03449e-15,174.784,703.974)"><stop offset="0" style="stop-color:rgb(223,138,236);stop-opacity:1"/><stop offset="0.86" style="stop-color:rgb(170,103,212);stop-opacity:1"/><stop offset="1" style="stop-color:rgb(193,110,241);stop-opacity:1"/></radialGradient>
        <radialGradient id="_Radial3" cx="0" cy="0" r="1" gradientUnits="userSpaceOnUse" gradientTransform="matrix(1.07587e-14,-53.7664,37.9794,1.52308e-14,835.631,381.074)"><stop offset="0" style="stop-color:rgb(248,240,252);stop-opacity:1"/><stop offset="0.6" style="stop-color:rgb(245,224,251);stop-opacity:1"/><stop offset="0.81" style="stop-color:rgb(237,189,249);stop-opacity:1"/><stop offset="1" style="stop-color:rgb(229,153,247);stop-opacity:1"/></radialGradient>
        <radialGradient id="_Radial4" cx="0" cy="0" r="1" gradientUnits="userSpaceOnUse" gradientTransform="matrix(1.07587e-14,-36.6154,37.9794,1.03723e-14,832.463,369.561)"><stop offset="0" style="stop-color:rgb(248,240,252);stop-opacity:1"/><stop offset="0.6" style="stop-color:rgb(245,224,251);stop-opacity:1"/><stop offset="0.81" style="stop-color:rgb(237,189,249);stop-opacity:1"/><stop offset="1" style="stop-color:rgb(229,153,247);stop-opacity:1"/></radialGradient>
        <radialGradient id="_Radial5" cx="0" cy="0" r="1" gradientUnits="userSpaceOnUse" gradientTransform="matrix(8.66308e-15,-31.0986,30.5816,8.80952e-15,833.499,373.284)"><stop offset="0" style="stop-color:rgb(248,240,252);stop-opacity:1"/><stop offset="0.6" style="stop-color:rgb(245,224,251);stop-opacity:1"/><stop offset="0.81" style="stop-color:rgb(237,189,249);stop-opacity:1"/><stop offset="1" style="stop-color:rgb(229,153,247);stop-opacity:1"/></radialGradient>
        <radialGradient id="_Radial6" cx="0" cy="0" r="1" gradientUnits="userSpaceOnUse" gradientTransform="matrix(9.02369e-15,-39.4449,31.8547,1.11738e-14,836.724,368.646)"><stop offset="0" style="stop-color:rgb(248,240,252);stop-opacity:1"/><stop offset="0.6" style="stop-color:rgb(245,224,251);stop-opacity:1"/><stop offset="0.81" style="stop-color:rgb(237,189,249);stop-opacity:1"/><stop offset="1" style="stop-color:rgb(229,153,247);stop-opacity:1"/></radialGradient>
    </defs>
</svg>
