<?xml version="1.0" encoding="UTF-8" standalone="no"?>
<!DOCTYPE svg PUBLIC "-//W3C//DTD SVG 1.1//EN" "http://www.w3.org/Graphics/SVG/1.1/DTD/svg11.dtd">
<svg width="100%" height="100%" viewBox="0 0 512 512" version="1.1" xmlns="http://www.w3.org/2000/svg" xmlns:xlink="http://www.w3.org/1999/xlink" xml:space="preserve" xmlns:serif="http://www.serif.com/" style="fill-rule:evenodd;clip-rule:evenodd;stroke-linejoin:round;stroke-miterlimit:1.41421;">
    <g transform="matrix(3.27976,0,0,3.51707,-3273.54,-220.802)">
        <g id="Penguin---Lines-Vertical" serif:id="Penguin - Lines Vertical">
            <g id="Outline" transform="matrix(1.01046,0,0,0.848478,919.271,-1521.57)">
                <path d="M155.261,1893.06C205.405,1893.06 226.321,1930.08 226.321,1969.3C226.321,2008.52 194.48,2035.17 155.261,2035.17C116.042,2035.17 84.201,2008.52 84.201,1969.3C84.201,1930.08 105.117,1893.06 155.261,1893.06Z" style="fill:none;stroke:rgb(37,42,48);stroke-width:6.31px;"/>
            </g>
            <g transform="matrix(1.01046,0,0,0.848478,919.271,-1521.57)">
                <path d="M155.261,1893.06C205.405,1893.06 226.321,1930.08 226.321,1969.3C226.321,2008.52 194.48,2035.17 155.261,2035.17C116.042,2035.17 84.201,2008.52 84.201,1969.3C84.201,1930.08 105.117,1893.06 155.261,1893.06Z" style="fill:url(#_Radial1);"/>
                <clipPath id="_clip2">
                    <path d="M155.261,1893.06C205.405,1893.06 226.321,1930.08 226.321,1969.3C226.321,2008.52 194.48,2035.17 155.261,2035.17C116.042,2035.17 84.201,2008.52 84.201,1969.3C84.201,1930.08 105.117,1893.06 155.261,1893.06Z"/>
                </clipPath>
                <g clip-path="url(#_clip2)">
                    <g id="Vertical" transform="matrix(0.935662,0,0,1.03136,-830.119,1378.59)">
                        <g transform="matrix(5.52551e-16,1.95057,-1.37784,3.90309e-16,1576.85,-1067.38)">
                            <path d="M799.155,338.606C799.155,338.606 819.22,338.954 825.453,338.606C831.686,338.258 833.818,338.954 839.573,338.954C845.328,338.954 866.031,338.069 869.22,338.055C872.409,338.041 878.062,337.939 878.062,337.939L879.091,347.885C879.091,347.885 862.986,347.537 856.505,347.537C850.025,347.537 843.661,348.913 835.557,348.913C827.453,348.913 824.7,347.87 816.001,348.218C807.302,348.566 797.444,348.566 797.444,348.566L799.155,338.606Z" style="fill:url(#_Radial3);"/>
                        </g>
                        <g transform="matrix(5.52551e-16,1.95057,-2.02322,5.73133e-16,1799.49,-1061.2)">
                            <path d="M792.906,357.83C792.906,357.83 808.202,357.698 813.754,357.698C819.306,357.698 829.207,356.64 835.078,356.64C840.949,356.64 856.867,355.756 861.23,355.756C865.594,355.756 876.945,356.105 876.945,356.105L877.293,366.15C877.293,366.15 866.42,364.76 860.767,365.107C855.113,365.455 850.922,365.455 846.428,365.455C841.935,365.455 835.876,364.425 829.308,364.758C822.741,365.092 818.159,364.745 813.23,365.441C808.302,366.136 792.92,366.483 792.92,366.483L792.906,357.83Z" style="fill:url(#_Radial4);"/>
                        </g>
                        <g transform="matrix(6.86213e-16,2.42241,-2.38214,6.74805e-16,1941,-1456.5)">
                            <path d="M801.518,378.444C801.518,378.444 811.275,380.168 816.711,379.487C822.147,378.806 824.277,377.879 830.497,377.879C836.717,377.879 841.501,378.213 848.663,377.879C855.824,377.546 869.726,377.546 869.726,377.546L868.379,383.779C868.379,383.779 848.183,383.547 843.69,383.779C839.196,384.011 834.064,384.127 828.41,384.358C822.756,384.59 802.707,384.59 802.707,384.59L801.518,378.444Z" style="fill:url(#_Radial5);"/>
                        </g>
                        <g transform="matrix(6.5879e-16,2.3256,-1.8781,5.32022e-16,1744.14,-1383.31)">
                            <path d="M804.491,392.753C804.491,392.753 818.264,391.709 823.975,391.709C829.686,391.709 832.57,393.319 838.37,392.739C844.169,392.158 861.551,391.81 861.551,391.81L870.945,391.81C873.264,391.81 873.38,396.638 873.38,396.638C873.38,396.638 867.945,398.013 862.044,398.362C856.143,398.711 847.285,399.06 842.357,398.711C837.428,398.362 833.471,398.362 828.397,398.362C823.323,398.362 805.23,398.595 805.23,398.595L804.491,392.753Z" style="fill:url(#_Radial6);"/>
                        </g>
                    </g>
                </g>
            </g>
        </g>
    </g>
    <defs>
        <radialGradient id="_Radial1" cx="0" cy="0" r="1" gradientUnits="userSpaceOnUse" gradientTransform="matrix(5.26484e-15,94.7758,-85.9813,5.80334e-15,155.261,1940.4)"><stop offset="0" style="stop-color:rgb(53,66,75);stop-opacity:1"/><stop offset="0.44" style="stop-color:rgb(48,58,66);stop-opacity:1"/><stop offset="0.83" style="stop-color:rgb(29,33,37);stop-opacity:1"/><stop offset="1" style="stop-color:rgb(67,75,84);stop-opacity:1"/></radialGradient>
        <radialGradient id="_Radial3" cx="0" cy="0" r="1" gradientUnits="userSpaceOnUse" gradientTransform="matrix(46.2287,1.45317e-14,-9.33365e-15,59.5079,830.948,380.096)"><stop offset="0" style="stop-color:white;stop-opacity:1"/><stop offset="0.59" style="stop-color:rgb(221,222,224);stop-opacity:1"/><stop offset="0.8" style="stop-color:rgb(147,151,155);stop-opacity:1"/><stop offset="1" style="stop-color:rgb(73,80,87);stop-opacity:1"/></radialGradient>
        <radialGradient id="_Radial4" cx="0" cy="0" r="1" gradientUnits="userSpaceOnUse" gradientTransform="matrix(46.2287,9.89621e-15,-9.33365e-15,40.5255,827.78,368.895)"><stop offset="0" style="stop-color:white;stop-opacity:1"/><stop offset="0.59" style="stop-color:rgb(221,222,224);stop-opacity:1"/><stop offset="0.8" style="stop-color:rgb(147,151,155);stop-opacity:1"/><stop offset="1" style="stop-color:rgb(73,80,87);stop-opacity:1"/></radialGradient>
        <radialGradient id="_Radial5" cx="0" cy="0" r="1" gradientUnits="userSpaceOnUse" gradientTransform="matrix(37.2242,8.40516e-15,-7.51562e-15,34.4195,829.728,372.718)"><stop offset="0" style="stop-color:white;stop-opacity:1"/><stop offset="0.59" style="stop-color:rgb(221,222,224);stop-opacity:1"/><stop offset="0.8" style="stop-color:rgb(147,151,155);stop-opacity:1"/><stop offset="1" style="stop-color:rgb(73,80,87);stop-opacity:1"/></radialGradient>
        <radialGradient id="_Radial6" cx="0" cy="0" r="1" gradientUnits="userSpaceOnUse" gradientTransform="matrix(38.7737,1.06609e-14,-7.82847e-15,43.657,832.796,367.928)"><stop offset="0" style="stop-color:white;stop-opacity:1"/><stop offset="0.59" style="stop-color:rgb(221,222,224);stop-opacity:1"/><stop offset="0.8" style="stop-color:rgb(147,151,155);stop-opacity:1"/><stop offset="1" style="stop-color:rgb(73,80,87);stop-opacity:1"/></radialGradient>
    </defs>
</svg>
