<?xml version="1.0" encoding="UTF-8" standalone="no"?>
<!DOCTYPE svg PUBLIC "-//W3C//DTD SVG 1.1//EN" "http://www.w3.org/Graphics/SVG/1.1/DTD/svg11.dtd">
<svg width="100%" height="100%" viewBox="0 0 512 512" version="1.1" xmlns="http://www.w3.org/2000/svg" xmlns:xlink="http://www.w3.org/1999/xlink" xml:space="preserve" xmlns:serif="http://www.serif.com/" style="fill-rule:evenodd;clip-rule:evenodd;stroke-linejoin:round;stroke-miterlimit:1.41421;">
    <g transform="matrix(3.10086,0,0,3.10086,-3850.34,-1677.79)">
        <g id="Pig---Lines-Vertical" serif:id="Pig - Lines Vertical">
            <g id="Outline">
                <g transform="matrix(1.15974,-0.789585,0.694215,1.01966,635.09,727.522)">
                    <ellipse cx="438.294" cy="192.108" rx="15.136" ry="20.778" style="fill:none;stroke:rgb(192,68,87);stroke-width:4.86px;"/>
                </g>
                <g transform="matrix(-1.15974,-0.789585,-0.694215,1.01966,2013.1,727.522)">
                    <ellipse cx="438.294" cy="192.108" rx="15.136" ry="20.778" style="fill:none;stroke:rgb(192,68,87);stroke-width:4.86px;"/>
                </g>
                <g transform="matrix(1.14698,0,0,1.12626,-280.733,22.8957)">
                    <path d="M1399.33,482.321C1444.69,482.321 1462.78,517.793 1462.78,549.189C1462.78,580.584 1434.35,596.091 1399.33,596.091C1364.31,596.091 1335.88,580.584 1335.88,549.189C1335.88,517.793 1353.97,482.321 1399.33,482.321Z" style="fill:none;stroke:rgb(192,68,87);stroke-width:5.64px;"/>
                </g>
            </g>
            <g transform="matrix(0.936156,0,0,0.936156,9.16043,-1206.47)">
                <path d="M1433.5,1897.97C1434.29,1896.17 1435.26,1894.4 1436.42,1892.7C1444.93,1880.2 1460.23,1875.78 1470.58,1882.83C1480.93,1889.88 1482.43,1905.74 1473.92,1918.23C1472.26,1920.67 1470.34,1922.8 1468.25,1924.6C1478.1,1939.19 1482.53,1957.05 1482.53,1973.92C1482.53,2011.69 1447.69,2030.35 1404.79,2030.35C1361.88,2030.35 1327.05,2011.69 1327.05,1973.92C1327.05,1957.12 1331.43,1939.34 1341.2,1924.79C1339.02,1922.95 1337.02,1920.76 1335.3,1918.23C1326.8,1905.74 1328.29,1889.88 1338.64,1882.83C1348.99,1875.78 1364.3,1880.2 1372.8,1892.7C1373.98,1894.43 1374.97,1896.24 1375.77,1898.07C1384.21,1895.13 1393.85,1893.48 1404.79,1893.48C1415.59,1893.48 1425.13,1895.09 1433.5,1897.97Z" style="fill:url(#_Radial1);"/>
                <clipPath id="_clip2">
                    <path d="M1433.5,1897.97C1434.29,1896.17 1435.26,1894.4 1436.42,1892.7C1444.93,1880.2 1460.23,1875.78 1470.58,1882.83C1480.93,1889.88 1482.43,1905.74 1473.92,1918.23C1472.26,1920.67 1470.34,1922.8 1468.25,1924.6C1478.1,1939.19 1482.53,1957.05 1482.53,1973.92C1482.53,2011.69 1447.69,2030.35 1404.79,2030.35C1361.88,2030.35 1327.05,2011.69 1327.05,1973.92C1327.05,1957.12 1331.43,1939.34 1341.2,1924.79C1339.02,1922.95 1337.02,1920.76 1335.3,1918.23C1326.8,1905.74 1328.29,1889.88 1338.64,1882.83C1348.99,1875.78 1364.3,1880.2 1372.8,1892.7C1373.98,1894.43 1374.97,1896.24 1375.77,1898.07C1384.21,1895.13 1393.85,1893.48 1404.79,1893.48C1415.59,1893.48 1425.13,1895.09 1433.5,1897.97Z"/>
                </clipPath>
                <g clip-path="url(#_clip2)">
                    <g id="Vertical" transform="matrix(1.0682,0,0,1.0682,279.83,1353.14)">
                        <g transform="matrix(5.52551e-16,1.95057,-1.37784,3.90309e-16,1576.85,-1067.38)">
                            <path d="M799.155,338.606C799.155,338.606 819.22,338.954 825.453,338.606C831.686,338.258 833.818,338.954 839.573,338.954C845.328,338.954 866.031,338.069 869.22,338.055C872.409,338.041 878.062,337.939 878.062,337.939L879.091,347.885C879.091,347.885 862.986,347.537 856.505,347.537C850.025,347.537 843.661,348.913 835.557,348.913C827.453,348.913 824.7,347.87 816.001,348.218C807.302,348.566 797.444,348.566 797.444,348.566L799.155,338.606Z" style="fill:url(#_Radial3);"/>
                        </g>
                        <g transform="matrix(5.52551e-16,1.95057,-2.02322,5.73133e-16,1799.49,-1061.2)">
                            <path d="M792.906,357.83C792.906,357.83 808.202,357.698 813.754,357.698C819.306,357.698 829.207,356.64 835.078,356.64C840.949,356.64 856.867,355.756 861.23,355.756C865.594,355.756 876.945,356.105 876.945,356.105L877.293,366.15C877.293,366.15 866.42,364.76 860.767,365.107C855.113,365.455 850.922,365.455 846.428,365.455C841.935,365.455 835.876,364.425 829.308,364.758C822.741,365.092 818.159,364.745 813.23,365.441C808.302,366.136 792.92,366.483 792.92,366.483L792.906,357.83Z" style="fill:url(#_Radial4);"/>
                        </g>
                        <g transform="matrix(6.86213e-16,2.42241,-2.38214,6.74805e-16,1941,-1456.5)">
                            <path d="M801.518,378.444C801.518,378.444 811.275,380.168 816.711,379.487C822.147,378.806 824.277,377.879 830.497,377.879C836.717,377.879 841.501,378.213 848.663,377.879C855.824,377.546 869.726,377.546 869.726,377.546L868.379,383.779C868.379,383.779 848.183,383.547 843.69,383.779C839.196,384.011 834.064,384.127 828.41,384.358C822.756,384.59 802.707,384.59 802.707,384.59L801.518,378.444Z" style="fill:url(#_Radial5);"/>
                        </g>
                        <g transform="matrix(6.5879e-16,2.3256,-1.8781,5.32022e-16,1744.14,-1383.31)">
                            <path d="M804.491,392.753C804.491,392.753 818.264,391.709 823.975,391.709C829.686,391.709 832.57,393.319 838.37,392.739C844.169,392.158 861.551,391.81 861.551,391.81L870.945,391.81C873.264,391.81 873.38,396.638 873.38,396.638C873.38,396.638 867.945,398.013 862.044,398.362C856.143,398.711 847.285,399.06 842.357,398.711C837.428,398.362 833.471,398.362 828.397,398.362C823.323,398.362 805.23,398.595 805.23,398.595L804.491,392.753Z" style="fill:url(#_Radial6);"/>
                        </g>
                    </g>
                </g>
            </g>
        </g>
    </g>
    <defs>
        <radialGradient id="_Radial1" cx="0" cy="0" r="1" gradientUnits="userSpaceOnUse" gradientTransform="matrix(-0.517187,116.663,-121.376,-0.653777,1404.79,1913.69)"><stop offset="0" style="stop-color:rgb(255,222,235);stop-opacity:1"/><stop offset="0.53" style="stop-color:rgb(252,202,209);stop-opacity:1"/><stop offset="0.8" style="stop-color:rgb(253,158,175);stop-opacity:1"/><stop offset="0.97" style="stop-color:rgb(255,144,166);stop-opacity:1"/><stop offset="1" style="stop-color:rgb(255,186,200);stop-opacity:1"/></radialGradient>
        <radialGradient id="_Radial3" cx="0" cy="0" r="1" gradientUnits="userSpaceOnUse" gradientTransform="matrix(38.8133,1.22007e-14,-8.17085e-15,52.0943,828.019,380.096)"><stop offset="0" style="stop-color:white;stop-opacity:1"/><stop offset="0.6" style="stop-color:rgb(255,249,249);stop-opacity:1"/><stop offset="0.81" style="stop-color:rgb(255,234,237);stop-opacity:1"/><stop offset="1" style="stop-color:rgb(255,219,224);stop-opacity:1"/></radialGradient>
        <radialGradient id="_Radial4" cx="0" cy="0" r="1" gradientUnits="userSpaceOnUse" gradientTransform="matrix(38.8133,8.30879e-15,-8.17085e-15,35.4768,824.851,368.895)"><stop offset="0" style="stop-color:white;stop-opacity:1"/><stop offset="0.6" style="stop-color:rgb(255,249,249);stop-opacity:1"/><stop offset="0.81" style="stop-color:rgb(255,234,237);stop-opacity:1"/><stop offset="1" style="stop-color:rgb(255,219,224);stop-opacity:1"/></radialGradient>
        <radialGradient id="_Radial5" cx="0" cy="0" r="1" gradientUnits="userSpaceOnUse" gradientTransform="matrix(31.2532,7.05691e-15,-6.57932e-15,30.1315,827.37,372.718)"><stop offset="0" style="stop-color:white;stop-opacity:1"/><stop offset="0.6" style="stop-color:rgb(255,249,249);stop-opacity:1"/><stop offset="0.81" style="stop-color:rgb(255,234,237);stop-opacity:1"/><stop offset="1" style="stop-color:rgb(255,219,224);stop-opacity:1"/></radialGradient>
        <radialGradient id="_Radial6" cx="0" cy="0" r="1" gradientUnits="userSpaceOnUse" gradientTransform="matrix(32.5542,8.95085e-15,-6.85319e-15,38.2182,830.34,367.928)"><stop offset="0" style="stop-color:white;stop-opacity:1"/><stop offset="0.6" style="stop-color:rgb(255,249,249);stop-opacity:1"/><stop offset="0.81" style="stop-color:rgb(255,234,237);stop-opacity:1"/><stop offset="1" style="stop-color:rgb(255,219,224);stop-opacity:1"/></radialGradient>
    </defs>
</svg>
