<?xml version="1.0" encoding="UTF-8" standalone="no"?>
<!DOCTYPE svg PUBLIC "-//W3C//DTD SVG 1.1//EN" "http://www.w3.org/Graphics/SVG/1.1/DTD/svg11.dtd">
<svg width="100%" height="100%" viewBox="0 0 512 512" version="1.1" xmlns="http://www.w3.org/2000/svg" xmlns:xlink="http://www.w3.org/1999/xlink" xml:space="preserve" xmlns:serif="http://www.serif.com/" style="fill-rule:evenodd;clip-rule:evenodd;stroke-linecap:round;stroke-linejoin:round;stroke-miterlimit:1.41421;">
    <g transform="matrix(3.10086,0,0,3.10086,-3095.58,-1504.41)">
        <g id="Sheep---Eyes-Closed" serif:id="Sheep - Eyes Closed">
            <g id="Outline" transform="matrix(1,0,0,1,-0.255948,1.60103)">
                <g transform="matrix(0.936156,0,0,0.936156,917.743,249.661)">
                    <path d="M147.913,277.567C151.334,268.954 159.746,262.859 169.57,262.859C178.307,262.859 185.927,267.68 189.912,274.802C193.433,272.662 197.567,271.428 201.986,271.428C214.842,271.428 225.279,281.865 225.279,294.721C225.279,297.394 224.828,299.962 223.998,302.352C225.983,301.802 228.073,301.507 230.232,301.507C243.087,301.507 253.524,311.945 253.524,324.8C253.524,332.596 249.686,339.502 243.798,343.732C246.943,347.703 248.821,352.721 248.821,358.175C248.821,369.648 240.507,379.196 229.582,381.115C229.64,381.785 229.67,382.465 229.67,383.151C229.67,396.007 219.232,406.444 206.377,406.444C201.355,406.444 196.703,404.852 192.898,402.146C188.793,408.786 181.445,413.215 173.071,413.215C164.838,413.215 157.597,408.935 153.455,402.48C149.742,404.983 145.27,406.444 140.46,406.444C127.604,406.444 117.167,396.007 117.167,383.151C117.167,382.543 117.19,381.941 117.236,381.346C105.503,380.147 96.335,370.223 96.335,358.175C96.335,351.974 98.763,346.337 102.719,342.161C97.951,337.894 94.949,331.695 94.949,324.8C94.949,313.518 102.988,304.099 113.646,301.962C113.416,300.649 113.296,299.3 113.296,297.923C113.296,285.067 123.733,274.63 136.589,274.63C140.698,274.63 144.559,275.696 147.913,277.567ZM181.645,306.07C185.63,313.193 193.25,318.014 201.986,318.014C204.145,318.014 206.235,317.72 208.22,317.169C207.39,319.559 206.939,322.128 206.939,324.8C206.939,330.254 208.817,335.272 211.962,339.243C206.073,343.473 202.235,350.379 202.235,358.175C202.235,358.861 202.265,359.541 202.323,360.211C195.665,361.381 189.977,365.384 186.55,370.928C182.745,368.222 178.092,366.629 173.071,366.629C168.26,366.629 163.789,368.091 160.076,370.593C156.34,364.772 150.083,360.719 142.852,359.98C142.897,359.385 142.921,358.783 142.921,358.175C142.921,352.909 141.17,348.049 138.218,344.145C142.255,339.956 144.739,334.259 144.739,327.987C144.739,325.256 144.269,322.635 143.404,320.201C150.182,318.128 155.651,313.042 158.246,306.508C161.6,308.379 165.462,309.445 169.57,309.445C173.99,309.445 178.124,308.211 181.645,306.07Z" style="fill:none;stroke:rgb(195,111,129);stroke-width:6.85px;"/>
                </g>
                <g transform="matrix(-1.23512,0,0,1.23512,1653.26,-360.059)">
                    <ellipse cx="417.583" cy="717.154" rx="16.505" ry="9.568" style="fill:none;stroke:rgb(195,111,129);stroke-width:5.19px;stroke-linecap:butt;"/>
                </g>
                <g transform="matrix(1.23512,0,0,1.23512,508.968,-360.059)">
                    <ellipse cx="417.583" cy="717.154" rx="16.505" ry="9.568" style="fill:none;stroke:rgb(195,111,129);stroke-width:5.19px;stroke-linecap:butt;"/>
                </g>
            </g>
            <g id="Head" transform="matrix(1,0,0,1,-0.255948,1.60103)">
                <g transform="matrix(0.936156,0,0,0.936156,917.743,249.661)">
                    <path d="M147.913,277.567C151.334,268.954 159.746,262.859 169.57,262.859C178.307,262.859 185.927,267.68 189.912,274.802C193.433,272.662 197.567,271.428 201.986,271.428C214.842,271.428 225.279,281.865 225.279,294.721C225.279,297.394 224.828,299.962 223.998,302.352C225.983,301.802 228.073,301.507 230.232,301.507C243.087,301.507 253.524,311.945 253.524,324.8C253.524,332.596 249.686,339.502 243.798,343.732C246.943,347.703 248.821,352.721 248.821,358.175C248.821,369.648 240.507,379.196 229.582,381.115C229.64,381.785 229.67,382.465 229.67,383.151C229.67,396.007 219.232,406.444 206.377,406.444C201.355,406.444 196.703,404.852 192.898,402.146C188.793,408.786 181.445,413.215 173.071,413.215C164.838,413.215 157.597,408.935 153.455,402.48C149.742,404.983 145.27,406.444 140.46,406.444C127.604,406.444 117.167,396.007 117.167,383.151C117.167,382.543 117.19,381.941 117.236,381.346C105.503,380.147 96.335,370.223 96.335,358.175C96.335,351.974 98.763,346.337 102.719,342.161C97.951,337.894 94.949,331.695 94.949,324.8C94.949,313.518 102.988,304.099 113.646,301.962C113.416,300.649 113.296,299.3 113.296,297.923C113.296,285.067 123.733,274.63 136.589,274.63C140.698,274.63 144.559,275.696 147.913,277.567ZM181.645,306.07C185.63,313.193 193.25,318.014 201.986,318.014C204.145,318.014 206.235,317.72 208.22,317.169C207.39,319.559 206.939,322.128 206.939,324.8C206.939,330.254 208.817,335.272 211.962,339.243C206.073,343.473 202.235,350.379 202.235,358.175C202.235,358.861 202.265,359.541 202.323,360.211C195.665,361.381 189.977,365.384 186.55,370.928C182.745,368.222 178.092,366.629 173.071,366.629C168.26,366.629 163.789,368.091 160.076,370.593C156.34,364.772 150.083,360.719 142.852,359.98C142.897,359.385 142.921,358.783 142.921,358.175C142.921,352.909 141.17,348.049 138.218,344.145C142.255,339.956 144.739,334.259 144.739,327.987C144.739,325.256 144.269,322.635 143.404,320.201C150.182,318.128 155.651,313.042 158.246,306.508C161.6,308.379 165.462,309.445 169.57,309.445C173.99,309.445 178.124,308.211 181.645,306.07Z" style="fill:url(#_Radial1);"/>
                </g>
                <g transform="matrix(1.19446,0,0,1.23737,886.96,141.297)">
                    <path d="M129.814,325.33C137.555,313.841 186.148,313.441 193.899,325.33C199.992,334.675 203.658,346.736 203.658,360.008C203.658,375.665 184.73,386.988 161.415,386.988C138.101,386.988 119.172,375.665 119.172,360.008C119.172,347.61 123.195,335.155 129.814,325.33Z" style="fill:url(#_Linear2);"/>
                </g>
                <g transform="matrix(1,0,0,1,0.92419,0)">
                    <g transform="matrix(0.936156,0,0,0.936156,916.819,249.661)">
                        <path d="M124.303,375.722C124.919,373.517 126.093,371.436 127.826,369.702C133.203,364.326 141.934,364.326 147.311,369.702C152.688,375.079 152.688,383.81 147.311,389.187C146.674,389.825 145.989,390.386 145.269,390.873C136.192,387.376 128.858,382.154 124.303,375.722Z" style="fill:rgb(253,157,171);"/>
                    </g>
                    <g transform="matrix(0.936156,0,0,0.936156,916.819,249.661)">
                        <path d="M200.873,390.873C200.153,390.386 199.468,389.825 198.831,389.187C193.454,383.81 193.454,375.079 198.831,369.702C204.208,364.326 212.939,364.326 218.316,369.702C220.049,371.436 221.223,373.517 221.839,375.722C217.285,382.154 209.95,387.376 200.873,390.873Z" style="fill:rgb(253,157,171);"/>
                    </g>
                </g>
                <g transform="matrix(0.871236,0,0,0.847985,140.126,90.6862)">
                    <path d="M1080.2,548.515C1083.49,554.604 1089.92,558.746 1097.32,558.746C1100.89,558.746 1104.23,557.784 1107.11,556.106C1107.69,566.312 1116.16,574.42 1126.51,574.42C1127.61,574.42 1128.69,574.328 1129.74,574.153C1132.08,593.454 1127.3,619.583 1084.47,620.133C1019.77,620.964 1029.33,578.599 1030.43,574.42C1041.11,574.371 1049.77,565.679 1049.77,554.981C1049.77,554.135 1049.72,553.301 1049.62,552.483C1053.14,556.017 1058.01,558.206 1063.38,558.206C1070.56,558.206 1076.84,554.308 1080.2,548.515ZM1080.22,529.044C1080.41,529.054 1080.6,529.066 1080.79,529.08C1080.69,529.238 1080.6,529.398 1080.51,529.559C1080.41,529.386 1080.32,529.214 1080.22,529.044Z" style="fill:url(#_Linear3);"/>
                </g>
                <g transform="matrix(-1.23512,0,0,1.23512,1647.91,-358.206)">
                    <g transform="matrix(1,0,0,1,-4.32812,-1.5)">
                        <ellipse cx="417.583" cy="717.154" rx="16.505" ry="9.568" style="fill:url(#_Linear4);"/>
                    </g>
                    <g transform="matrix(0.719466,0,0,1,115.746,0.5)">
                        <ellipse cx="418.136" cy="717.153" rx="9.883" ry="3.827" style="fill:rgb(255,133,162);"/>
                    </g>
                </g>
                <g transform="matrix(1.23512,0,0,1.23512,514.313,-358.206)">
                    <g transform="matrix(1,0,0,1,-4.32812,-1.5)">
                        <ellipse cx="417.583" cy="717.154" rx="16.505" ry="9.568" style="fill:url(#_Linear5);"/>
                    </g>
                    <g transform="matrix(0.719466,0,0,1,115.746,0.5)">
                        <ellipse cx="418.136" cy="717.153" rx="9.883" ry="3.827" style="fill:rgb(255,133,162);"/>
                    </g>
                </g>
                <g>
                    <g>
                        <g transform="matrix(1,0,0,1,0.502209,0)">
                            <g transform="matrix(1.24276,0,0,1.24276,-271.962,-221.498)">
                                <circle cx="1074.5" cy="612.192" r="15.642" style="fill:url(#_Radial6);"/>
                            </g>
                            <g transform="matrix(1.24276,0,0,1.24276,-238.022,-221.498)">
                                <circle cx="1074.5" cy="612.192" r="15.642" style="fill:url(#_Radial7);"/>
                            </g>
                        </g>
                        <g transform="matrix(1,0,0,1,2.43218,0)">
                            <g transform="matrix(1.24276,0,0,1.24276,-208.834,-205.824)">
                                <circle cx="1074.5" cy="612.192" r="15.642" style="fill:url(#_Radial8);"/>
                            </g>
                            <g transform="matrix(1.24276,0,0,1.24276,-305.01,-205.824)">
                                <circle cx="1074.5" cy="612.192" r="15.642" style="fill:url(#_Radial9);"/>
                            </g>
                        </g>
                    </g>
                    <g transform="matrix(0.918298,-0.44763,0.39328,0.806803,22.6343,502.135)">
                        <ellipse cx="885.414" cy="530.062" rx="21.862" ry="13.09" style="fill:url(#_Radial10);"/>
                    </g>
                    <g transform="matrix(-0.918298,-0.44763,-0.39328,0.806803,2142.43,502.135)">
                        <ellipse cx="885.414" cy="530.062" rx="21.862" ry="13.09" style="fill:url(#_Radial11);"/>
                    </g>
                </g>
                <g transform="matrix(0.936156,0,0,0.936156,799.365,455.066)">
                    <g transform="matrix(1,0,0,0.794481,-1.0879,35.7792)">
                        <path d="M299.61,162.249L299.61,175.579C299.61,176.274 300.058,176.838 300.61,176.838C301.162,176.838 301.61,176.274 301.61,175.579L301.61,162.249C301.61,161.555 301.162,160.991 300.61,160.991C300.058,160.991 299.61,161.555 299.61,162.249Z" style="fill:rgb(227,105,123);"/>
                    </g>
                    <g transform="matrix(1.31935,0,0,1.31935,93.7584,-21.5037)">
                        <path d="M149.262,135.667C149.857,132.486 162.059,132.513 162.654,135.667C163.112,138.092 159.04,141.623 156.042,141.809L156.042,141.816C156.014,141.816 155.986,141.815 155.958,141.814C155.93,141.815 155.902,141.816 155.874,141.816L155.874,141.809C152.876,141.623 148.808,138.092 149.262,135.667Z" style="fill:rgb(234,113,139);"/>
                    </g>
                    <g transform="matrix(1,0,0,1,126.451,-219.413)">
                        <path d="M165.506,395.422C166.673,394.749 169.622,393.278 173.071,393.278C176.52,393.278 179.469,394.749 180.636,395.422C178.164,395.639 175.638,395.75 173.071,395.75C170.504,395.75 167.978,395.639 165.506,395.422Z" style="fill:rgb(227,105,123);"/>
                    </g>
                </g>
            </g>
            <g id="Eyes-Closed" serif:id="Eyes Closed" transform="matrix(0.936156,0,0,0.936156,990.728,489.959)">
                <g transform="matrix(1,0,0,1,-76.3748,-254.975)">
                    <path d="M157.479,361.052C155.629,359.095 153.409,357.757 151.056,356.989C150.001,356.644 148.915,356.425 147.827,356.328C146.726,356.23 145.621,356.258 144.543,356.401C141.935,356.746 139.476,357.709 137.469,359.155C136.702,359.66 136.489,360.693 136.994,361.46C137.499,362.226 138.532,362.439 139.298,361.934C141.611,360.524 144.554,360.034 147.471,360.311C148.848,360.442 150.231,360.712 151.553,361.252C152.824,361.771 154.059,362.461 155.16,363.438C155.818,364.078 156.872,364.063 157.512,363.405C158.153,362.746 158.138,361.692 157.479,361.052Z" style="fill:rgb(33,37,41);"/>
                </g>
                <g transform="matrix(-1,0,0,1,266.045,-254.975)">
                    <path d="M155.16,363.438C154.059,362.461 152.824,361.771 151.553,361.252C150.231,360.712 148.848,360.442 147.471,360.311C144.554,360.034 141.611,360.524 139.298,361.934C138.532,362.439 137.499,362.226 136.994,361.46C136.489,360.693 136.702,359.66 137.469,359.155C139.476,357.709 141.935,356.746 144.543,356.401C145.621,356.258 146.726,356.23 147.827,356.328C148.915,356.425 150.001,356.644 151.056,356.989C153.409,357.757 155.629,359.095 157.479,361.052C158.138,361.692 158.153,362.746 157.512,363.405C156.872,364.063 155.818,364.078 155.16,363.438Z" style="fill:rgb(33,37,41);"/>
                </g>
            </g>
        </g>
    </g>
    <defs>
        <radialGradient id="_Radial1" cx="0" cy="0" r="1" gradientUnits="userSpaceOnUse" gradientTransform="matrix(-7.10543e-15,150.094,-150.094,3.55271e-14,169.57,262.859)"><stop offset="0" style="stop-color:white;stop-opacity:1"/><stop offset="0.54" style="stop-color:rgb(255,249,249);stop-opacity:1"/><stop offset="0.9" style="stop-color:rgb(255,220,220);stop-opacity:1"/><stop offset="1" style="stop-color:rgb(255,216,216);stop-opacity:1"/></radialGradient>
        <linearGradient id="_Linear2" x1="0" y1="0" x2="1" y2="0" gradientUnits="userSpaceOnUse" gradientTransform="matrix(3.72557e-15,64.6037,-60.8431,3.95583e-15,162.336,320.476)"><stop offset="0" style="stop-color:rgb(252,238,235);stop-opacity:1"/><stop offset="1" style="stop-color:rgb(254,197,197);stop-opacity:1"/></linearGradient>
        <linearGradient id="_Linear3" x1="0" y1="0" x2="1" y2="0" gradientUnits="userSpaceOnUse" gradientTransform="matrix(4.22782e-15,86.6804,-69.0455,5.30765e-15,1080.39,527.162)"><stop offset="0" style="stop-color:white;stop-opacity:0.75"/><stop offset="0.53" style="stop-color:white;stop-opacity:0.2"/><stop offset="1" style="stop-color:white;stop-opacity:0"/></linearGradient>
        <linearGradient id="_Linear4" x1="0" y1="0" x2="1" y2="0" gradientUnits="userSpaceOnUse" gradientTransform="matrix(10.0052,17.202,-17.202,10.0052,413.123,707.939)"><stop offset="0" style="stop-color:rgb(253,227,225);stop-opacity:1"/><stop offset="1" style="stop-color:rgb(254,197,197);stop-opacity:1"/></linearGradient>
        <linearGradient id="_Linear5" x1="0" y1="0" x2="1" y2="0" gradientUnits="userSpaceOnUse" gradientTransform="matrix(10.0052,17.202,-17.202,10.0052,413.123,707.939)"><stop offset="0" style="stop-color:rgb(253,227,225);stop-opacity:1"/><stop offset="1" style="stop-color:rgb(254,197,197);stop-opacity:1"/></linearGradient>
        <radialGradient id="_Radial6" cx="0" cy="0" r="1" gradientUnits="userSpaceOnUse" gradientTransform="matrix(-5.35245e-15,113.064,-113.064,2.67623e-14,1084.64,577.134)"><stop offset="0" style="stop-color:white;stop-opacity:1"/><stop offset="0.54" style="stop-color:rgb(255,249,249);stop-opacity:1"/><stop offset="0.9" style="stop-color:rgb(255,220,220);stop-opacity:1"/><stop offset="1" style="stop-color:rgb(255,216,216);stop-opacity:1"/></radialGradient>
        <radialGradient id="_Radial7" cx="0" cy="0" r="1" gradientUnits="userSpaceOnUse" gradientTransform="matrix(-5.35245e-15,113.064,-113.064,2.67623e-14,1057.33,577.134)"><stop offset="0" style="stop-color:white;stop-opacity:1"/><stop offset="0.54" style="stop-color:rgb(255,249,249);stop-opacity:1"/><stop offset="0.9" style="stop-color:rgb(255,220,220);stop-opacity:1"/><stop offset="1" style="stop-color:rgb(255,216,216);stop-opacity:1"/></radialGradient>
        <radialGradient id="_Radial8" cx="0" cy="0" r="1" gradientUnits="userSpaceOnUse" gradientTransform="matrix(-5.35245e-15,113.064,-113.064,2.67623e-14,1032.29,564.522)"><stop offset="0" style="stop-color:white;stop-opacity:1"/><stop offset="0.54" style="stop-color:rgb(255,249,249);stop-opacity:1"/><stop offset="0.9" style="stop-color:rgb(255,220,220);stop-opacity:1"/><stop offset="1" style="stop-color:rgb(255,216,216);stop-opacity:1"/></radialGradient>
        <radialGradient id="_Radial9" cx="0" cy="0" r="1" gradientUnits="userSpaceOnUse" gradientTransform="matrix(-5.35245e-15,113.064,-113.064,2.67623e-14,1109.68,564.522)"><stop offset="0" style="stop-color:white;stop-opacity:1"/><stop offset="0.54" style="stop-color:rgb(255,249,249);stop-opacity:1"/><stop offset="0.9" style="stop-color:rgb(255,220,220);stop-opacity:1"/><stop offset="1" style="stop-color:rgb(255,216,216);stop-opacity:1"/></radialGradient>
        <radialGradient id="_Radial10" cx="0" cy="0" r="1" gradientUnits="userSpaceOnUse" gradientTransform="matrix(-60.2668,140.721,-123.636,-68.5953,930.025,508.067)"><stop offset="0" style="stop-color:white;stop-opacity:1"/><stop offset="0.54" style="stop-color:rgb(255,249,249);stop-opacity:1"/><stop offset="0.9" style="stop-color:rgb(255,220,220);stop-opacity:1"/><stop offset="1" style="stop-color:rgb(255,216,216);stop-opacity:1"/></radialGradient>
        <radialGradient id="_Radial11" cx="0" cy="0" r="1" gradientUnits="userSpaceOnUse" gradientTransform="matrix(-60.2668,140.721,123.636,68.5953,940.661,513.968)"><stop offset="0" style="stop-color:white;stop-opacity:1"/><stop offset="0.54" style="stop-color:rgb(255,249,249);stop-opacity:1"/><stop offset="0.9" style="stop-color:rgb(255,220,220);stop-opacity:1"/><stop offset="1" style="stop-color:rgb(255,216,216);stop-opacity:1"/></radialGradient>
    </defs>
</svg>
