<?xml version="1.0" encoding="UTF-8" standalone="no"?>
<!DOCTYPE svg PUBLIC "-//W3C//DTD SVG 1.1//EN" "http://www.w3.org/Graphics/SVG/1.1/DTD/svg11.dtd">
<svg width="100%" height="100%" viewBox="0 0 512 512" version="1.1" xmlns="http://www.w3.org/2000/svg" xmlns:xlink="http://www.w3.org/1999/xlink" xml:space="preserve" xmlns:serif="http://www.serif.com/" style="fill-rule:evenodd;clip-rule:evenodd;stroke-linecap:round;stroke-linejoin:round;stroke-miterlimit:1.41421;">
    <g transform="matrix(3.10086,0,0,3.10086,-3095.58,-1504.41)">
        <g id="Sheep---Lines-Horizontal" serif:id="Sheep - Lines Horizontal">
            <g id="Outline" transform="matrix(1,0,0,1,-0.255948,1.60103)">
                <g transform="matrix(0.936156,0,0,0.936156,917.743,249.661)">
                    <path d="M147.913,277.567C151.334,268.954 159.746,262.859 169.57,262.859C178.307,262.859 185.927,267.68 189.912,274.802C193.433,272.662 197.567,271.428 201.986,271.428C214.842,271.428 225.279,281.865 225.279,294.721C225.279,297.394 224.828,299.962 223.998,302.352C225.983,301.802 228.073,301.507 230.232,301.507C243.087,301.507 253.524,311.945 253.524,324.8C253.524,332.596 249.686,339.502 243.798,343.732C246.943,347.703 248.821,352.721 248.821,358.175C248.821,369.648 240.507,379.196 229.582,381.115C229.64,381.785 229.67,382.465 229.67,383.151C229.67,396.007 219.232,406.444 206.377,406.444C201.355,406.444 196.703,404.852 192.898,402.146C188.793,408.786 181.445,413.215 173.071,413.215C164.838,413.215 157.597,408.935 153.455,402.48C149.742,404.983 145.27,406.444 140.46,406.444C127.604,406.444 117.167,396.007 117.167,383.151C117.167,382.543 117.19,381.941 117.236,381.346C105.503,380.147 96.335,370.223 96.335,358.175C96.335,351.974 98.763,346.337 102.719,342.161C97.951,337.894 94.949,331.695 94.949,324.8C94.949,313.518 102.988,304.099 113.646,301.962C113.416,300.649 113.296,299.3 113.296,297.923C113.296,285.067 123.733,274.63 136.589,274.63C140.698,274.63 144.559,275.696 147.913,277.567ZM181.645,306.07C185.63,313.193 193.25,318.014 201.986,318.014C204.145,318.014 206.235,317.72 208.22,317.169C207.39,319.559 206.939,322.128 206.939,324.8C206.939,330.254 208.817,335.272 211.962,339.243C206.073,343.473 202.235,350.379 202.235,358.175C202.235,358.861 202.265,359.541 202.323,360.211C195.665,361.381 189.977,365.384 186.55,370.928C182.745,368.222 178.092,366.629 173.071,366.629C168.26,366.629 163.789,368.091 160.076,370.593C156.34,364.772 150.083,360.719 142.852,359.98C142.897,359.385 142.921,358.783 142.921,358.175C142.921,352.909 141.17,348.049 138.218,344.145C142.255,339.956 144.739,334.259 144.739,327.987C144.739,325.256 144.269,322.635 143.404,320.201C150.182,318.128 155.651,313.042 158.246,306.508C161.6,308.379 165.462,309.445 169.57,309.445C173.99,309.445 178.124,308.211 181.645,306.07Z" style="fill:none;stroke:rgb(195,111,129);stroke-width:6.85px;"/>
                </g>
                <g transform="matrix(-1.23512,0,0,1.23512,1653.26,-360.059)">
                    <ellipse cx="417.583" cy="717.154" rx="16.505" ry="9.568" style="fill:none;stroke:rgb(195,111,129);stroke-width:5.19px;stroke-linecap:butt;"/>
                </g>
                <g transform="matrix(1.23512,0,0,1.23512,508.968,-360.059)">
                    <ellipse cx="417.583" cy="717.154" rx="16.505" ry="9.568" style="fill:none;stroke:rgb(195,111,129);stroke-width:5.19px;stroke-linecap:butt;"/>
                </g>
            </g>
            <g transform="matrix(0.936156,0,0,0.936156,916.498,251.262)">
                <path d="M120.142,282.561C124.413,277.7 130.674,274.63 137.645,274.63C141.754,274.63 145.616,275.696 148.969,277.567C152.39,268.954 160.802,262.859 170.627,262.859C179.363,262.859 186.983,267.68 190.968,274.802C194.489,272.662 198.623,271.428 203.043,271.428C212.157,271.428 220.056,276.675 223.881,284.309C227.305,283.008 231.397,282.252 235.791,282.252C247.809,282.252 257.566,287.909 257.566,294.876C257.566,299.859 252.575,304.172 245.336,306.224C250.951,310.479 254.581,317.219 254.581,324.8C254.581,332.596 250.743,339.502 244.854,343.732C247.999,347.703 249.877,352.721 249.877,358.175C249.877,369.648 241.563,379.196 230.638,381.115C230.696,381.785 230.726,382.465 230.726,383.151C230.726,396.007 220.289,406.444 207.433,406.444C202.412,406.444 197.759,404.852 193.954,402.146C189.849,408.786 182.501,413.215 174.127,413.215C165.894,413.215 158.654,408.935 154.511,402.48C150.798,404.983 146.327,406.444 141.516,406.444C128.66,406.444 118.223,396.007 118.223,383.151C118.223,382.543 118.246,381.941 118.292,381.346C106.559,380.147 97.391,370.223 97.391,358.175C97.391,351.974 99.819,346.337 103.776,342.161C99.007,337.894 96.005,331.695 96.005,324.8C96.005,317.151 99.701,310.358 105.403,306.11C98.378,304.015 93.566,299.769 93.566,294.876C93.566,287.909 103.324,282.252 115.342,282.252C116.991,282.252 118.597,282.359 120.142,282.561Z" style="fill:url(#_Radial1);"/>
                <clipPath id="_clip2">
                    <path d="M120.142,282.561C124.413,277.7 130.674,274.63 137.645,274.63C141.754,274.63 145.616,275.696 148.969,277.567C152.39,268.954 160.802,262.859 170.627,262.859C179.363,262.859 186.983,267.68 190.968,274.802C194.489,272.662 198.623,271.428 203.043,271.428C212.157,271.428 220.056,276.675 223.881,284.309C227.305,283.008 231.397,282.252 235.791,282.252C247.809,282.252 257.566,287.909 257.566,294.876C257.566,299.859 252.575,304.172 245.336,306.224C250.951,310.479 254.581,317.219 254.581,324.8C254.581,332.596 250.743,339.502 244.854,343.732C247.999,347.703 249.877,352.721 249.877,358.175C249.877,369.648 241.563,379.196 230.638,381.115C230.696,381.785 230.726,382.465 230.726,383.151C230.726,396.007 220.289,406.444 207.433,406.444C202.412,406.444 197.759,404.852 193.954,402.146C189.849,408.786 182.501,413.215 174.127,413.215C165.894,413.215 158.654,408.935 154.511,402.48C150.798,404.983 146.327,406.444 141.516,406.444C128.66,406.444 118.223,396.007 118.223,383.151C118.223,382.543 118.246,381.941 118.292,381.346C106.559,380.147 97.391,370.223 97.391,358.175C97.391,351.974 99.819,346.337 103.776,342.161C99.007,337.894 96.005,331.695 96.005,324.8C96.005,317.151 99.701,310.358 105.403,306.11C98.378,304.015 93.566,299.769 93.566,294.876C93.566,287.909 103.324,282.252 115.342,282.252C116.991,282.252 118.597,282.359 120.142,282.561Z"/>
                </clipPath>
                <g clip-path="url(#_clip2)">
                    <g id="Horizontal" transform="matrix(1.0682,0,0,1.0682,-979.001,-268.398)">
                        <g transform="matrix(1.95057,0,0,1.32836,-554.241,62.8157)">
                            <path d="M799.155,338.606C799.155,338.606 819.22,338.954 825.453,338.606C831.686,338.258 833.818,338.954 839.573,338.954C845.328,338.954 866.031,338.069 869.22,338.055C872.409,338.041 878.062,337.939 878.062,337.939L879.091,347.885C879.091,347.885 862.986,347.537 856.505,347.537C850.025,347.537 843.661,348.913 835.557,348.913C827.453,348.913 824.7,347.87 816.001,348.218C807.302,348.566 797.444,348.566 797.444,348.566L799.155,338.606Z" style="fill:url(#_Radial3);"/>
                        </g>
                        <g transform="matrix(1.95057,0,0,1.95057,-548.062,-151.837)">
                            <path d="M792.906,357.83C792.906,357.83 808.202,357.698 813.754,357.698C819.306,357.698 829.207,356.64 835.078,356.64C840.949,356.64 856.867,355.756 861.23,355.756C865.594,355.756 876.945,356.105 876.945,356.105L877.293,366.15C877.293,366.15 866.42,364.76 860.767,365.107C855.113,365.455 850.922,365.455 846.428,365.455C841.935,365.455 835.876,364.425 829.308,364.758C822.741,365.092 818.159,364.745 813.23,365.441C808.302,366.136 792.92,366.483 792.92,366.483L792.906,357.83Z" style="fill:url(#_Radial4);"/>
                        </g>
                        <g transform="matrix(2.42241,0,0,2.29659,-943.364,-288.263)">
                            <path d="M801.518,378.444C801.518,378.444 811.275,380.168 816.711,379.487C822.147,378.806 824.277,377.879 830.497,377.879C836.717,377.879 841.501,378.213 848.663,377.879C855.824,377.546 869.726,377.546 869.726,377.546L868.379,383.779C868.379,383.779 848.183,383.547 843.69,383.779C839.196,384.011 834.064,384.127 828.41,384.358C822.756,384.59 802.707,384.59 802.707,384.59L801.518,378.444Z" style="fill:url(#_Radial5);"/>
                        </g>
                        <g transform="matrix(2.3256,0,0,1.81065,-870.175,-98.4719)">
                            <path d="M804.491,392.753C804.491,392.753 818.264,391.709 823.975,391.709C829.686,391.709 832.57,393.319 838.37,392.739C844.169,392.158 861.551,391.81 861.551,391.81L870.945,391.81C873.264,391.81 873.38,396.638 873.38,396.638C873.38,396.638 867.945,398.013 862.044,398.362C856.143,398.711 847.285,399.06 842.357,398.711C837.428,398.362 833.471,398.362 828.397,398.362C823.323,398.362 805.23,398.595 805.23,398.595L804.491,392.753Z" style="fill:url(#_Radial6);"/>
                        </g>
                    </g>
                </g>
            </g>
        </g>
    </g>
    <defs>
        <radialGradient id="_Radial1" cx="0" cy="0" r="1" gradientUnits="userSpaceOnUse" gradientTransform="matrix(5.11554e-15,83.5431,-83.5431,5.11554e-15,171.063,329.586)"><stop offset="0" style="stop-color:white;stop-opacity:1"/><stop offset="0.47" style="stop-color:rgb(255,249,249);stop-opacity:1"/><stop offset="0.77" style="stop-color:rgb(255,220,220);stop-opacity:1"/><stop offset="1" style="stop-color:rgb(255,216,216);stop-opacity:1"/></radialGradient>
        <radialGradient id="_Radial3" cx="0" cy="0" r="1" gradientUnits="userSpaceOnUse" gradientTransform="matrix(0,53.5743,-36.4846,0,837.577,368.678)"><stop offset="0" style="stop-color:rgb(255,216,216);stop-opacity:1"/><stop offset="0.6" style="stop-color:rgb(254,208,208);stop-opacity:1"/><stop offset="0.81" style="stop-color:rgb(252,189,189);stop-opacity:1"/><stop offset="1" style="stop-color:rgb(249,169,169);stop-opacity:1"/></radialGradient>
        <radialGradient id="_Radial4" cx="0" cy="0" r="1" gradientUnits="userSpaceOnUse" gradientTransform="matrix(0,36.4846,-36.4846,0,834.409,361.12)"><stop offset="0" style="stop-color:rgb(255,216,216);stop-opacity:1"/><stop offset="0.6" style="stop-color:rgb(254,208,208);stop-opacity:1"/><stop offset="0.81" style="stop-color:rgb(252,189,189);stop-opacity:1"/><stop offset="1" style="stop-color:rgb(249,169,169);stop-opacity:1"/></radialGradient>
        <radialGradient id="_Radial5" cx="0" cy="0" r="1" gradientUnits="userSpaceOnUse" gradientTransform="matrix(0,30.9875,-29.3781,0,835.066,366.114)"><stop offset="0" style="stop-color:rgb(255,216,216);stop-opacity:1"/><stop offset="0.6" style="stop-color:rgb(254,208,208);stop-opacity:1"/><stop offset="0.81" style="stop-color:rgb(252,189,189);stop-opacity:1"/><stop offset="1" style="stop-color:rgb(249,169,169);stop-opacity:1"/></radialGradient>
        <radialGradient id="_Radial6" cx="0" cy="0" r="1" gradientUnits="userSpaceOnUse" gradientTransform="matrix(0,39.3039,-30.601,0,838.356,359.552)"><stop offset="0" style="stop-color:rgb(255,216,216);stop-opacity:1"/><stop offset="0.6" style="stop-color:rgb(254,208,208);stop-opacity:1"/><stop offset="0.81" style="stop-color:rgb(252,189,189);stop-opacity:1"/><stop offset="1" style="stop-color:rgb(249,169,169);stop-opacity:1"/></radialGradient>
    </defs>
</svg>
